# Blender 5.0.1
# www.blender.org
mtllib level.mtl
o Level
v -11.666667 0.000001 11.666667
v -11.666667 0.000000 6.334006
v -11.666667 0.000000 5.000000
v -11.666667 0.000000 1.666667
v -11.666667 -0.000000 -1.666667
v -11.666667 -0.000000 -5.000000
v -11.666667 -0.000001 -8.333334
v -11.666667 -0.000001 -11.666667
v -8.333334 0.000001 11.666667
v -8.333334 0.000000 6.334006
v -8.333334 0.000000 5.000000
v -8.333334 0.000000 1.666667
v -8.333334 -0.000000 -1.666667
v -8.333334 -0.000000 -5.000000
v -8.333334 -0.000001 -8.333334
v -8.333334 -0.000001 -11.666667
v -5.000000 0.000000 1.666667
v -5.000000 -0.000000 -1.666667
v -1.666667 0.000000 1.666667
v -1.666667 -0.000000 -1.666667
v 1.666667 0.000000 1.666667
v 1.666667 -0.000000 -1.666667
v 5.000000 0.000000 1.666667
v 5.000000 -0.000000 -1.666667
v 8.333334 0.000001 11.666667
v 8.333334 0.000001 6.997627
v 8.333334 0.000000 5.000000
v 8.333334 0.000000 1.666667
v 8.333334 -0.000000 -1.666667
v 8.333334 -0.000000 -5.000000
v 8.333334 -0.000001 -8.333334
v 8.333334 -0.000001 -11.666667
v 11.666667 0.000001 11.666667
v 11.666667 0.000001 6.997627
v 11.666667 0.000000 5.000000
v 11.666667 0.000000 1.666667
v 11.666667 -0.000000 -1.666667
v 11.666667 -0.000000 -5.000000
v 11.666667 -0.000001 -8.333334
v 11.666667 -0.000001 -11.666667
v -15.000000 2.919783 15.838120
v 15.000000 2.919783 15.000000
v -15.000000 2.919780 -17.604971
v 14.299160 2.919781 -16.592476
v -15.000000 2.919781 -11.666667
v -15.000000 2.919783 11.666667
v -11.666667 2.919783 15.838120
v -8.333334 2.919783 15.838120
v -2.764084 2.919783 15.838120
v 3.151341 2.919783 15.000000
v 8.333334 2.919783 15.000000
v 11.666667 2.919783 15.000000
v 15.000000 2.919783 11.666667
v 21.183750 2.919782 5.000000
v 21.183750 2.919781 -5.000000
v 14.299160 2.919781 -11.666667
v 11.666667 2.919781 -16.592476
v 8.333334 2.919781 -16.592476
v 3.437281 2.919781 -16.592476
v -2.510219 2.919780 -17.604971
v -11.666667 2.919782 6.334006
v -11.666667 2.919782 5.000000
v -11.666667 2.919782 1.666667
v -11.666667 2.919782 -1.666667
v -11.666667 2.919781 -5.000000
v -11.666667 2.919781 -8.333334
v -8.333334 2.919782 6.334006
v -8.333334 2.919782 5.000000
v -8.333334 2.919782 1.666667
v -8.333334 2.919782 -1.666667
v -8.333334 2.919781 -5.000000
v -8.333334 2.919781 -8.333334
v -2.764084 2.919783 11.666667
v -5.000000 2.919782 1.666667
v -5.000000 2.919782 -1.666667
v -2.510219 2.919781 -11.666667
v -1.666667 2.919782 5.000000
v -1.666667 2.919781 -5.000000
v 1.666667 2.919782 5.000000
v 1.666667 2.919781 -5.000000
v 3.151341 2.919783 11.666667
v 5.000000 2.919782 1.666667
v 5.000000 2.919782 -1.666667
v 3.437281 2.919781 -11.666667
v 8.333334 2.919782 6.997627
v 8.333334 2.919782 5.000000
v 8.333334 2.919782 1.666667
v 8.333334 2.919782 -1.666667
v 8.333334 2.919781 -5.000000
v 8.333334 2.919781 -8.333334
v 11.666667 2.919782 6.997627
v 11.666667 2.919782 5.000000
v 11.666667 2.919782 1.666667
v 11.666667 2.919782 -1.666667
v 11.666667 2.919781 -5.000000
v 11.666667 2.919781 -8.333334
v 12.087501 2.919782 5.000000
v 12.087501 2.919782 1.666667
v 12.087501 2.919782 -1.666667
v 12.087501 2.919781 -5.000000
v 4.578041 2.919782 5.000000
v 4.578041 2.919782 1.666667
v 4.578041 2.919782 -1.666667
v 4.578041 2.919781 -5.000000
v 8.333334 2.919782 7.380906
v 3.151341 2.919782 7.380906
v 15.000000 2.919782 7.380906
v 11.666667 2.919782 7.380906
v 11.666667 -0.000001 -8.333334
v 8.333334 2.919781 -8.702548
v 3.437281 2.919781 -8.702548
v 14.299160 2.919781 -8.702548
v 11.666667 2.919781 -8.702548
v -4.609688 2.919782 5.000000
v -4.609688 2.919782 1.666667
v -4.609688 2.919782 -1.666667
v -4.609688 2.919781 -5.000000
v -11.666667 2.919781 -8.699032
v -15.000000 2.919781 -8.699032
v -2.510220 2.919781 -8.699032
v -8.333334 2.919781 -8.699032
v -11.666667 2.919782 6.741899
v -15.000000 2.919782 6.741899
v -2.764084 2.919782 6.741899
v -8.333334 2.919782 6.741899
v 4.578041 2.919782 -0.555555
v 4.578041 2.919782 0.555556
v 4.578041 0.000000 0.722222
v 4.578041 -0.000000 -0.722222
v 4.578041 1.946521 -1.666667
v 4.578041 0.973261 -1.666667
v 4.578041 0.973261 1.666667
v 4.578041 1.946521 1.666667
v 4.578041 2.530477 0.722222
v 4.578041 1.265239 0.722222
v 4.578041 2.530477 -0.722222
v 4.578041 1.265239 -0.722222
v 11.666667 2.919782 -0.555555
v 11.666667 2.919782 0.555556
v 11.666667 0.000000 0.722222
v 11.666667 -0.000000 -0.722222
v 11.666667 1.946521 -1.666667
v 11.666667 0.973261 -1.666667
v 11.666667 0.973261 1.666667
v 11.666667 1.946521 1.666667
v 11.666667 2.530477 0.722222
v 11.666667 1.265239 0.722222
v 11.666667 2.530477 -0.722222
v 11.666667 1.265239 -0.722222
v -4.609688 2.919782 -0.555555
v -4.609688 2.919782 0.555556
v -4.609688 0.000000 0.722222
v -4.609688 -0.000000 -0.722222
v -4.609688 1.946521 -1.666667
v -4.609688 0.973261 -1.666667
v -4.609688 0.973261 1.666667
v -4.609688 1.946521 1.666667
v -4.609688 2.530477 0.722222
v -4.609688 1.265239 0.722222
v -4.609688 2.530477 -0.722222
v -4.609688 1.265239 -0.722222
v -9.277778 1.265239 6.334006
v -9.277778 2.530478 6.334006
v -10.722222 1.265239 6.334006
v -10.722222 2.530478 6.334006
v -11.666667 1.946522 6.334006
v -11.666667 0.973261 6.334006
v -8.333333 0.973261 6.334006
v -8.333333 1.946522 6.334006
v -9.277778 0.000000 6.334006
v -10.722222 0.000000 6.334006
v -10.555555 2.919782 6.334006
v -9.444445 2.919782 6.334006
v -9.277778 1.265238 -8.333334
v -9.277778 2.530476 -8.333334
v -10.722222 1.265238 -8.333334
v -10.722222 2.530476 -8.333334
v -11.666667 1.946520 -8.333334
v -11.666667 0.973260 -8.333334
v -8.333333 0.973260 -8.333334
v -8.333333 1.946520 -8.333334
v -9.277778 -0.000001 -8.333334
v -10.722222 -0.000001 -8.333334
v -10.555555 2.919781 -8.333334
v -9.444445 2.919781 -8.333334
v 10.722222 1.265238 -8.333334
v 10.722222 2.530476 -8.333334
v 9.277778 1.265238 -8.333334
v 9.277778 2.530476 -8.333334
v 8.333333 1.946520 -8.333334
v 8.333333 0.973260 -8.333334
v 11.666667 0.973260 -8.333334
v 11.666667 1.946520 -8.333334
v 10.722222 -0.000001 -8.333334
v 9.277778 -0.000001 -8.333334
v 9.444445 2.919781 -8.333334
v 10.555555 2.919781 -8.333334
v 10.722222 1.265239 6.997627
v 10.722222 2.530478 6.997627
v 9.277778 1.265239 6.997627
v 9.277778 2.530478 6.997627
v 8.333333 1.946522 6.997627
v 8.333333 0.973262 6.997627
v 11.666667 0.973262 6.997627
v 11.666667 1.946522 6.997627
v 10.722222 0.000001 6.997627
v 9.277778 0.000001 6.997627
v 9.444445 2.919782 6.997627
v 10.555555 2.919782 6.997627
v -9.277778 2.530476 -8.699032
v -9.277778 1.265238 -8.699032
v -10.722222 2.530476 -8.699032
v -11.666667 1.946520 -8.699032
v -10.722222 1.265238 -8.699032
v -11.666667 0.973260 -8.699032
v -8.333333 1.946520 -8.699032
v -8.333333 0.973260 -8.699032
v -9.444445 2.919781 -8.699032
v -9.277778 -0.000001 -8.699032
v -10.555555 2.919781 -8.699032
v -10.722222 -0.000001 -8.699032
v -11.666667 0.973262 6.741899
v -9.277778 0.000001 6.741899
v -8.333333 0.973262 6.741899
v -9.277778 1.265239 6.741899
v -8.333333 1.946522 6.741899
v -9.277778 2.530478 6.741899
v -10.722222 2.530478 6.741899
v -10.722222 1.265239 6.741899
v -11.666667 1.946522 6.741899
v -9.444445 2.919782 6.741899
v -10.555555 2.919782 6.741899
v -10.722222 0.000001 6.741899
v -5.000000 1.946521 -1.666667
v -5.000000 0.973261 -1.666667
v -5.000000 2.919782 -0.555555
v -5.000000 2.919782 0.555556
v -5.000000 0.973261 1.666667
v -5.000000 1.946521 1.666667
v -5.000000 0.000000 0.722222
v -5.000000 1.265239 0.722222
v -5.000000 2.530477 0.722222
v -5.000000 1.265239 -0.722222
v -5.000000 -0.000000 -0.722222
v -5.000000 2.530477 -0.722222
v 10.722222 0.000001 7.380906
v 5.000000 -0.000000 -0.722222
v 10.722222 1.265240 7.380906
v 5.000000 2.919782 0.555556
v 5.000000 0.973261 -1.666667
v 5.000000 1.946521 1.666667
v 10.722222 2.530478 7.380906
v 5.000000 2.919782 -0.555555
v 10.555555 2.919782 7.380906
v 5.000000 0.000000 0.722222
v 5.000000 1.946521 -1.666667
v 5.000000 0.973261 1.666667
v 5.000000 1.265239 0.722222
v 5.000000 2.530477 0.722222
v 5.000000 1.265239 -0.722222
v 5.000000 2.530477 -0.722222
v 9.277778 1.265240 7.380906
v 9.277778 2.530478 7.380906
v 9.444445 2.919782 7.380906
v 9.277778 0.000001 7.380906
v 8.333333 1.946522 7.380906
v 8.333333 0.973262 7.380906
v 11.666667 0.973262 7.380906
v 11.666667 1.946522 7.380906
v 12.087501 0.973261 -1.666667
v 12.087501 1.946521 -1.666667
v 12.087501 2.919782 0.555556
v 12.087501 2.919782 -0.555555
v 12.087501 0.973261 1.666667
v 12.087501 1.946521 1.666667
v 12.087501 0.000000 0.722222
v 12.087501 1.265239 0.722222
v 12.087501 2.530477 0.722222
v 12.087501 1.265239 -0.722222
v 12.087501 -0.000000 -0.722222
v 12.087501 2.530477 -0.722222
v 8.333333 1.946520 -8.702547
v 9.277778 2.530476 -8.702547
v 8.333333 0.973260 -8.702547
v 9.277778 1.265238 -8.702547
v 10.722222 2.530476 -8.702547
v 10.722222 1.265238 -8.702547
v 9.277778 -0.000001 -8.702547
v 9.444445 2.919781 -8.702547
v 10.722222 -0.000001 -8.702547
v 10.555555 2.919781 -8.702547
v 11.666667 0.973260 -8.702547
v 11.666667 1.946520 -8.702547
v 12.138029 0.000000 1.666667
v 12.138029 -0.000000 -1.666667
v 12.138029 0.000000 0.722222
v 12.138029 -0.000000 -0.722222
v 12.138029 -0.000000 -4.949471
v 21.132799 0.000000 1.666638
v 21.132799 -0.000000 -1.666695
v 21.132799 -0.000000 -4.949500
v 21.183750 0.156019 -1.666667
v 21.183750 0.156019 1.666667
v 21.132799 0.000000 4.949746
v 12.138029 0.000000 4.949774
v 12.087501 0.156019 5.000000
v 12.087501 0.156019 1.666667
v 12.087501 0.156019 -1.666667
v 12.087501 0.156019 -5.000000
v 12.087501 0.156019 -0.722222
v 12.087501 0.156019 0.722222
v 21.183750 0.156019 5.000000
v 12.138029 0.156019 -0.722222
v 12.138029 0.156019 -1.666667
v 12.138029 0.156019 1.666667
v 12.138029 0.156019 0.722222
v 12.138029 0.156019 -5.000000
v 12.138029 0.156019 5.000000
v 12.138029 0.156019 -4.949471
v 21.183750 0.156019 -4.949471
v 21.183750 0.156019 -5.000000
v 21.132799 0.156019 1.666638
v 21.132799 0.156019 4.949746
v 21.132799 0.156019 -1.666695
v 21.132799 0.156019 -4.949500
v 21.132799 0.156019 4.999972
v 12.138029 0.156019 4.949774
v 11.666667 -0.000001 -16.542089
v 8.333334 -0.000001 -16.542089
v 3.486894 -0.000001 -16.542089
v 14.248586 -0.000001 -16.542089
v 14.249453 -0.000001 -11.666667
v 3.487091 -0.000001 -11.666667
v 8.333334 -0.000001 -8.752730
v 11.666667 -0.000001 -8.752730
v 9.277778 -0.000001 -8.752729
v 10.722222 -0.000001 -8.752729
v 14.249453 -0.000001 -8.752730
v 3.487091 -0.000001 -8.752730
v 14.299160 0.155311 -16.592476
v 11.666667 0.155311 -16.592476
v 8.333334 0.155311 -16.592476
v 3.437281 0.155311 -11.666667
v 3.437281 0.155311 -16.592476
v 3.437281 0.155311 -8.702548
v 8.333334 0.155311 -8.702548
v 9.277778 0.155311 -8.702547
v 14.299160 0.155311 -11.666667
v 14.299160 0.155311 -8.702548
v 3.486894 0.155311 -16.592476
v 11.666667 0.155311 -16.542089
v 8.333334 0.155311 -16.542089
v 3.486894 0.155311 -16.542089
v 14.299160 0.155311 -16.542089
v 14.248586 0.155311 -16.542089
v 14.249453 0.155311 -11.666667
v 14.249453 0.155311 -8.702548
v 10.722222 0.155311 -8.702547
v 11.666667 0.155311 -8.702548
v 3.487091 0.155311 -11.666667
v 3.487091 0.155311 -8.702548
v 8.333334 0.155311 -8.752730
v 9.277778 0.155311 -8.752729
v 10.722222 0.155311 -8.752729
v 11.666667 0.155311 -8.752730
v 14.249453 0.155311 -8.752730
v 3.487091 0.155311 -8.752730
v 3.151341 0.150777 15.000000
v 14.949154 0.000001 14.949249
v 11.666667 0.000001 14.949249
v 8.333334 0.000001 14.949249
v 14.949154 0.000001 7.430923
v 14.949154 0.000001 11.666667
v 9.277778 0.000001 7.430923
v 10.722222 0.000001 7.430923
v 11.666667 0.000001 7.430923
v 8.333334 0.000001 7.430923
v 3.201717 0.000001 7.430923
v 3.201717 0.000001 14.949249
v 3.201717 0.000001 11.666667
v 3.201717 0.150777 7.430923
v 8.333334 0.150777 7.430923
v 8.333334 0.150777 15.000000
v 11.666667 0.150777 15.000000
v 15.000000 0.150777 15.000000
v 15.000000 0.150777 11.666667
v 14.949154 0.150777 15.000000
v 3.151341 0.150777 14.949249
v 8.333334 0.150777 14.949249
v 3.201717 0.150777 14.949249
v 14.949154 0.150777 14.949249
v 14.949154 0.150777 11.666667
v 8.333334 0.150777 7.380906
v 3.151341 0.150777 7.380906
v 15.000000 0.150777 7.380906
v 11.666667 0.150777 7.380906
v 3.151341 0.150777 11.666667
v 10.722222 0.150777 7.380906
v 9.277778 0.150777 7.380906
v 3.201717 0.150777 11.666667
v 3.151341 0.150777 7.430923
v 14.949154 0.150777 7.430923
v 11.666667 0.150777 7.430923
v 15.000000 0.150777 7.430923
v 11.666667 0.150777 14.949249
v 10.722222 0.150777 7.430923
v 9.277778 0.150777 7.430923
v 4.527452 0.000000 4.948371
v 1.666667 0.000000 4.948371
v -1.666667 0.000000 4.948371
v 4.527452 -0.000000 -0.722222
v 4.527452 0.000000 0.722222
v 4.527452 -0.000000 -1.666667
v 4.527452 0.000000 1.666667
v -1.666667 -0.000000 -4.948664
v 1.666667 -0.000000 -4.948664
v 4.527452 -0.000000 -4.948664
v -4.559221 0.000000 1.666667
v -4.559221 -0.000000 -1.666667
v -4.559220 0.000000 0.722223
v -4.559220 -0.000000 -0.722222
v -4.559221 0.000000 4.948371
v -4.559221 -0.000000 -4.948664
v 1.666667 0.151355 -5.000000
v 1.666667 0.151355 5.000000
v -4.609688 0.151355 5.000000
v -1.666667 0.151355 5.000000
v -1.666667 0.151355 -5.000000
v -4.609688 0.151355 -5.000000
v 4.578041 0.151355 5.000000
v 4.578041 0.151355 1.666667
v 4.578041 0.151355 -0.722222
v 4.578041 0.151355 -1.666667
v 4.578041 0.151355 -5.000000
v 4.578041 0.151355 0.722222
v -4.609688 0.151355 1.666667
v -4.609688 0.151355 0.722222
v -4.609688 0.151355 -0.722222
v -4.609688 0.151355 -1.666667
v 4.527452 0.151355 4.948371
v 4.527452 0.151355 1.666667
v -4.609688 0.151355 4.948371
v 4.527452 0.151355 -5.000000
v 4.527452 0.151355 5.000000
v -1.666667 0.151355 4.948371
v 1.666667 0.151355 4.948371
v 4.527452 0.151355 -0.722222
v 4.527452 0.151355 0.722222
v 4.527452 0.151355 -1.666667
v 1.666667 0.151355 -4.948664
v -1.666667 0.151355 -4.948664
v 4.527452 0.151355 -4.948664
v -4.609688 0.151355 -4.948664
v -4.559221 0.151355 1.666667
v -4.559220 0.151355 0.722223
v -4.559220 0.151355 -0.722222
v -4.559221 0.151355 -1.666667
v -4.559221 0.151355 4.948371
v -4.559221 0.151355 -4.948664
v -15.000000 0.150399 15.838120
v -2.815619 0.150399 15.838120
v -14.949533 0.000001 6.792202
v -14.949533 0.000001 15.787177
v -14.949533 0.000001 11.666667
v -2.815619 0.000001 15.787177
v -8.333334 0.000001 15.787177
v -11.666667 0.000001 15.787177
v -2.815619 0.000001 6.792202
v -2.815619 0.000001 11.666667
v -10.722222 0.000001 6.792202
v -9.277778 0.000001 6.792202
v -8.333334 0.000001 6.792202
v -11.666667 0.000001 6.792202
v -8.333334 0.150399 15.838120
v -11.666667 0.150399 15.838120
v -2.764084 0.150399 15.838120
v -2.764084 0.150399 11.666667
v -2.815619 0.150399 15.787177
v -15.000000 0.150399 15.787177
v -11.666667 0.150399 6.741899
v -15.000000 0.150399 6.741899
v -2.764084 0.150399 6.741899
v -8.333334 0.150399 6.741899
v -8.333334 0.150399 15.787177
v -14.949533 0.150399 15.787177
v -11.666667 0.150399 15.787177
v -11.666667 0.150399 6.792202
v -14.949533 0.150399 6.792202
v -9.277778 0.150399 6.741899
v -10.722222 0.150399 6.741899
v -2.815619 0.150399 11.666667
v -15.000000 0.150399 11.666667
v -15.000000 0.150399 6.792202
v -14.949533 0.150399 11.666667
v -2.815619 0.150399 6.792202
v -8.333334 0.150399 6.792202
v -2.764084 0.150399 6.792202
v -9.277778 0.150399 6.792202
v -10.722222 0.150399 6.792202
v -14.950336 -0.000001 -8.749719
v -2.559651 -0.000001 -8.749719
v -11.666667 -0.000001 -17.554691
v -8.333334 -0.000001 -17.554691
v -10.722222 -0.000001 -8.749719
v -9.277778 -0.000001 -8.749719
v -8.333334 -0.000001 -8.749719
v -11.666667 -0.000001 -8.749719
v -2.559651 -0.000001 -17.554691
v -2.559651 -0.000001 -11.666667
v -14.950336 -0.000001 -17.554691
v -14.950336 -0.000001 -11.666667
v -2.510219 0.150201 -17.604971
v -15.000000 0.150201 -17.604971
v -11.666667 0.150201 -17.604971
v -8.333334 0.150201 -17.604971
v -14.950336 0.150201 -17.554691
v -15.000000 0.150201 -17.554691
v -15.000000 0.150201 -8.749719
v -14.950336 0.150201 -8.749719
v -14.950336 0.150201 -11.666667
v -15.000000 0.150201 -11.666667
v -11.666667 0.150201 -17.554691
v -11.666667 0.150201 -8.749719
v -11.666667 0.150201 -8.699032
v -15.000000 0.150201 -8.699032
v -2.510220 0.150201 -8.699032
v -8.333334 0.150201 -8.699032
v -2.559651 0.150201 -8.749719
v -8.333334 0.150201 -8.749719
v -2.510219 0.150201 -17.554691
v -2.559651 0.150201 -17.554691
v -2.510220 0.150201 -8.749719
v -8.333334 0.150201 -17.554691
v -9.277778 0.150202 -8.699032
v -10.722222 0.150202 -8.699032
v -2.510219 0.150201 -11.666667
v -2.559651 0.150201 -11.666667
v -9.277778 0.150202 -8.749719
v -10.722222 0.150202 -8.749719
vn -0.0000 1.0000 -0.0000
vn 1.0000 -0.0000 -0.0000
vn -0.0000 -0.0000 1.0000
vn -1.0000 -0.0000 -0.0000
vn -0.0000 -0.0000 -1.0000
vn -0.0000 -1.0000 -0.0000
vn -1.0000 -0.0000 0.0002
vn -1.0000 -0.0000 0.0001
vt 0.068695 0.822685
vt 0.068695 0.768118
vt 0.171698 0.768137
vt 0.171698 0.822685
vt 0.243979 0.922721
vt 0.243979 0.852297
vt 0.368375 0.852297
vt 0.368375 0.922721
vt 0.243979 0.730316
vt 0.368375 0.730316
vt 0.068695 0.893108
vt 0.171698 0.893108
vt 0.663256 0.914042
vt 0.663256 0.809996
vt 0.721765 0.809996
vt 0.721765 0.912979
vt 0.721765 0.914042
vt 0.469664 0.923360
vt 0.572647 0.923360
vt 0.572647 0.992717
vt 0.469664 0.992717
vt 0.382610 0.923360
vt 0.382610 0.852936
vt 0.469664 0.852936
vt 0.007132 0.822685
vt 0.007132 0.768118
vt 0.077952 0.503070
vt 0.167441 0.503070
vt 0.167441 0.572419
vt 0.077952 0.572419
vt 0.868230 0.199392
vt 0.868230 0.007215
vt 0.926620 0.007215
vt 0.926620 0.008283
vt 0.926620 0.199392
vt 0.587416 0.538038
vt 0.587416 0.274166
vt 0.645929 0.274166
vt 0.645929 0.344590
vt 0.645929 0.415013
vt 0.645929 0.538038
vt 0.469664 0.736363
vt 0.572647 0.736363
vt 0.572647 0.852936
vt 0.182352 0.852297
vt 0.182352 0.730316
vt 0.077952 0.642842
vt 0.167441 0.642842
vt 0.167441 0.751258
vt 0.077952 0.751258
vt 0.663256 0.375226
vt 0.663256 0.271180
vt 0.721765 0.271180
vt 0.721765 0.272243
vt 0.721765 0.375226
vt 0.802856 0.488982
vt 0.861357 0.488982
vt 0.861357 0.578471
vt 0.861357 0.579527
vt 0.802856 0.579527
vt 0.868230 0.410662
vt 0.926620 0.200459
vt 0.926620 0.269815
vt 0.926620 0.340239
vt 0.926620 0.410662
vt 0.868230 0.814110
vt 0.868230 0.743686
vt 0.888792 0.743686
vt 0.909354 0.743686
vt 0.926620 0.743686
vt 0.926620 0.814110
vt 0.868230 0.602839
vt 0.926620 0.602839
vt 0.926620 0.673263
vt 0.909354 0.673263
vt 0.888792 0.673263
vt 0.868230 0.673263
vt 0.572647 0.872890
vt 0.573710 0.872890
vt 0.573710 0.903407
vt 0.572647 0.903407
vt 0.802856 0.829855
vt 0.802856 0.759431
vt 0.823419 0.759431
vt 0.843981 0.759431
vt 0.861357 0.759431
vt 0.861357 0.829855
vt 0.995206 0.399271
vt 0.995206 0.461941
vt 0.995206 0.566087
vt 0.936757 0.566087
vt 0.936757 0.565022
vt 0.936757 0.461941
vt 0.936757 0.399271
vt 0.182352 0.922721
vt 0.182352 0.902767
vt 0.181281 0.902767
vt 0.181281 0.872250
vt 0.182352 0.872250
vt 0.587416 0.148707
vt 0.587416 0.086010
vt 0.645929 0.086010
vt 0.645929 0.087081
vt 0.645929 0.148707
vt 0.628540 0.015586
vt 0.645929 0.015586
vt 0.587416 0.015586
vt 0.607978 0.015586
vt 0.936757 0.697714
vt 0.957319 0.697714
vt 0.977881 0.697714
vt 0.995162 0.697714
vt 0.995162 0.800101
vt 0.995162 0.801153
vt 0.936757 0.801153
vt 0.587415 0.872694
vt 0.587415 0.849220
vt 0.607978 0.849220
vt 0.595640 0.869173
vt 0.628540 0.849220
vt 0.622371 0.869173
vt 0.587415 0.896169
vt 0.595640 0.899690
vt 0.607978 0.919643
vt 0.622371 0.899690
vt 0.628540 0.919643
vt 0.587415 0.919643
vt 0.645929 0.899690
vt 0.645929 0.919643
vt 0.645929 0.849220
vt 0.645929 0.869173
vt 0.671481 0.133565
vt 0.698212 0.133565
vt 0.704380 0.153518
vt 0.683818 0.153518
vt 0.663256 0.130044
vt 0.663256 0.153518
vt 0.663256 0.106570
vt 0.671481 0.103048
vt 0.683818 0.083095
vt 0.704380 0.083095
vt 0.698212 0.103048
vt 0.663256 0.083095
vt 0.721765 0.083095
vt 0.721765 0.103048
vt 0.721765 0.133565
vt 0.721765 0.153518
vt 0.802856 0.735956
vt 0.811081 0.739478
vt 0.837812 0.739478
vt 0.802856 0.712482
vt 0.811081 0.708961
vt 0.823419 0.689008
vt 0.843981 0.689008
vt 0.837812 0.708961
vt 0.802856 0.689008
vt 0.861357 0.689008
vt 0.861357 0.708961
vt 0.861357 0.739478
vt 0.903185 0.693216
vt 0.876454 0.693216
vt 0.868230 0.696737
vt 0.926620 0.693216
vt 0.903185 0.723733
vt 0.926620 0.723733
vt 0.876454 0.723733
vt 0.868230 0.720212
vt 0.934804 0.654671
vt 0.934804 0.631197
vt 0.957319 0.627291
vt 0.944982 0.647244
vt 0.977881 0.627291
vt 0.971712 0.647244
vt 0.934804 0.678146
vt 0.944982 0.677761
vt 0.971712 0.677761
vt 0.995162 0.677761
vt 0.995162 0.627291
vt 0.995162 0.647244
vt 0.167441 0.592372
vt 0.168497 0.592372
vt 0.168497 0.622889
vt 0.167441 0.622889
vt 0.663256 0.012672
vt 0.721765 0.012672
vt 0.926620 0.411739
vt 0.926620 0.601772
vt 0.383231 0.562206
vt 0.383231 0.492844
vt 0.573264 0.492844
vt 0.573264 0.562206
vt 0.382163 0.582159
vt 0.383231 0.582159
vt 0.573264 0.632630
vt 0.383231 0.632630
vt 0.383231 0.612676
vt 0.382164 0.612676
vt 0.573264 0.701986
vt 0.383231 0.701986
vt 0.171698 0.995499
vt 0.068695 0.995495
vt 0.007132 0.995495
vt 0.007132 0.893108
vt 0.007132 0.873155
vt 0.006072 0.873155
vt 0.006072 0.842638
vt 0.007132 0.842638
vt 0.995162 0.343654
vt 0.995162 0.399271
vt 0.936757 0.343654
vt 0.995162 0.273230
vt 0.936757 0.273230
vt 0.995162 0.065723
vt 0.995162 0.169791
vt 0.936757 0.169791
vt 0.936757 0.065723
vt 0.995162 0.003100
vt 0.936757 0.003100
vt 0.995162 0.170839
vt 0.008601 0.572419
vt 0.008601 0.503070
vt 0.008601 0.642842
vt 0.008601 0.751258
vt 0.861357 0.419630
vt 0.802856 0.418558
vt 0.861357 0.418558
vt 0.861357 0.097808
vt 0.861357 0.168231
vt 0.802856 0.168231
vt 0.802856 0.097808
vt 0.861357 0.238655
vt 0.861357 0.309078
vt 0.802856 0.309078
vt 0.802856 0.238655
vt 0.861357 0.169305
vt 0.802857 0.007262
vt 0.861357 0.007262
vt 0.861357 0.008319
vt 0.382610 0.736363
vt 0.382610 0.992717
vt 0.721765 0.721866
vt 0.721765 0.722942
vt 0.663256 0.721866
vt 0.721765 0.463357
vt 0.663256 0.463357
vt 0.721765 0.581019
vt 0.721765 0.651442
vt 0.663256 0.651442
vt 0.663256 0.581019
vt 0.721765 0.464445
vt 0.243978 0.992095
vt 0.182352 0.992095
vt 0.368375 0.992095
vt 0.645929 0.726195
vt 0.645928 0.849220
vt 0.587415 0.726195
vt 0.645929 0.539101
vt 0.645929 0.663497
vt 0.587416 0.663497
vt 0.645929 0.273104
vt 0.645929 0.725124
vt 0.373092 0.259387
vt 0.373092 0.308385
vt 0.372353 0.308385
vt 0.372353 0.307655
vt 0.372353 0.259387
vt 0.374653 0.225306
vt 0.374653 0.274304
vt 0.373905 0.274304
vt 0.373905 0.226048
vt 0.373905 0.225306
vt 0.308311 0.257006
vt 0.308311 0.305263
vt 0.306100 0.305263
vt 0.306100 0.257006
vt 0.157415 0.145593
vt 0.157415 0.166825
vt 0.151677 0.166825
vt 0.151677 0.145593
vt 0.136941 0.242859
vt 0.136941 0.248286
vt 0.115708 0.248286
vt 0.115708 0.242859
vt 0.179528 0.018270
vt 0.179528 0.032153
vt 0.177318 0.032153
vt 0.177318 0.018270
vt 0.150824 0.130980
vt 0.150824 0.109748
vt 0.157010 0.109748
vt 0.157010 0.130980
vt 0.164699 0.124187
vt 0.164699 0.121979
vt 0.163954 0.121979
vt 0.163954 0.124187
vt 0.088364 0.373205
vt 0.088364 0.373946
vt 0.160016 0.373946
vt 0.160016 0.373205
vt 0.044676 0.192871
vt 0.044676 0.116699
vt 0.045422 0.116699
vt 0.045422 0.192130
vt 0.045422 0.192871
vt 0.136941 0.011869
vt 0.136941 0.017503
vt 0.115708 0.017503
vt 0.115708 0.011869
vt 0.241528 0.249315
vt 0.241528 0.255311
vt 0.220295 0.255311
vt 0.220295 0.249315
vt 0.241528 0.033714
vt 0.220295 0.033714
vt 0.220295 0.028339
vt 0.241528 0.028339
vt 0.163138 0.124967
vt 0.163138 0.122751
vt 0.162403 0.122751
vt 0.162403 0.124967
vt 0.308311 0.208009
vt 0.306100 0.208009
vt 0.285803 0.308385
vt 0.285803 0.307655
vt 0.037478 0.201865
vt 0.035253 0.201865
vt 0.035253 0.244384
vt 0.037478 0.244384
vt 0.028009 0.365478
vt 0.070527 0.365478
vt 0.070527 0.367703
vt 0.028009 0.367703
vt 0.198261 0.082179
vt 0.198260 0.130431
vt 0.196044 0.130431
vt 0.196044 0.082179
vt 0.995039 0.627291
vt 0.936757 0.627291
vt 0.937858 0.566087
vt 0.995039 0.566087
vt 0.995039 0.584196
vt 0.995039 0.605744
vt 0.156114 0.137455
vt 0.156114 0.135239
vt 0.155378 0.135239
vt 0.155378 0.137455
vt 0.182001 0.197688
vt 0.182001 0.183806
vt 0.184212 0.183806
vt 0.184211 0.197688
vt 0.046625 0.130980
vt 0.046625 0.109748
vt 0.052828 0.109748
vt 0.052828 0.130980
vt 0.119525 0.365478
vt 0.161577 0.365478
vt 0.161577 0.367703
vt 0.119525 0.367703
vt 0.039819 0.349751
vt 0.033617 0.349751
vt 0.033617 0.331153
vt 0.039819 0.331153
vt 0.039819 0.347526
vt 0.040641 0.313335
vt 0.046844 0.313335
vt 0.046844 0.331933
vt 0.040641 0.331933
vt 0.128016 0.331933
vt 0.128016 0.350532
vt 0.122640 0.350532
vt 0.122640 0.348324
vt 0.122640 0.331933
vt 0.142153 0.334141
vt 0.142153 0.312909
vt 0.147528 0.312909
vt 0.147528 0.334141
vt 0.116396 0.349751
vt 0.116396 0.331153
vt 0.121771 0.331153
vt 0.121771 0.347543
vt 0.121771 0.349751
vt 0.116396 0.312555
vt 0.121771 0.312555
vt 0.128016 0.313335
vt 0.122640 0.313335
vt 0.339531 0.296677
vt 0.333535 0.296677
vt 0.333535 0.275445
vt 0.339531 0.275445
vt 0.068946 0.331933
vt 0.074942 0.331933
vt 0.074942 0.348321
vt 0.074942 0.350532
vt 0.068946 0.350532
vt 0.067917 0.331153
vt 0.061921 0.331153
vt 0.061921 0.312555
vt 0.067917 0.312555
vt 0.067917 0.349751
vt 0.061921 0.349751
vt 0.061921 0.347540
vt 0.068946 0.313335
vt 0.074942 0.313335
vt 0.076229 0.349751
vt 0.076229 0.347526
vt 0.076229 0.331153
vt 0.081966 0.331153
vt 0.081966 0.349751
vt 0.076229 0.312555
vt 0.081966 0.312555
vt 0.088991 0.331933
vt 0.088991 0.348307
vt 0.088991 0.350532
vt 0.083253 0.350532
vt 0.083253 0.331933
vt 0.340818 0.296677
vt 0.340818 0.275445
vt 0.346555 0.275445
vt 0.346555 0.296677
vt 0.088991 0.313335
vt 0.083253 0.313335
vt 0.033617 0.312555
vt 0.039819 0.312555
vt 0.046844 0.350532
vt 0.040641 0.350532
vt 0.040641 0.348307
vt 0.230261 0.331019
vt 0.224058 0.331019
vt 0.224058 0.309787
vt 0.230261 0.309787
vt 0.096015 0.331153
vt 0.090381 0.331153
vt 0.090381 0.312555
vt 0.096015 0.312555
vt 0.096015 0.349751
vt 0.090381 0.349751
vt 0.090381 0.347535
vt 0.097406 0.313335
vt 0.103040 0.313335
vt 0.103039 0.331933
vt 0.097406 0.331933
vt 0.135040 0.334141
vt 0.129406 0.334141
vt 0.129406 0.312909
vt 0.135040 0.312909
vt 0.103039 0.348315
vt 0.103039 0.350532
vt 0.097406 0.350532
vt 0.332506 0.296677
vt 0.326320 0.296677
vt 0.326320 0.275445
vt 0.332506 0.275445
vt 0.054707 0.313335
vt 0.060893 0.313335
vt 0.060893 0.331933
vt 0.054707 0.331933
vt 0.053868 0.349751
vt 0.047682 0.349751
vt 0.047682 0.347458
vt 0.047682 0.331153
vt 0.053868 0.331153
vt 0.047682 0.312555
vt 0.053868 0.312555
vt 0.060893 0.348238
vt 0.060893 0.350532
vt 0.054707 0.350532
vt 0.109283 0.331153
vt 0.109283 0.349751
vt 0.103856 0.349751
vt 0.103856 0.347468
vt 0.103856 0.331153
vt 0.109283 0.312555
vt 0.103856 0.312555
vt 0.110100 0.350532
vt 0.110100 0.331933
vt 0.115528 0.331933
vt 0.115528 0.348249
vt 0.115528 0.350532
vt 0.110100 0.313335
vt 0.115528 0.313335
vt 0.135857 0.334922
vt 0.135857 0.313689
vt 0.141284 0.313689
vt 0.141284 0.334922
vt 0.123506 0.307360
vt 0.123506 0.308103
vt 0.171761 0.308103
vt 0.172504 0.308103
vt 0.172504 0.307360
vt 0.177968 0.183802
vt 0.175674 0.183802
vt 0.175674 0.197685
vt 0.177968 0.197685
vt 0.181089 0.183807
vt 0.178796 0.183807
vt 0.178796 0.232062
vt 0.181089 0.232062
vt 0.376214 0.020067
vt 0.373921 0.020067
vt 0.373921 0.152285
vt 0.376214 0.152285
vt 0.371532 0.126969
vt 0.369238 0.126969
vt 0.369238 0.175228
vt 0.371532 0.175228
vt 0.178796 0.245945
vt 0.181089 0.245945
vt 0.109623 0.307360
vt 0.109623 0.308103
vt 0.074508 0.307360
vt 0.074508 0.308103
vt 0.088391 0.308103
vt 0.088391 0.307360
vt 0.025510 0.307360
vt 0.025510 0.308103
vt 0.026249 0.308103
vt 0.171762 0.440321
vt 0.171761 0.441070
vt 0.172504 0.441070
vt 0.123506 0.440321
vt 0.123506 0.441070
vt 0.074508 0.441070
vt 0.074509 0.440321
vt 0.026249 0.440321
vt 0.025511 0.440321
vt 0.025510 0.441070
vt 0.379336 0.020067
vt 0.377043 0.020067
vt 0.377043 0.152285
vt 0.379336 0.152285
vt 0.175674 0.245945
vt 0.177968 0.245945
vt 0.369238 0.224226
vt 0.371531 0.224226
vt 0.369238 0.272482
vt 0.371531 0.272482
vt 0.152211 0.174139
vt 0.152211 0.171845
vt 0.151468 0.171845
vt 0.151468 0.174139
vt 0.167821 0.121845
vt 0.167821 0.119552
vt 0.167078 0.119552
vt 0.167078 0.121845
vt 0.152211 0.134333
vt 0.152211 0.132050
vt 0.151473 0.132050
vt 0.151473 0.134333
vt 0.048405 0.133007
vt 0.048404 0.204673
vt 0.046122 0.204673
vt 0.046122 0.133007
vt 0.152211 0.139797
vt 0.152211 0.137514
vt 0.151473 0.137514
vt 0.151473 0.139797
vt 0.094454 0.020166
vt 0.092171 0.020166
vt 0.092171 0.091406
vt 0.094454 0.091406
vt 0.052355 0.092967
vt 0.052355 0.020560
vt 0.053088 0.020560
vt 0.053085 0.092226
vt 0.053085 0.092967
vt 0.061673 0.021727
vt 0.060932 0.021727
vt 0.060932 0.092967
vt 0.061673 0.092967
vt 0.426495 0.415313
vt 0.377498 0.415313
vt 0.377498 0.414572
vt 0.426495 0.414572
vt 0.465191 0.415313
vt 0.464448 0.414572
vt 0.465191 0.414572
vt 0.465191 0.342907
vt 0.464461 0.342907
vt 0.465191 0.299336
vt 0.464461 0.300074
vt 0.464461 0.299336
vt 0.095235 0.233457
vt 0.095235 0.232724
vt 0.094497 0.232724
vt 0.051664 0.232724
vt 0.051664 0.233457
vt 0.426495 0.299336
vt 0.426495 0.300074
vt 0.188937 0.126528
vt 0.189675 0.126528
vt 0.189675 0.112645
vt 0.188937 0.112645
vt 0.095235 0.161488
vt 0.094497 0.161488
vt 0.095235 0.147605
vt 0.094497 0.147605
vt 0.347336 0.309260
vt 0.345053 0.309260
vt 0.345053 0.352092
vt 0.347336 0.352092
vt 0.060112 0.021301
vt 0.060112 0.092967
vt 0.057829 0.092967
vt 0.057829 0.021301
vt 0.048404 0.247506
vt 0.046122 0.247506
vt 0.186611 0.032657
vt 0.188894 0.032657
vt 0.188894 0.018774
vt 0.186611 0.018774
vt 0.302906 0.301360
vt 0.305189 0.301360
vt 0.305189 0.287477
vt 0.302906 0.287477
vt 0.182650 0.067502
vt 0.182650 0.105455
vt 0.180368 0.105455
vt 0.180368 0.067502
vt 0.362165 0.309444
vt 0.362165 0.347410
vt 0.359882 0.347410
vt 0.359882 0.309444
vt 0.186611 0.103894
vt 0.188894 0.103894
vt 0.182650 0.018504
vt 0.180368 0.018504
vt 0.096060 0.250628
vt 0.033798 0.250628
vt 0.033798 0.249887
vt 0.096060 0.249887
vt 0.304408 0.126667
vt 0.303668 0.126667
vt 0.303668 0.174919
vt 0.304408 0.174919
vt 0.044676 0.067701
vt 0.045422 0.067701
vt 0.096796 0.174456
vt 0.096796 0.250628
vt 0.096060 0.174456
vt 0.032795 0.203191
vt 0.032795 0.252189
vt 0.032059 0.252189
vt 0.032059 0.203938
vt 0.032059 0.203191
vt 0.044676 0.018703
vt 0.093673 0.018703
vt 0.093673 0.019450
vt 0.045422 0.019450
vt 0.044676 0.019450
vt 0.192016 0.111865
vt 0.191281 0.111865
vt 0.191281 0.125748
vt 0.192016 0.125748
vt 0.206846 0.011961
vt 0.206111 0.011961
vt 0.206111 0.025844
vt 0.206846 0.025844
vt 0.174098 0.245945
vt 0.174846 0.245945
vt 0.174846 0.183682
vt 0.174098 0.183682
vt 0.184212 0.107182
vt 0.181995 0.107182
vt 0.181995 0.121065
vt 0.184212 0.121065
vt 0.025581 0.303046
vt 0.073831 0.303046
vt 0.073831 0.305263
vt 0.025581 0.305263
vt 0.234289 0.025844
vt 0.236505 0.025844
vt 0.236505 0.011961
vt 0.234289 0.011961
vt 0.122829 0.303046
vt 0.122829 0.305263
vt 0.097576 0.019096
vt 0.097576 0.094528
vt 0.095360 0.094528
vt 0.095360 0.019096
vt 0.173284 0.183682
vt 0.171068 0.183682
vt 0.171068 0.245945
vt 0.173284 0.245945
vt 0.201382 0.082179
vt 0.199166 0.082179
vt 0.199166 0.130431
vt 0.201382 0.130431
vt 0.170163 0.183682
vt 0.170162 0.245945
vt 0.167946 0.245945
vt 0.167946 0.183682
vt 0.198261 0.303046
vt 0.198261 0.305263
vt 0.040600 0.199255
vt 0.040600 0.247506
vt 0.038383 0.247506
vt 0.038383 0.199255
vt 0.190456 0.183819
vt 0.188231 0.183819
vt 0.188231 0.232062
vt 0.190456 0.232062
vt 0.193577 0.232062
vt 0.193577 0.245945
vt 0.191353 0.245945
vt 0.191353 0.232062
vt 0.346555 0.025996
vt 0.344331 0.025996
vt 0.344331 0.074235
vt 0.346555 0.074235
vt 0.275530 0.125133
vt 0.275530 0.139016
vt 0.273305 0.139016
vt 0.273305 0.125133
vt 0.188231 0.245945
vt 0.190456 0.245945
vt 0.051527 0.132158
vt 0.051527 0.146041
vt 0.050783 0.146041
vt 0.050783 0.132158
vt 0.168601 0.309505
vt 0.168601 0.323388
vt 0.167858 0.323388
vt 0.167858 0.309505
vt 0.025865 0.442024
vt 0.025865 0.442782
vt 0.067917 0.442782
vt 0.067917 0.442024
vt 0.044524 0.244384
vt 0.044524 0.195386
vt 0.045283 0.195386
vt 0.045283 0.244384
vt 0.151878 0.181503
vt 0.151878 0.182262
vt 0.194397 0.182262
vt 0.195139 0.182262
vt 0.195139 0.181503
vt 0.025122 0.491021
vt 0.025865 0.491021
vt 0.025122 0.442024
vt 0.168601 0.372386
vt 0.167858 0.372386
vt 0.167858 0.371631
vt 0.125806 0.372386
vt 0.125806 0.371631
vt 0.076808 0.372386
vt 0.033548 0.372386
vt 0.033548 0.371631
vt 0.034289 0.371631
vt 0.076808 0.371631
vt 0.194397 0.230501
vt 0.195139 0.230501
vt 0.201383 0.017572
vt 0.200641 0.017572
vt 0.200641 0.031455
vt 0.201383 0.031455
vt 0.200641 0.079698
vt 0.201383 0.079698
vt 0.194397 0.244384
vt 0.195138 0.244384
vt 0.156114 0.108577
vt 0.156114 0.106352
vt 0.155372 0.106352
vt 0.155372 0.108577
vt 0.100698 0.210917
vt 0.098473 0.210917
vt 0.098473 0.252969
vt 0.100698 0.252969
vt 0.030453 0.204752
vt 0.030453 0.253750
vt 0.028228 0.253750
vt 0.028228 0.204752
vt 0.155333 0.141358
vt 0.155333 0.139133
vt 0.154591 0.139133
vt 0.154591 0.141358
vt 0.152211 0.142919
vt 0.151467 0.142919
vt 0.151467 0.140694
vt 0.152211 0.140694
vt 0.155333 0.134333
vt 0.154589 0.134333
vt 0.154589 0.132108
vt 0.155333 0.132108
vt 0.193577 0.183819
vt 0.191353 0.183819
vt 0.346555 0.012113
vt 0.344331 0.012113
vt 0.043722 0.199267
vt 0.041497 0.199267
vt 0.041497 0.247506
vt 0.043722 0.247506
vt 0.027796 0.373205
vt 0.027796 0.373946
vt 0.385580 0.091716
vt 0.385580 0.152285
vt 0.383370 0.152285
vt 0.383370 0.091716
vt 0.374653 0.323302
vt 0.374653 0.404409
vt 0.373905 0.404409
vt 0.373905 0.323302
vt 0.374653 0.405167
vt 0.313336 0.405167
vt 0.313336 0.404409
vt 0.241684 0.405167
vt 0.241684 0.404409
vt 0.240945 0.323302
vt 0.240945 0.309419
vt 0.241684 0.309419
vt 0.241684 0.323302
vt 0.091332 0.034603
vt 0.091332 0.083601
vt 0.090593 0.083601
vt 0.090593 0.082859
vt 0.090593 0.034603
vt 0.091332 0.020720
vt 0.090593 0.020720
vt 0.240945 0.405167
vt 0.182001 0.245945
vt 0.184212 0.245945
vt 0.385580 0.020064
vt 0.383370 0.020064
vt 0.382458 0.091716
vt 0.380248 0.091716
vt 0.380248 0.152285
vt 0.382458 0.152285
vt 0.382458 0.020064
vt 0.380248 0.020064
vt 0.163138 0.128870
vt 0.162399 0.128870
vt 0.162399 0.126659
vt 0.163138 0.126659
vt 0.179528 0.113260
vt 0.177318 0.113260
vt 0.308311 0.126902
vt 0.306100 0.126902
vt 0.165479 0.121065
vt 0.164740 0.121065
vt 0.164740 0.118854
vt 0.165479 0.118854
vt 0.373092 0.124793
vt 0.373092 0.210389
vt 0.372353 0.210389
vt 0.372353 0.125519
vt 0.372353 0.124793
vt 0.344214 0.309996
vt 0.342006 0.309996
vt 0.342006 0.352873
vt 0.344214 0.352873
vt 0.242884 0.357690
vt 0.285762 0.357690
vt 0.285762 0.359898
vt 0.242884 0.359898
vt 0.173285 0.032293
vt 0.171077 0.032293
vt 0.171077 0.117162
vt 0.173285 0.117162
vt 0.285803 0.124793
vt 0.285803 0.125519
vt 0.242181 0.308385
vt 0.242181 0.259387
vt 0.242926 0.259387
vt 0.242926 0.307655
vt 0.242926 0.308385
vt 0.049271 0.231896
vt 0.050016 0.231896
vt 0.050016 0.231169
vt 0.050016 0.146299
vt 0.049271 0.146299
vt 0.050016 0.132417
vt 0.049271 0.132417
vt 0.096050 0.160870
vt 0.096796 0.160870
vt 0.096796 0.146987
vt 0.096050 0.146987
vt 0.092893 0.231896
vt 0.092893 0.231169
vt 0.165479 0.128089
vt 0.165479 0.125881
vt 0.164734 0.125881
vt 0.164734 0.128089
vt 0.185772 0.018904
vt 0.185772 0.105455
vt 0.183565 0.105455
vt 0.183565 0.018904
vt 0.189809 0.110918
vt 0.192017 0.110918
vt 0.192017 0.097035
vt 0.189809 0.097035
vt 0.036697 0.018540
vt 0.036697 0.066808
vt 0.034489 0.066808
vt 0.034489 0.018540
vt 0.173285 0.018410
vt 0.171077 0.018410
vt 0.372312 0.357690
vt 0.372312 0.359897
vt 0.195138 0.082163
vt 0.195138 0.130431
vt 0.192931 0.130431
vt 0.192931 0.082163
vt 0.036697 0.115806
vt 0.036697 0.200676
vt 0.034489 0.200676
vt 0.034489 0.115806
vt 0.157415 0.180708
vt 0.157415 0.131710
vt 0.206413 0.131710
vt 0.206413 0.180708
vt 0.255411 0.229706
vt 0.206413 0.229706
vt 0.255411 0.180708
vt 0.255411 0.131710
vt 0.206413 0.082712
vt 0.255411 0.082712
vt 0.309147 0.563138
vt 0.369587 0.563138
vt 0.369587 0.583092
vt 0.370655 0.583092
vt 0.370655 0.613609
vt 0.369587 0.613609
vt 0.369587 0.633562
vt 0.309147 0.633562
vt 0.238723 0.563138
vt 0.177612 0.563138
vt 0.177612 0.493805
vt 0.238723 0.493805
vt 0.238723 0.633562
vt 0.309147 0.702901
vt 0.238723 0.702901
vt 0.150824 0.193861
vt 0.150824 0.242859
vt 0.101826 0.242859
vt 0.101826 0.193861
vt 0.309147 0.493805
vt 0.369587 0.493805
vt 0.255411 0.249315
vt 0.206413 0.249315
vt 0.101826 0.046867
vt 0.150824 0.046867
vt 0.150824 0.095865
vt 0.101826 0.095865
vt 0.101826 0.144863
vt 0.150824 0.144863
vt 0.177612 0.633562
vt 0.177612 0.613608
vt 0.176546 0.613609
vt 0.176546 0.583092
vt 0.177612 0.583092
vt 0.045196 0.299019
vt 0.025587 0.299019
vt 0.025587 0.284712
vt 0.025587 0.270406
vt 0.025587 0.256100
vt 0.045196 0.256100
vt 0.094194 0.256100
vt 0.094194 0.299019
vt 0.419150 0.189922
vt 0.419150 0.160558
vt 0.433457 0.160558
vt 0.447763 0.160558
vt 0.462069 0.160558
vt 0.462069 0.189922
vt 0.143192 0.256100
vt 0.143192 0.299019
vt 0.462069 0.238920
vt 0.419150 0.238920
vt 0.192190 0.256100
vt 0.192190 0.299019
vt 0.241188 0.256100
vt 0.241188 0.299019
vt 0.343433 0.012142
vt 0.343433 0.061140
vt 0.300514 0.061140
vt 0.300514 0.012142
vt 0.343433 0.110138
vt 0.329127 0.110138
vt 0.314821 0.110138
vt 0.300514 0.110138
vt 0.369587 0.702901
vt 0.471435 0.139700
vt 0.471435 0.159309
vt 0.457129 0.159309
vt 0.442823 0.159309
vt 0.428516 0.159309
vt 0.428516 0.139700
vt 0.733421 0.140578
vt 0.791910 0.140578
vt 0.791910 0.201018
vt 0.791910 0.202087
vt 0.733421 0.202087
vt 0.243538 0.305263
vt 0.243538 0.256265
vt 0.257844 0.256265
vt 0.272151 0.256265
vt 0.286457 0.256265
vt 0.286457 0.305263
vt 0.428516 0.090702
vt 0.471435 0.090702
vt 0.408995 0.417048
vt 0.408995 0.466046
vt 0.394689 0.466046
vt 0.380383 0.466046
vt 0.366076 0.466046
vt 0.366076 0.417048
vt 0.299725 0.207995
vt 0.299725 0.237359
vt 0.285419 0.237359
vt 0.271113 0.237359
vt 0.256806 0.237359
vt 0.256806 0.207995
vt 0.341092 0.309174
vt 0.341092 0.352092
vt 0.292094 0.352093
vt 0.292094 0.309174
vt 0.243096 0.352093
vt 0.243096 0.309174
vt 0.256806 0.012004
vt 0.271113 0.012004
vt 0.285419 0.012004
vt 0.299725 0.012004
vt 0.299725 0.061001
vt 0.256806 0.061001
vt 0.157675 0.374901
vt 0.157675 0.423899
vt 0.143368 0.423899
vt 0.129062 0.423899
vt 0.114756 0.423899
vt 0.114756 0.374901
vt 0.173293 0.462923
vt 0.173293 0.413926
vt 0.187599 0.413926
vt 0.201906 0.413926
vt 0.216212 0.413926
vt 0.216212 0.462923
vt 0.177612 0.702901
vt 0.733421 0.070154
vt 0.733421 0.007977
vt 0.791910 0.007977
vt 0.791910 0.070154
vt 0.256806 0.158997
vt 0.271113 0.158997
vt 0.285419 0.158997
vt 0.299725 0.158997
vt 0.262529 0.145115
vt 0.281127 0.145115
vt 0.733421 0.748314
vt 0.753983 0.748314
vt 0.774545 0.748314
vt 0.791910 0.748314
vt 0.791910 0.817653
vt 0.791910 0.818738
vt 0.733421 0.818738
vt 0.791910 0.607467
vt 0.791910 0.608558
vt 0.791910 0.677890
vt 0.774545 0.677890
vt 0.753983 0.677890
vt 0.733421 0.677890
vt 0.733421 0.607467
vt 0.206413 0.033714
vt 0.255411 0.033714
vt 0.256806 0.142665
vt 0.217001 0.446591
vt 0.222724 0.449041
vt 0.231307 0.462923
vt 0.217001 0.462923
vt 0.768377 0.728361
vt 0.791910 0.728361
vt 0.261489 0.446591
vt 0.267212 0.449041
vt 0.275796 0.462923
vt 0.261489 0.462923
vt 0.285810 0.449041
vt 0.290102 0.462923
vt 0.299725 0.145115
vt 0.281127 0.123882
vt 0.285419 0.109999
vt 0.299725 0.109999
vt 0.299725 0.123882
vt 0.256806 0.126332
vt 0.262529 0.123882
vt 0.256806 0.109999
vt 0.271113 0.109999
vt 0.791910 0.697844
vt 0.768377 0.697844
vt 0.741646 0.697844
vt 0.733421 0.701365
vt 0.741646 0.728361
vt 0.733421 0.724840
vt 0.076770 0.388783
vt 0.085354 0.374901
vt 0.099660 0.374901
vt 0.095368 0.388783
vt 0.071048 0.391233
vt 0.071048 0.374901
vt 0.071048 0.407566
vt 0.076770 0.410016
vt 0.085354 0.423899
vt 0.095368 0.410016
vt 0.099660 0.423899
vt 0.071048 0.423899
vt 0.113966 0.410016
vt 0.113966 0.423899
vt 0.113967 0.374901
vt 0.113966 0.388783
vt 0.261489 0.430258
vt 0.267212 0.427808
vt 0.275796 0.413926
vt 0.290102 0.413926
vt 0.285810 0.427808
vt 0.261489 0.413926
vt 0.304408 0.413926
vt 0.304408 0.427808
vt 0.304408 0.449041
vt 0.304408 0.462923
vt 0.241322 0.449041
vt 0.245614 0.462923
vt 0.217001 0.430258
vt 0.222724 0.427808
vt 0.231307 0.413926
vt 0.245614 0.413926
vt 0.241322 0.427808
vt 0.217001 0.413926
vt 0.259920 0.413926
vt 0.259920 0.427808
vt 0.259920 0.449041
vt 0.259920 0.462923
vt 0.027339 0.391233
vt 0.027339 0.374901
vt 0.041646 0.374901
vt 0.033062 0.388783
vt 0.055952 0.374901
vt 0.051660 0.388783
vt 0.027339 0.407566
vt 0.033062 0.410016
vt 0.041646 0.423899
vt 0.051660 0.410016
vt 0.055952 0.423899
vt 0.027339 0.423899
vt 0.070258 0.410016
vt 0.070258 0.423899
vt 0.070258 0.374901
vt 0.070258 0.388783
vt 0.399763 0.289053
vt 0.404055 0.275170
vt 0.418361 0.275170
vt 0.418361 0.289053
vt 0.404055 0.324168
vt 0.399763 0.310285
vt 0.418361 0.310285
vt 0.418361 0.324168
vt 0.375442 0.324168
vt 0.375442 0.307835
vt 0.381165 0.310285
vt 0.389749 0.324168
vt 0.375442 0.291503
vt 0.381165 0.289053
vt 0.375442 0.275170
vt 0.389749 0.275170
vt 0.349811 0.211162
vt 0.368409 0.211162
vt 0.368409 0.225045
vt 0.354103 0.225045
vt 0.354103 0.176047
vt 0.368409 0.176047
vt 0.368409 0.189929
vt 0.349811 0.189929
vt 0.325490 0.176047
vt 0.339797 0.176047
vt 0.331213 0.189929
vt 0.325490 0.192379
vt 0.331213 0.211162
vt 0.325490 0.208712
vt 0.339797 0.225045
vt 0.325490 0.225045
vt 0.753983 0.272510
vt 0.741646 0.292464
vt 0.733421 0.295985
vt 0.733421 0.272510
vt 0.733421 0.319459
vt 0.741646 0.322980
vt 0.753983 0.342934
vt 0.733421 0.342934
vt 0.774545 0.342934
vt 0.768377 0.322980
vt 0.774545 0.272510
vt 0.768377 0.292464
vt 0.791910 0.272510
vt 0.791910 0.292464
vt 0.791910 0.322980
vt 0.791910 0.342934
vt 0.052828 0.144863
vt 0.052828 0.095865
vt 0.101826 0.017503
vt 0.150824 0.017503
vt 0.791910 0.413357
vt 0.733421 0.413357
vt 0.791910 0.474866
vt 0.791910 0.545290
vt 0.733421 0.545290
vt 0.733421 0.474866
vt 0.791910 0.473797
s 1
usemtl Material.001
f 40/1/1 332/2/1 331/3/1 328/4/1
f 8/5/1 16/6/1 503/7/1 502/8/1
f 16/6/1 509/9/1 508/10/1 503/7/1
f 32/11/1 40/1/1 328/4/1 329/12/1
f 123/13/2 46/14/2 492/15/2 493/16/2 481/17/2
f 1/18/1 473/19/1 462/20/1 464/21/1
f 467/22/1 466/23/1 9/24/1 1/18/1
f 40/1/1 335/25/1 338/26/1 332/2/1
f 373/27/1 372/28/1 376/29/1 33/30/1
f 55/31/3 100/32/3 309/33/3 317/34/3 321/35/3
f 60/36/3 43/37/3 513/38/3 514/39/3 515/40/3 512/41/3
f 9/24/1 469/42/1 468/43/1 472/44/1
f 506/45/1 501/46/1 509/9/1 16/6/1
f 25/47/1 377/48/1 378/49/1 380/50/1
f 73/51/4 124/52/4 482/53/4 497/54/4 477/55/4
f 81/56/2 397/57/2 401/58/2 394/59/2 106/60/2
f 54/61/4 55/31/4 321/35/4 320/62/4 302/63/4 303/64/4 312/65/4
f 100/66/2 99/67/2 271/68/2 270/69/2 308/70/2 309/71/2
f 97/72/2 306/73/2 307/74/2 274/75/2 275/76/2 98/77/2
f 1/18/1 9/24/1 472/44/1 471/78/1 223/79/1 233/80/1 470/81/1 473/19/1
f 107/82/3 108/83/3 269/84/3 268/85/3 396/86/3 395/87/3
f 112/88/4 56/89/4 44/90/4 340/91/4 354/92/4 348/93/4 349/94/4
f 8/5/1 507/95/1 504/96/1 221/97/1 219/98/1 505/99/1 506/45/1 16/6/1
f 45/100/2 119/101/2 525/102/2 518/103/2 521/104/2
f 215/105/5 524/106/5 525/102/5 119/101/5 118/107/5 213/108/5
f 110/109/5 282/110/5 284/111/5 346/112/5 361/113/5 345/114/5 111/115/5
f 218/116/5 121/117/5 216/118/5 210/119/5
f 210/119/5 216/118/5 217/120/5 211/121/5
f 220/122/5 218/116/5 210/119/5 212/123/5
f 213/124/5 212/123/5 214/125/5 215/126/5
f 118/127/5 220/122/5 212/123/5 213/124/5
f 215/126/5 214/125/5 535/128/5 524/129/5
f 217/120/5 527/130/5 534/131/5 211/121/5
f 227/132/3 225/133/3 224/134/3 226/135/3
f 231/136/3 227/132/3 226/135/3 125/137/3
f 232/138/3 228/139/3 227/132/3 231/136/3
f 230/140/3 222/141/3 229/142/3 228/139/3
f 122/143/3 230/140/3 228/139/3 232/138/3
f 222/141/3 480/144/3 490/145/3 229/142/3
f 225/133/3 489/146/3 483/147/3 224/134/3
f 254/148/3 252/149/3 269/84/3 108/83/3
f 252/149/3 248/150/3 268/85/3 269/84/3
f 264/151/3 263/152/3 252/149/3 254/148/3
f 266/153/3 267/154/3 262/155/3 263/152/3
f 105/156/3 266/153/3 263/152/3 264/151/3
f 267/154/3 393/157/3 399/158/3 262/155/3
f 248/150/3 398/159/3 396/86/3 268/85/3
f 275/76/2 274/75/2 277/160/2 278/161/2
f 98/77/2 275/76/2 278/161/2 272/162/2
f 274/75/2 307/74/2 311/163/2 277/160/2
f 279/164/2 310/165/2 308/70/2 270/69/2
f 272/162/2 278/161/2 281/166/2 273/167/2
f 273/167/2 281/166/2 271/68/2 99/67/2
f 281/166/2 279/164/2 270/69/2 271/68/2
f 291/168/5 113/169/5 293/170/5 286/171/5
f 286/171/5 293/170/5 292/172/5 287/173/5
f 289/174/5 291/168/5 286/171/5 283/175/5
f 282/110/5 283/175/5 285/176/5 284/111/5
f 110/109/5 289/174/5 283/175/5 282/110/5
f 284/111/5 285/176/5 347/177/5 346/112/5
f 287/173/5 292/172/5 359/178/5 358/179/5
f 25/47/1 33/30/1 376/29/1 375/180/1 246/181/1 265/182/1 374/183/1 377/48/1
f 124/52/3 125/137/3 226/135/3 224/134/3 483/147/3 482/53/3
f 123/184/3 481/185/3 480/144/3 222/141/3 230/140/3 122/143/3
f 97/72/5 54/61/5 312/65/5 326/186/5 318/187/5 306/73/5
f 294/188/1 305/189/1 304/190/1 299/191/1
f 276/192/1 296/193/1 294/188/1 299/191/1 300/194/1 295/195/1 297/196/1 280/197/1
f 300/194/1 301/198/1 298/199/1 295/195/1
f 329/12/1 330/200/1 333/201/1 32/11/1
f 333/201/1 339/202/1 334/203/1 32/11/1
f 334/203/1 336/204/1 288/205/1 290/206/1 337/207/1 335/25/1 40/1/1 32/11/1
f 341/208/3 340/209/3 44/94/3 57/210/3
f 342/211/3 341/208/3 57/210/3 58/212/3
f 343/213/2 344/214/2 59/215/2 84/216/2
f 345/217/2 343/213/2 84/216/2 111/218/2
f 344/214/3 350/219/3 342/211/3 58/212/3 59/215/3
f 370/220/1 369/221/1 373/27/1 33/30/1
f 371/222/1 370/220/1 33/30/1 25/47/1
f 380/50/1 379/223/1 371/222/1 25/47/1
f 388/224/2 397/57/2 81/56/2 50/225/2 368/226/2
f 394/59/3 393/157/3 267/154/3 266/153/3 105/156/3 106/60/3
f 386/227/4 385/228/4 42/229/4 53/230/4
f 384/231/5 383/232/5 51/233/5 52/234/5
f 383/232/5 368/226/5 50/225/5 51/233/5
f 384/231/5 52/234/5 42/229/5 385/228/5 387/235/5
f 53/230/4 107/236/4 395/237/4 404/238/4 386/227/4
f 466/23/1 465/239/1 469/42/1 9/24/1
f 464/21/1 463/240/1 467/22/1 1/18/1
f 460/241/2 479/242/2 492/15/2 46/14/2 41/243/2
f 477/55/4 476/244/4 49/245/4 73/51/4
f 474/246/5 475/247/5 47/248/5 48/249/5
f 475/247/5 460/241/5 41/243/5 47/248/5
f 48/249/5 49/245/5 476/244/5 461/250/5 474/246/5
f 511/251/1 500/252/1 507/95/1 8/5/1
f 510/253/1 511/251/1 8/5/1 502/8/1
f 526/254/5 527/255/5 121/117/5 120/256/5
f 512/41/4 530/257/4 536/258/4 76/259/4 60/36/4
f 521/104/2 517/260/2 513/38/2 43/37/2 45/100/2
f 536/258/4 532/261/4 526/254/4 120/256/4 76/259/4
f 113/337/5 112/338/5 349/91/5 357/339/5 359/340/5 292/341/5 293/342/5
usemtl Baseboards
f 514/262/1 513/263/1 517/264/1 516/265/1 522/266/1
f 460/267/1 475/268/1 486/269/1 485/270/1 479/271/1
f 467/272/5 463/273/5 485/274/5 486/275/5
f 244/276/1 240/277/1 152/278/1 153/279/1
f 194/280/1 290/281/1 288/282/1 195/283/1
f 471/284/3 472/285/3 496/286/3 498/287/3
f 141/288/1 140/289/1 276/290/1 280/291/1
f 219/292/4 534/293/4 538/294/4 505/295/4
f 492/296/1 494/297/1 488/298/1 493/299/1
f 368/300/1 383/301/1 389/302/1 390/303/1 388/304/1
f 246/305/1 206/306/1 207/307/1 265/308/1
f 171/309/1 233/310/1 223/311/1 170/312/1
f 183/313/1 182/314/1 219/315/1 221/316/1
f 265/317/2 399/318/2 407/319/2 374/320/2
f 466/321/5 467/272/5 486/275/5 484/322/5
f 517/264/1 521/323/1 520/324/1 516/265/1
f 422/325/5 458/326/5 445/327/5 410/328/5
f 423/329/3 415/330/3 451/331/3 459/332/3
f 373/333/4 369/334/4 391/335/4 392/336/4
f 375/343/4 406/344/4 398/345/4 246/346/4
f 473/347/3 470/348/3 499/349/3 487/350/3
f 129/351/1 128/352/1 255/353/1 247/354/1
f 416/355/3 417/356/3 452/357/3 450/358/3
f 129/359/3 247/360/3 260/361/3 137/362/3 432/363/3
f 134/364/5 259/365/5 258/366/5 135/367/5
f 176/368/2 183/369/2 221/370/2 535/371/2 214/372/2
f 175/373/6 177/374/6 212/375/6 210/376/6
f 182/377/4 174/378/4 211/379/4 534/380/4 219/381/4
f 174/378/4 175/382/4 210/383/4 211/379/4
f 177/384/2 176/368/2 214/372/2 212/385/2
f 163/386/6 227/387/6 228/388/6 165/389/6
f 164/390/2 229/391/2 490/392/2 233/393/2 171/394/2
f 162/395/4 225/396/4 227/397/4 163/398/4
f 170/399/4 223/400/4 489/401/4 225/396/4 162/395/4
f 165/402/2 228/403/2 229/391/2 164/390/2
f 153/404/3 438/405/3 161/406/3 243/407/3 244/408/3
f 161/406/3 160/409/3 245/410/3 243/407/3
f 159/411/5 437/412/5 152/413/5 240/414/5 241/415/5
f 160/416/6 158/417/6 242/418/6 245/419/6
f 158/420/5 159/411/5 241/415/5 242/421/5
f 137/362/3 260/361/3 261/422/3 136/423/3
f 135/367/5 258/366/5 255/424/5 128/425/5 435/426/5
f 136/427/6 261/428/6 259/429/6 134/430/6
f 198/431/4 248/432/4 252/433/4 199/434/4
f 206/435/4 246/436/4 398/437/4 248/432/4 198/431/4
f 201/438/2 263/439/2 262/440/2 200/441/2
f 199/442/6 252/443/6 263/444/6 201/445/6
f 200/441/2 262/440/2 399/446/2 265/447/2 207/448/2
f 148/449/6 281/450/6 278/451/6 146/452/6
f 146/453/5 278/454/5 277/455/5 147/456/5
f 141/457/3 280/458/3 310/459/3 279/460/3 149/461/3
f 149/461/3 279/460/3 281/462/3 148/463/3
f 147/456/5 277/455/5 311/464/5 276/465/5 140/466/5
f 188/467/2 195/468/2 288/469/2 347/470/2 285/471/2
f 189/472/2 188/467/2 285/471/2 283/473/2
f 194/474/4 186/475/4 287/476/4 358/477/4 290/478/4
f 186/475/4 187/479/4 286/480/4 287/476/4
f 187/481/6 189/482/6 283/483/6 286/484/6
f 308/485/1 314/486/1 319/487/1 317/488/1 309/489/1
f 296/490/2 316/491/2 315/492/2 294/493/2
f 298/494/2 319/495/2 314/496/2 295/497/2
f 305/498/5 327/499/5 323/500/5 304/501/5
f 304/502/4 323/503/4 322/504/4 299/505/4
f 295/497/2 314/496/2 313/506/2 297/507/2
f 310/508/1 313/509/1 314/486/1 308/485/1
f 307/510/1 315/511/1 316/512/1 311/513/1
f 306/514/1 318/515/1 327/516/1 315/511/1 307/510/1
f 317/488/1 319/487/1 325/517/1 320/518/1 321/519/1
f 320/518/1 325/517/1 324/520/1 302/521/1
f 303/522/1 322/523/1 323/524/1 326/525/1 312/526/1
f 302/521/1 324/520/1 322/523/1 303/522/1
f 326/525/1 323/524/1 327/516/1 318/515/1
f 301/527/3 325/528/3 319/529/3 298/530/3
f 294/493/2 315/492/2 327/531/2 305/532/2
f 299/505/4 322/504/4 324/533/4 300/534/4
f 300/534/4 324/533/4 325/535/4 301/536/4
f 276/537/5 311/538/5 316/539/5 296/540/5
f 297/541/3 313/542/3 310/543/3 280/544/3
f 336/545/2 363/546/2 347/547/2 288/548/2
f 331/549/7 332/550/8 356/551/8 355/552/7
f 290/553/4 358/554/4 364/555/4 337/556/4
f 329/557/3 352/558/3 353/559/3 330/560/3
f 344/561/1 343/562/1 360/563/1 353/564/1 350/565/1
f 350/566/1 353/567/1 352/568/1 342/569/1
f 341/570/1 342/571/1 352/572/1 351/573/1
f 340/574/1 341/570/1 351/573/1 355/575/1 354/576/1
f 348/577/1 354/576/1 355/575/1 356/578/1
f 349/579/1 348/577/1 356/578/1 366/580/1 357/581/1
f 345/582/1 361/583/1 367/584/1 360/585/1 343/586/1
f 359/587/1 357/581/1 366/580/1 365/588/1
f 359/589/1 365/590/1 364/591/1 358/592/1
f 346/593/1 362/594/1 367/584/1 361/583/1
f 347/595/1 363/596/1 362/594/1 346/593/1
f 333/597/2 360/598/2 367/599/2 339/600/2
f 333/601/2 330/602/2 353/603/2 360/604/2
f 332/550/8 338/605/4 366/606/4 356/551/8
f 334/607/5 362/608/5 363/609/5 336/610/5
f 337/611/5 364/612/5 365/613/5 335/614/5
f 328/615/3 331/616/3 355/617/3 351/618/3
f 338/619/5 335/620/5 365/621/5 366/622/5
f 339/623/5 367/624/5 362/608/5 334/607/5
f 329/625/3 328/615/3 351/618/3 352/626/3
f 401/627/1 397/628/1 400/629/1 381/630/1
f 388/631/1 390/632/1 400/633/1 397/634/1
f 383/301/1 384/635/1 405/636/1 389/302/1
f 393/637/1 394/638/1 401/627/1 381/630/1 382/639/1
f 395/640/1 396/641/1 403/642/1 402/643/1 404/644/1
f 385/645/1 386/646/1 392/647/1 391/648/1 387/649/1
f 398/650/1 406/651/1 403/652/1 396/653/1
f 393/654/1 382/655/1 407/656/1 399/657/1
f 384/635/1 387/649/1 391/648/1 405/636/1
f 404/658/1 402/659/1 392/660/1 386/661/1
f 374/662/3 407/663/3 382/664/3 377/665/3
f 369/666/5 370/667/5 405/668/5 391/669/5
f 376/670/3 403/671/3 406/672/3 375/673/3
f 370/667/5 371/674/5 389/675/5 405/668/5
f 378/676/3 377/677/3 382/678/3 381/679/3
f 373/680/4 392/681/4 402/682/4 372/683/4
f 380/684/2 400/685/2 390/686/2 379/687/2
f 380/688/2 378/689/2 381/690/2 400/691/2
f 371/674/5 379/692/5 390/693/5 389/675/5
f 376/694/3 372/695/3 402/696/3 403/697/3
f 423/698/2 459/699/2 457/700/2 419/701/2
f 413/702/4 411/703/4 447/704/4 449/705/4
f 415/330/3 416/355/3 450/358/3 451/331/3
f 418/706/2 454/707/2 458/708/2 422/709/2
f 412/710/4 414/711/4 441/712/4 448/713/4
f 419/701/2 457/700/2 456/714/2 421/715/2
f 431/716/1 435/717/1 448/718/1 441/719/1
f 432/720/1 433/721/1 449/722/1 447/723/1
f 444/724/1 440/725/1 446/726/1 425/727/1
f 427/728/1 425/729/1 446/730/1 445/731/1
f 427/732/1 445/733/1 458/734/1 442/735/1 426/736/1
f 431/737/1 441/738/1 440/725/1 444/724/1 430/739/1
f 433/721/1 434/740/1 443/741/1 452/742/1 449/722/1
f 443/741/1 424/743/1 450/744/1 452/742/1
f 428/745/1 429/746/1 453/747/1 459/748/1 451/749/1
f 424/743/1 428/745/1 451/749/1 450/744/1
f 442/735/1 458/734/1 454/750/1 436/751/1
f 438/752/1 456/753/1 457/754/1 439/755/1
f 439/755/1 457/754/1 459/756/1 453/757/1
f 436/751/1 454/750/1 455/758/1 437/759/1
f 421/760/3 456/761/3 438/762/3 153/763/3
f 409/764/5 446/765/5 440/766/5 408/767/5
f 409/768/5 410/769/5 445/770/5 446/771/5
f 152/772/5 437/773/5 455/774/5 420/775/5
f 411/776/3 129/777/3 432/778/3 447/779/3
f 128/780/5 412/781/5 448/782/5 435/783/5
f 417/784/4 413/702/4 449/705/4 452/785/4
f 420/786/2 455/787/2 454/707/2 418/706/2
f 408/788/4 440/789/4 441/790/4 414/791/4
f 479/792/1 485/793/1 494/297/1 492/296/1
f 469/794/4 465/795/4 478/796/4 491/797/4
f 474/798/1 461/799/1 478/800/1 484/801/1
f 476/802/1 477/803/1 491/804/1 478/800/1 461/799/1
f 477/803/1 497/805/1 495/806/1 491/804/1
f 475/268/1 474/798/1 484/801/1 486/269/1
f 483/807/1 489/808/1 498/809/1 496/810/1
f 480/811/1 481/812/1 493/813/1 488/814/1 487/815/1
f 490/816/1 480/811/1 487/815/1 499/817/1
f 482/818/1 483/807/1 496/810/1 495/806/1 497/805/1
f 462/819/3 473/347/3 487/350/3 488/820/3
f 468/821/4 469/794/4 491/797/4 495/822/4
f 464/823/2 494/824/2 485/825/2 463/826/2
f 462/827/2 488/828/2 494/824/2 464/823/2
f 223/829/4 471/830/4 498/831/4 489/832/4
f 472/285/3 468/833/3 495/834/3 496/286/3
f 465/835/5 466/321/5 484/322/5 478/836/5
f 470/837/2 233/838/2 490/839/2 499/840/2
f 512/841/1 515/842/1 533/843/1 531/844/1 530/845/1
f 501/846/4 528/847/4 537/848/4 509/849/4
f 500/850/2 511/851/2 520/852/2 519/853/2
f 506/854/5 529/855/5 528/856/5 501/857/5
f 515/842/1 514/262/1 522/266/1 533/843/1
f 536/858/1 530/845/1 531/844/1 537/859/1
f 525/860/1 524/861/1 523/862/1 519/863/1 518/864/1
f 526/865/1 532/866/1 528/867/1 529/868/1 527/869/1
f 527/869/1 529/868/1 538/870/1 534/871/1
f 535/872/1 539/873/1 523/874/1 524/875/1
f 536/876/1 537/877/1 528/867/1 532/866/1
f 521/323/1 518/864/1 519/863/1 520/324/1
f 504/878/2 539/879/2 535/880/2 221/881/2
f 508/882/4 509/883/4 537/884/4 531/885/4
f 507/886/5 523/887/5 539/888/5 504/889/5
f 510/890/3 502/891/3 522/892/3 516/893/3
f 505/894/5 538/895/5 529/855/5 506/854/5
f 511/851/2 510/896/2 516/897/2 520/852/2
f 507/898/5 500/899/5 519/900/5 523/901/5
f 503/902/3 508/903/3 531/904/3 533/905/3
f 502/891/3 503/902/3 533/905/3 522/892/3
usemtl Walls
f 62/950/2 61/951/2 166/952/2 167/953/2 2/954/2 3/955/2
f 3/955/2 4/956/2 63/957/2 62/950/2
f 86/958/2 85/959/2 202/960/2 203/961/2 26/962/2 27/963/2
f 4/956/2 5/964/2 64/965/2 63/957/2
f 27/963/2 28/966/2 87/967/2 86/958/2
f 5/964/2 6/968/2 65/969/2 64/965/2
f 6/968/2 7/970/2 66/971/2 65/969/2
f 29/972/2 30/973/2 89/974/2 88/975/2
f 30/973/2 31/976/2 191/977/2 190/978/2 90/979/2 89/974/2
f 11/981/4 10/982/4 168/983/4 169/984/4 67/985/4 68/986/4
f 80/987/3 424/988/3 443/989/3 434/990/3 104/991/3
f 69/992/5 74/993/5 239/994/5 238/995/5 17/996/5 12/997/5
f 11/981/4 68/986/4 69/998/4 12/999/4
f 13/1000/3 18/1001/3 235/1002/3 234/1003/3 75/1004/3 70/1005/3
f 35/1006/4 34/1007/4 204/1008/4 205/1009/4 91/1010/4 92/1011/4
f 13/1012/4 70/1013/4 71/1014/4 14/1015/4
f 14/1015/4 71/1014/4 72/1016/4 15/1017/4
f 96/1018/4 193/1019/4 192/1020/4 109/1021/4 38/1022/4 95/1023/4
f 28/1024/5 23/1025/5 257/1026/5 251/1027/5 82/1028/5 87/1029/5
f 88/1030/3 83/1031/3 256/1032/3 250/1033/3 24/1034/3 29/1035/3
f 78/1037/3 117/1038/3 429/1039/3 428/1040/3
f 35/1006/4 92/1011/4 93/1041/4 145/1042/4 144/1043/4 36/1044/4
f 145/1042/4 146/1045/4 147/1046/4 144/1043/4
f 116/1047/2 154/1048/2 155/1049/2 439/1050/2 453/1051/2 429/1052/2 117/1053/2
f 426/1054/2 442/1055/2 436/1056/2 156/1057/2 157/1058/2 115/1059/2 114/1060/2
f 93/1041/4 139/1063/4 146/1045/4 145/1042/4
f 197/1064/3 187/1065/3 193/1066/3 96/1067/3
f 439/1050/2 155/1049/2 161/1068/2 438/1069/2
f 185/1070/3 175/1071/3 181/1072/3 72/1073/3
f 175/1071/3 174/1074/3 180/1075/3 181/1072/3
f 144/1043/4 147/1046/4 140/1076/4 36/1044/4
f 149/1077/4 143/1078/4 37/1079/4 141/1080/4
f 139/1063/4 138/1081/4 148/1082/4 146/1045/4
f 138/1081/4 94/1083/4 142/1084/4 148/1082/4
f 148/1082/4 142/1084/4 143/1078/4 149/1077/4
f 156/1057/2 436/1056/2 437/1085/2 159/1086/2
f 115/1059/2 157/1058/2 158/1087/2 151/1088/2
f 157/1058/2 156/1057/2 159/1086/2 158/1087/2
f 151/1088/2 158/1087/2 160/1089/2 150/1090/2
f 150/1090/2 160/1089/2 154/1048/2 116/1047/2
f 160/1089/2 161/1068/2 155/1049/2 154/1048/2
f 163/1091/5 169/1092/5 168/1093/5 162/1094/5
f 173/1095/5 67/1096/5 169/1092/5 163/1091/5
f 172/1097/5 173/1095/5 163/1091/5 165/1098/5
f 166/1099/5 165/1098/5 164/1100/5 167/1101/5
f 61/1102/5 172/1097/5 165/1098/5 166/1099/5
f 167/1101/5 164/1100/5 171/1103/5 2/1104/5
f 162/1094/5 168/1093/5 10/1105/5 170/1106/5
f 184/1107/3 177/1108/3 175/1071/3 185/1070/3
f 178/1109/3 179/1110/3 176/1111/3 177/1108/3
f 66/1112/3 178/1109/3 177/1108/3 184/1107/3
f 179/1110/3 7/1113/3 183/1114/3 176/1111/3
f 174/1074/3 182/1115/3 15/1116/3 180/1075/3
f 187/1065/3 186/1117/3 192/1118/3 193/1066/3
f 196/1119/3 189/1120/3 187/1065/3 197/1064/3
f 190/1121/3 191/1122/3 188/1123/3 189/1120/3
f 90/1124/3 190/1121/3 189/1120/3 196/1119/3
f 191/1122/3 31/1125/3 195/1126/3 188/1123/3
f 186/1117/3 194/1127/3 39/1128/3 192/1118/3
f 209/1129/5 91/1130/5 205/1131/5 199/1132/5
f 199/1132/5 205/1131/5 204/1133/5 198/1134/5
f 208/1135/5 209/1129/5 199/1132/5 201/1136/5
f 202/1137/5 201/1136/5 200/1138/5 203/1139/5
f 85/1140/5 208/1135/5 201/1136/5 202/1137/5
f 203/1139/5 200/1138/5 207/1141/5 26/1142/5
f 198/1134/5 204/1133/5 34/1143/5 206/1144/5
f 243/1145/4 235/1146/4 18/1147/4 244/1148/4
f 238/1149/4 241/1150/4 240/1151/4 17/1152/4
f 74/1153/4 237/1154/4 242/1155/4 239/1156/4
f 239/1156/4 242/1155/4 241/1150/4 238/1149/4
f 237/1154/4 236/1157/4 245/1158/4 242/1155/4
f 236/1157/4 75/1159/4 234/1160/4 245/1158/4
f 245/1158/4 234/1160/4 235/1146/4 243/1145/4
f 260/1161/2 247/1162/2 24/1163/2 250/1164/2
f 257/1165/2 23/1166/2 255/1167/2 258/1168/2
f 82/1169/2 251/1170/2 259/1171/2 249/1172/2
f 251/1170/2 257/1165/2 258/1168/2 259/1171/2
f 249/1172/2 259/1171/2 261/1173/2 253/1174/2
f 253/1174/2 261/1173/2 256/1175/2 83/1176/2
f 261/1173/2 260/1161/2 250/1164/2 256/1175/2
f 37/1079/4 143/1078/4 142/1084/4 94/1083/4 95/1023/4 38/1022/4
f 130/1177/4 136/1178/4 126/1179/4 103/1180/4
f 127/1181/4 126/1179/4 136/1178/4 134/1182/4
f 134/1182/4 133/1183/4 102/1184/4 127/1181/4
f 132/1185/4 133/1183/4 134/1182/4 135/1186/4
f 130/1177/4 131/1187/4 137/1188/4 136/1178/4
f 137/1188/4 131/1187/4 433/1189/4 432/1190/4
f 132/1185/4 135/1186/4 435/1191/4 431/1192/4
f 434/990/4 433/1189/4 131/1187/4 130/1177/4 103/1180/4 104/991/4
f 431/1192/4 430/1197/4 101/1198/4 102/1184/4 133/1183/4 132/1185/4
f 428/1040/3 424/988/3 80/987/3 78/1037/3
f 425/1199/5 427/1200/5 77/1201/5 79/1202/5
f 427/1200/5 426/1054/5 114/1060/5 77/1201/5
f 101/1202/5 430/1199/5 444/1203/5 425/1197/5 79/1198/5
usemtl Floors
f 17/906/1 240/277/1 244/276/1 18/907/1 13/908/1 12/909/1
f 3/910/1 11/911/1 12/909/1 4/912/1
f 4/912/1 12/909/1 13/908/1 5/913/1
f 5/913/1 13/908/1 14/914/1 6/915/1
f 21/916/1 414/917/1 412/918/1 128/919/1 129/920/1 411/921/1 413/922/1 22/923/1
f 19/924/1 418/925/1 422/926/1 410/927/1
f 19/924/1 21/916/1 22/923/1 20/928/1
f 20/928/1 22/923/1 416/929/1 415/930/1
f 38/931/1 109/932/1 194/280/1 195/283/1 31/933/1 30/934/1
f 21/916/1 409/935/1 408/936/1 414/917/1
f 410/927/1 409/935/1 21/916/1 19/924/1
f 2/937/1 171/309/1 170/312/1 10/938/1 11/911/1 3/910/1
f 27/939/1 35/940/1 36/941/1 28/942/1
f 29/943/1 37/944/1 38/931/1 30/934/1
f 19/924/1 20/928/1 419/945/1 421/946/1 153/947/1 152/948/1 420/949/1 418/925/1
f 22/923/1 413/922/1 417/980/1 416/929/1
f 20/928/1 415/930/1 423/1036/1 419/945/1
f 14/914/1 15/1061/1 182/314/1 183/313/1 7/1062/1 6/915/1
f 29/943/1 28/942/1 36/941/1 140/289/1 141/288/1 37/944/1
f 29/943/1 24/1193/1 247/354/1 255/353/1 23/1194/1 28/942/1
f 26/1195/1 207/307/1 206/306/1 34/1196/1 35/940/1 27/939/1
l 109 39
