# Blender 5.0.1
# www.blender.org
mtllib Computer.mtl
o Cube
v -2.123874 -0.001170 1.001410
v -1.958813 1.076446 0.836349
v -2.257191 -0.114499 -1.018769
v -2.057412 1.189775 -0.818990
v -0.352969 -0.001170 1.001410
v -0.518030 1.076446 0.836349
v -0.219652 -0.114499 -1.018769
v -0.419431 1.189775 -0.818990
v -2.257191 -0.841237 -1.018769
v -2.257191 -0.841237 1.018769
v -0.219652 -0.841237 -1.018769
v -0.219652 -0.841237 1.018769
v 1.233824 -0.114499 1.018769
v 1.233824 -0.114499 -1.018769
v 1.352476 -0.841237 1.018769
v 1.352476 -0.841237 -1.018769
v -2.257191 -1.026630 -1.018769
v -2.257191 -1.026630 1.018769
v -0.219652 -1.026630 -1.018769
v -0.219652 -1.026630 1.018769
v 1.352476 -1.026630 1.018769
v 1.352476 -1.026630 -1.018769
v -2.257191 -1.389999 -1.018769
v -2.257191 -1.389999 1.018769
v -0.219652 -1.389999 -1.018769
v -0.219652 -1.389999 1.018769
v 1.352476 -1.389999 1.018769
v 1.352476 -1.389999 -1.018769
v -2.257191 -0.114499 1.018769
v -2.057412 1.189775 0.818990
v -0.419431 1.189775 0.818990
v -0.219652 -0.114499 1.018769
v -2.123874 -0.017744 0.893200
v -1.958813 1.059871 0.645073
v -0.518030 1.059871 0.645073
v -0.352969 -0.017744 0.893200
v 1.352476 -0.841237 0.942761
v 1.352476 -1.026630 0.942761
v -2.257191 -0.841237 0.942761
v -0.219652 -0.841237 0.942761
v -2.257191 -1.026630 0.942761
v -0.219652 -1.026630 0.942761
v -0.219652 -1.026630 -0.963490
v 1.352476 -0.841237 -0.963490
v -2.257191 -0.841237 -0.963490
v -0.219652 -0.841237 -0.963490
v -2.257191 -1.026630 -0.963490
v 1.352476 -1.026630 -0.963490
v 1.297197 -0.841237 -0.963490
v 1.297197 -1.026630 -0.963490
v 1.297197 -1.026630 0.942761
v 1.297197 -0.841237 0.942761
v -2.208822 -0.841237 -0.963490
v -2.208822 -1.026630 -0.963490
v -2.208822 -1.026630 0.942761
v -2.208822 -0.841237 0.942761
vn -0.9885 0.1514 -0.0000
vn -0.0000 0.1514 -0.9885
vn 0.9885 0.1514 -0.0000
vn -0.0000 -0.9963 0.0863
vn -0.0000 -0.0000 1.0000
vn -0.0000 1.0000 -0.0000
vn -0.0000 -1.0000 -0.0000
vn -0.0000 -0.0000 -1.0000
vn -1.0000 -0.0000 -0.0000
vn 0.9869 0.1611 -0.0000
vn 1.0000 -0.0000 -0.0000
vn -0.0000 0.1514 0.9885
vn -0.0000 0.2244 0.9745
vn -0.9888 -0.1483 0.0164
vn -0.0000 0.9885 -0.1514
vn 0.9888 -0.1483 0.0164
vt 0.375000 0.000000
vt 0.625000 0.000000
vt 0.625000 0.250000
vt 0.375000 0.250000
vt 0.625000 0.500000
vt 0.375000 0.500000
vt 0.625000 0.750000
vt 0.375000 0.750000
vt 0.603277 0.766697
vt 0.603277 0.983303
vt 0.375000 1.000000
vt 0.875000 0.500000
vt 0.875000 0.750000
vt 0.375000 0.243217
vt 0.375000 0.009326
vt 0.375000 0.740674
vt 0.375000 0.506783
vt 0.375000 0.255935
vt 0.375000 0.994065
vt 0.125000 0.500000
vt 0.125000 0.750000
vt 0.396723 0.985152
vt 0.625000 1.000000
vt 0.396723 0.764848
vt 0.375000 0.507045
vt 0.375000 0.242955
s 0
usemtl Material.001
f 29/1/1 30/2/1 4/3/1 3/4/1
f 3/4/2 4/3/2 8/5/2 7/6/2
f 7/6/3 8/5/3 31/7/3 32/8/3
f 6/9/4 2/10/4 34/10/4 35/9/4
f 32/8/5 29/11/5 10/11/5 12/8/5
f 8/5/6 4/12/6 30/13/6 31/7/6
f 15/8/7 12/8/7 40/8/7 52/8/7 37/8/7
f 3/4/8 7/6/8 11/6/8 9/4/8
f 29/1/9 3/4/9 9/4/9 45/14/9 39/15/9 10/1/9
f 32/8/5 12/8/5 15/8/5 13/8/5
f 14/6/10 13/8/10 15/8/10 37/16/10 44/17/10 16/6/10
f 7/6/6 32/8/6 13/8/6 14/6/6
f 11/6/8 7/6/8 14/6/8 16/6/8
f 9/4/7 11/6/7 46/6/7 53/18/7 45/4/7
f 18/1/9 41/15/9 47/14/9 17/4/9 23/4/9 24/1/9
f 22/6/11 48/17/11 38/16/11 21/8/11 27/8/11 28/6/11
f 12/8/7 10/11/7 39/11/7 56/19/7 40/8/7
f 11/6/7 16/6/7 44/6/7 49/6/7 46/6/7
f 19/6/6 17/4/6 47/4/6 54/18/6 43/6/6
f 22/6/6 19/6/6 43/6/6 50/6/6 48/6/6
f 23/20/7 25/6/7 26/8/7 24/21/7
f 26/8/7 25/6/7 28/6/7 27/8/7
f 21/8/5 20/8/5 26/8/5 27/8/5
f 20/8/5 18/11/5 24/11/5 26/8/5
f 17/4/8 19/6/8 25/6/8 23/4/8
f 19/6/8 22/6/8 28/6/8 25/6/8
f 1/22/12 2/10/12 30/23/12 29/11/12
f 6/9/12 5/24/12 32/8/12 31/7/12
f 5/24/12 1/22/12 29/11/12 32/8/12
f 2/10/12 6/9/12 31/7/12 30/23/12
f 5/24/14 6/9/14 35/9/14 36/24/14
f 1/22/15 5/24/15 36/24/15 33/22/15
f 2/10/16 1/22/16 33/22/16 34/10/16
f 20/8/6 21/8/6 38/8/6 51/8/6 42/8/6
f 18/11/6 20/8/6 42/8/6 55/19/6 41/11/6
f 39/15/7 45/14/7 53/14/7 56/15/7
f 38/16/6 48/17/6 50/17/6 51/16/6
f 44/17/7 37/16/7 52/16/7 49/17/7
f 47/14/6 41/15/6 55/15/6 54/14/6
usemtl Material.002
f 36/24/13 35/9/13 34/10/13 33/22/13
usemtl Material.003
f 52/8/5 40/8/5 42/8/5 51/8/5
f 40/8/5 56/11/5 55/19/5 42/8/5
f 49/25/11 52/8/11 51/16/11 50/6/11
f 46/6/8 49/6/8 50/6/8 43/6/8
f 56/15/9 53/4/9 54/26/9 55/1/9
f 53/18/8 46/6/8 43/6/8 54/4/8
