# Blender 5.0.1
# www.blender.org
mtllib level.mtl
o Level
v -15.000000 0.000000 15.838120
v 15.000000 0.000000 15.000000
v -15.000000 0.000000 -17.604971
v 14.299160 0.000000 -16.592476
v -15.000000 0.000000 -11.666667
v -15.000000 0.000000 -8.333334
v -15.000000 0.000000 6.334006
v -15.000000 0.000000 11.666667
v -11.666667 0.000000 15.838120
v -8.333334 0.000000 15.838120
v -2.764084 0.000000 15.838120
v 3.151341 0.000000 15.000000
v 8.333334 0.000000 15.000000
v 11.666667 0.000000 15.000000
v 15.000000 0.000000 11.666667
v 15.000000 0.000000 6.997627
v 21.183750 0.000000 5.000000
v 21.183750 0.000000 1.666667
v 21.183750 0.000000 -1.666667
v 21.183750 0.000000 -5.000000
v 14.299160 0.000000 -8.333334
v 14.299160 0.000000 -11.666667
v 11.666667 0.000000 -16.592476
v 8.333334 0.000000 -16.592476
v 3.437281 0.000000 -16.592476
v -2.510219 0.000000 -17.604971
v -8.333334 0.000000 -17.604971
v -11.666667 0.000000 -17.604971
v -11.666667 0.000000 11.666667
v -11.666667 0.000000 6.334006
v -11.666667 0.000000 5.000000
v -11.666667 0.000000 1.666667
v -11.666667 0.000000 -1.666667
v -11.666667 0.000000 -5.000000
v -11.666667 0.000000 -8.333334
v -11.666667 0.000000 -11.666667
v -8.333334 0.000000 11.666667
v -8.333334 0.000000 6.334006
v -8.333334 0.000000 5.000000
v -8.333334 0.000000 1.666667
v -8.333334 0.000000 -1.666667
v -8.333334 0.000000 -5.000000
v -8.333334 0.000000 -8.333334
v -8.333334 0.000000 -11.666667
v -2.764084 0.000000 11.666667
v -2.764084 0.000000 6.334006
v -5.000000 0.000000 5.000000
v -5.000000 0.000000 1.666667
v -5.000000 0.000000 -1.666667
v -5.000000 0.000000 -5.000000
v -2.510220 0.000000 -8.333334
v -2.510219 0.000000 -11.666667
v -1.666667 0.000000 5.000000
v -1.666667 0.000000 1.666667
v -1.666667 0.000000 -1.666667
v -1.666667 0.000000 -5.000000
v 1.666667 0.000000 5.000000
v 1.666667 0.000000 1.666667
v 1.666667 0.000000 -1.666667
v 1.666667 0.000000 -5.000000
v 3.151341 0.000000 11.666667
v 3.151341 0.000000 6.997627
v 5.000000 0.000000 5.000000
v 5.000000 0.000000 1.666667
v 5.000000 0.000000 -1.666667
v 5.000000 0.000000 -5.000000
v 3.437281 0.000000 -8.333334
v 3.437281 0.000000 -11.666667
v 8.333334 0.000000 11.666667
v 8.333334 0.000000 6.997627
v 8.333334 0.000000 5.000000
v 8.333334 0.000000 1.666667
v 8.333334 0.000000 -1.666667
v 8.333334 0.000000 -5.000000
v 8.333334 0.000000 -8.333334
v 8.333334 0.000000 -11.666667
v 11.666667 0.000000 11.666667
v 11.666667 0.000000 6.997627
v 11.666667 0.000000 5.000000
v 11.666667 0.000000 1.666667
v 11.666667 0.000000 -1.666667
v 11.666667 0.000000 -5.000000
v 11.666667 0.000000 -8.333334
v 11.666667 0.000000 -11.666667
v -15.000000 2.919782 15.838120
v 15.000000 2.919782 15.000000
v -15.000000 2.919782 -17.604971
v 14.299160 2.919782 -16.592476
v -15.000000 2.919782 -11.666667
v -15.000000 2.919782 -8.333334
v -15.000000 2.919782 6.334006
v -15.000000 2.919782 11.666667
v -11.666667 2.919782 15.838120
v -8.333334 2.919782 15.838120
v -2.764084 2.919782 15.838120
v 3.151341 2.919782 15.000000
v 8.333334 2.919782 15.000000
v 11.666667 2.919782 15.000000
v 15.000000 2.919782 11.666667
v 15.000000 2.919782 6.997627
v 21.183750 2.919782 5.000000
v 21.183750 2.919782 -5.000000
v 14.299160 2.919782 -8.333334
v 14.299160 2.919782 -11.666667
v 11.666667 2.919782 -16.592476
v 8.333334 2.919782 -16.592476
v 3.437281 2.919782 -16.592476
v -2.510219 2.919782 -17.604971
v -8.333334 2.919782 -17.604971
v -11.666667 2.919782 -17.604971
v -11.666667 2.919782 6.334006
v -11.666667 2.919782 5.000000
v -11.666667 2.919782 1.666667
v -11.666667 2.919782 -1.666667
v -11.666667 2.919782 -5.000000
v -11.666667 2.919782 -8.333334
v -8.333334 2.919782 6.334006
v -8.333334 2.919782 5.000000
v -8.333334 2.919782 1.666667
v -8.333334 2.919782 -1.666667
v -8.333334 2.919782 -5.000000
v -8.333334 2.919782 -8.333334
v -2.764084 2.919782 11.666667
v -2.764084 2.919782 6.334006
v -5.000000 2.919782 5.000000
v -5.000000 2.919782 1.666667
v -5.000000 2.919782 -1.666667
v -5.000000 2.919782 -5.000000
v -2.510220 2.919782 -8.333334
v -2.510219 2.919782 -11.666667
v -1.666667 2.919782 5.000000
v -1.666667 2.919782 -5.000000
v 1.666667 2.919782 5.000000
v 1.666667 2.919782 -5.000000
v 3.151341 2.919782 11.666667
v 3.151341 2.919782 6.997627
v 5.000000 2.919782 5.000000
v 5.000000 2.919782 1.666667
v 5.000000 2.919782 -1.666667
v 5.000000 2.919782 -5.000000
v 3.437281 2.919782 -8.333334
v 3.437281 2.919782 -11.666667
v 8.333334 2.919782 6.997627
v 8.333334 2.919782 5.000000
v 8.333334 2.919782 1.666667
v 8.333334 2.919782 -1.666667
v 8.333334 2.919782 -5.000000
v 8.333334 2.919782 -8.333334
v 11.666667 2.919782 6.997627
v 11.666667 2.919782 5.000000
v 11.666667 2.919782 1.666667
v 11.666667 2.919782 -1.666667
v 11.666667 2.919782 -5.000000
v 11.666667 2.919782 -8.333334
v 12.087501 0.000000 5.000000
v 12.087501 0.000000 1.666667
v 12.087501 0.000000 -1.666667
v 12.087501 0.000000 -5.000000
v 12.087501 2.919782 5.000000
v 12.087501 2.919782 1.666667
v 12.087501 2.919782 -1.666667
v 12.087501 2.919782 -5.000000
v 4.578041 0.000000 5.000000
v 4.578041 0.000000 1.666667
v 4.578041 0.000000 -1.666667
v 4.578041 0.000000 -5.000000
v 4.578041 2.919782 5.000000
v 4.578041 2.919782 1.666667
v 4.578041 2.919782 -1.666667
v 4.578041 2.919782 -5.000000
v 8.333334 0.000000 7.380906
v 3.151341 0.000000 7.380906
v 11.666667 0.000000 7.380906
v 15.000000 0.000000 7.380906
v 8.333334 2.919782 7.380906
v 3.151341 2.919782 7.380906
v 15.000000 2.919782 7.380906
v 11.666667 2.919782 7.380906
v 14.299160 0.000000 -8.333334
v 11.666667 0.000000 -8.333334
v 8.333334 0.000000 -8.702548
v 3.437281 0.000000 -8.702548
v 11.666667 0.000000 -8.702548
v 8.333334 2.919782 -8.702548
v 3.437281 2.919782 -8.702548
v 14.299160 2.919782 -8.702548
v 11.666667 2.919782 -8.702548
v 14.299160 0.000000 -8.702548
v 14.299160 0.000000 -8.702548
v 11.666667 0.000000 -8.702548
v -4.609688 0.000000 5.000000
v -4.609688 0.000000 1.666667
v -4.609688 0.000000 -1.666667
v -4.609688 0.000000 -5.000000
v -4.609688 2.919782 5.000000
v -4.609688 2.919782 1.666667
v -4.609688 2.919782 -1.666667
v -4.609688 2.919782 -5.000000
v -11.666667 0.000000 -8.699032
v -15.000000 0.000000 -8.699032
v -8.333334 0.000000 -8.699032
v -2.510220 0.000000 -8.699032
v -11.666667 2.919782 -8.699032
v -15.000000 2.919782 -8.699032
v -2.510220 2.919782 -8.699032
v -8.333334 2.919782 -8.699032
v -11.666667 0.000000 6.741899
v -15.000000 0.000000 6.741899
v -8.333334 0.000000 6.741899
v -2.764084 0.000000 6.741899
v -11.666667 2.919782 6.741899
v -15.000000 2.919782 6.741899
v -2.764084 2.919782 6.741899
v -8.333334 2.919782 6.741899
v 4.578041 2.919782 -0.555555
v 4.578041 2.919782 0.555556
v 4.578041 0.000000 0.722222
v 4.578041 0.000000 -0.722222
v 4.578041 1.946521 -1.666667
v 4.578041 0.973261 -1.666667
v 4.578041 0.973261 1.666667
v 4.578041 1.946521 1.666667
v 4.578041 2.530477 0.722222
v 4.578041 1.265239 0.722222
v 4.578041 2.530477 -0.722222
v 4.578041 1.265239 -0.722222
v 11.666667 2.919782 -0.555555
v 11.666667 2.919782 0.555556
v 11.666667 0.000000 0.722222
v 11.666667 0.000000 -0.722222
v 11.666667 1.946521 -1.666667
v 11.666667 0.973261 -1.666667
v 11.666667 0.973261 1.666667
v 11.666667 1.946521 1.666667
v 11.666667 2.530477 0.722222
v 11.666667 1.265239 0.722222
v 11.666667 2.530477 -0.722222
v 11.666667 1.265239 -0.722222
v -4.609688 2.919782 -0.555555
v -4.609688 2.919782 0.555556
v -4.609688 0.000000 0.722222
v -4.609688 0.000000 -0.722222
v -4.609688 1.946521 -1.666667
v -4.609688 0.973261 -1.666667
v -4.609688 0.973261 1.666667
v -4.609688 1.946521 1.666667
v -4.609688 2.530477 0.722222
v -4.609688 1.265239 0.722222
v -4.609688 2.530477 -0.722222
v -4.609688 1.265239 -0.722222
v -9.277778 1.265239 6.334006
v -9.277778 2.530477 6.334006
v -10.722222 1.265239 6.334006
v -10.722222 2.530477 6.334006
v -11.666667 1.946521 6.334006
v -11.666667 0.973261 6.334006
v -8.333333 0.973261 6.334006
v -8.333333 1.946521 6.334006
v -9.277778 0.000000 6.334006
v -10.722222 0.000000 6.334006
v -10.555555 2.919782 6.334006
v -9.444445 2.919782 6.334006
v -9.277778 1.265239 -8.333334
v -9.277778 2.530477 -8.333334
v -10.722222 1.265239 -8.333334
v -10.722222 2.530477 -8.333334
v -11.666667 1.946521 -8.333334
v -11.666667 0.973261 -8.333334
v -8.333333 0.973261 -8.333334
v -8.333333 1.946521 -8.333334
v -9.277778 0.000000 -8.333334
v -10.722222 0.000000 -8.333334
v -10.555555 2.919782 -8.333334
v -9.444445 2.919782 -8.333334
v 10.722222 1.265239 -8.333334
v 10.722222 2.530477 -8.333334
v 9.277778 1.265239 -8.333334
v 9.277778 2.530477 -8.333334
v 8.333333 1.946521 -8.333334
v 8.333333 0.973261 -8.333334
v 11.666667 0.973261 -8.333334
v 11.666667 1.946521 -8.333334
v 10.722222 0.000000 -8.333334
v 9.277778 0.000000 -8.333334
v 9.444445 2.919782 -8.333334
v 10.555555 2.919782 -8.333334
v 10.722222 1.265239 6.997627
v 10.722222 2.530477 6.997627
v 9.277778 1.265239 6.997627
v 9.277778 2.530477 6.997627
v 8.333333 1.946521 6.997627
v 8.333333 0.973261 6.997627
v 11.666667 0.973261 6.997627
v 11.666667 1.946521 6.997627
v 10.722222 0.000000 6.997627
v 9.277778 0.000000 6.997627
v 9.444445 2.919782 6.997627
v 10.555555 2.919782 6.997627
v -9.277778 2.530477 -8.699032
v -9.277778 1.265239 -8.699032
v -10.722222 2.530477 -8.699032
v -11.666667 1.946521 -8.699032
v -10.722222 1.265239 -8.699032
v -11.666667 0.973261 -8.699032
v -8.333333 1.946521 -8.699032
v -8.333333 0.973261 -8.699032
v -9.444445 2.919782 -8.699032
v -9.277778 0.000000 -8.699032
v -10.555555 2.919782 -8.699032
v -10.722222 0.000000 -8.699032
v -11.666667 0.973261 6.741899
v -9.277778 0.000000 6.741899
v -8.333333 0.973261 6.741899
v -9.277778 1.265239 6.741899
v -8.333333 1.946521 6.741899
v -9.277778 2.530477 6.741899
v -10.722222 2.530477 6.741899
v -10.722222 1.265239 6.741899
v -11.666667 1.946521 6.741899
v -9.444445 2.919782 6.741899
v -10.555555 2.919782 6.741899
v -10.722222 0.000000 6.741899
v -5.000000 1.946521 -1.666667
v -5.000000 0.973261 -1.666667
v -5.000000 2.919782 -0.555555
v -5.000000 2.919782 0.555556
v -5.000000 0.973261 1.666667
v -5.000000 1.946521 1.666667
v -5.000000 -0.000000 0.722222
v -5.000000 1.265239 0.722222
v -5.000000 2.530477 0.722222
v -5.000000 1.265239 -0.722222
v -5.000000 -0.000000 -0.722222
v -5.000000 2.530477 -0.722222
v 10.722222 0.000000 7.380906
v 5.000000 0.000000 -0.722222
v 10.722222 1.265239 7.380906
v 5.000000 2.919782 0.555556
v 5.000000 0.973261 -1.666667
v 5.000000 1.946521 1.666667
v 10.722222 2.530477 7.380906
v 5.000000 2.919782 -0.555555
v 10.555555 2.919782 7.380906
v 5.000000 0.000000 0.722222
v 5.000000 1.946521 -1.666667
v 5.000000 0.973261 1.666667
v 5.000000 1.265239 0.722222
v 5.000000 2.530477 0.722222
v 5.000000 1.265239 -0.722222
v 5.000000 2.530477 -0.722222
v 9.277778 1.265239 7.380906
v 9.277778 2.530477 7.380906
v 9.444445 2.919782 7.380906
v 9.277778 0.000000 7.380906
v 8.333333 1.946521 7.380906
v 8.333333 0.973261 7.380906
v 11.666667 0.973261 7.380906
v 11.666667 1.946521 7.380906
v 12.087501 0.973261 -1.666667
v 12.087501 1.946521 -1.666667
v 12.087501 2.919782 0.555556
v 12.087501 2.919782 -0.555555
v 12.087501 0.973261 1.666667
v 12.087501 1.946521 1.666667
v 12.087501 0.000000 0.722222
v 12.087501 1.265239 0.722222
v 12.087501 2.530477 0.722222
v 12.087501 1.265239 -0.722222
v 12.087501 0.000000 -0.722222
v 12.087501 2.530477 -0.722222
v 8.333333 1.946521 -8.702547
v 9.277778 2.530477 -8.702547
v 8.333333 0.973261 -8.702547
v 9.277778 1.265239 -8.702547
v 10.722222 2.530477 -8.702547
v 10.722222 1.265239 -8.702547
v 9.277778 0.000000 -8.702547
v 9.444445 2.919782 -8.702547
v 10.722222 0.000000 -8.702547
v 10.555555 2.919782 -8.702547
v 11.666667 0.973261 -8.702547
v 11.666667 1.946521 -8.702547
vn -0.0000 1.0000 -0.0000
vn 1.0000 -0.0000 -0.0000
vn -0.0000 -0.0000 -1.0000
vn -1.0000 -0.0000 -0.0000
vn -0.0000 -0.0000 1.0000
vn -0.0000 -1.0000 -0.0000
vt 0.661345 0.409244
vt 0.661345 0.465524
vt 0.766654 0.465524
vt 0.766654 0.409244
vt 0.988598 0.843904
vt 0.917334 0.843904
vt 0.917334 0.970859
vt 0.988598 0.970859
vt 0.846071 0.843904
vt 0.846071 0.970859
vt 0.721579 0.843904
vt 0.721579 0.970859
vt 0.661345 0.233308
vt 0.661345 0.337981
vt 0.766654 0.337981
vt 0.766654 0.233308
vt 0.795446 0.245406
vt 0.795446 0.316669
vt 0.884627 0.316669
vt 0.884627 0.245406
vt 0.013044 0.348134
vt 0.078703 0.348134
vt 0.078703 0.309206
vt 0.013044 0.309206
vt 0.917334 0.780459
vt 0.988598 0.780459
vt 0.795446 0.387932
vt 0.884627 0.387932
vt 0.150988 0.060886
vt 0.138396 0.060886
vt 0.119138 0.060886
vt 0.106546 0.060886
vt 0.106546 0.105327
vt 0.150988 0.105327
vt 0.138396 0.055682
vt 0.119138 0.055682
vt 0.195429 0.149769
vt 0.195429 0.105327
vt 0.150988 0.149769
vt 0.106546 0.149769
vt 0.062104 0.105327
vt 0.062104 0.149769
vt 0.222474 0.232452
vt 0.227397 0.232452
vt 0.227397 0.213194
vt 0.222474 0.213194
vt 0.597975 0.358172
vt 0.597975 0.389053
vt 0.597975 0.409244
vt 0.597975 0.337981
vt 0.795446 0.506997
vt 0.884627 0.506997
vt 0.989914 0.316669
vt 0.989914 0.245406
vt 0.120999 0.245044
vt 0.101741 0.245044
vt 0.101741 0.250655
vt 0.120999 0.250655
vt 0.846071 0.780459
vt 0.721579 0.780459
vt 0.262547 0.821797
vt 0.262547 0.759375
vt 0.199628 0.759375
vt 0.199628 0.821797
vt 0.854099 0.085836
vt 0.791857 0.085836
vt 0.791857 0.106027
vt 0.791857 0.136908
vt 0.791857 0.157099
vt 0.854099 0.157099
vt 0.925363 0.085836
vt 0.988281 0.085836
vt 0.988281 0.014573
vt 0.925363 0.014573
vt 0.854099 0.014573
vt 0.925363 0.157099
vt 0.854099 0.228362
vt 0.925363 0.228362
vt 0.066123 0.821797
vt 0.128365 0.821797
vt 0.128365 0.759375
vt 0.066123 0.759375
vt 0.178032 0.245044
vt 0.222474 0.245044
vt 0.222474 0.200602
vt 0.178032 0.200602
vt 0.791857 0.014573
vt 0.613416 0.487261
vt 0.613416 0.598046
vt 0.684679 0.598046
vt 0.684679 0.487261
vt 0.594670 0.782984
vt 0.503045 0.782984
vt 0.503045 0.845406
vt 0.594670 0.845406
vt 0.213215 0.149769
vt 0.213215 0.137177
vt 0.213215 0.117919
vt 0.213215 0.105327
vt 0.443211 0.497622
vt 0.505633 0.497622
vt 0.505633 0.434252
vt 0.443211 0.434252
vt 0.613416 0.669310
vt 0.684679 0.669310
vt 0.012964 0.232452
vt 0.018074 0.232452
vt 0.018074 0.213194
vt 0.012964 0.213194
vt 0.044707 0.200602
vt 0.044707 0.245044
vt 0.089149 0.245044
vt 0.089149 0.200602
vt 0.218653 0.137177
vt 0.218653 0.117919
vt 0.133591 0.200602
vt 0.133591 0.245044
vt 0.017662 0.137177
vt 0.017662 0.117919
vt 0.012787 0.117919
vt 0.012787 0.137177
vt 0.613416 0.740573
vt 0.684679 0.740573
vt 0.776304 0.669310
vt 0.776304 0.740573
vt 0.147661 0.435240
vt 0.147661 0.629709
vt 0.210083 0.629709
vt 0.210083 0.435240
vt 0.992179 0.673224
vt 0.797711 0.673224
vt 0.797711 0.744487
vt 0.992179 0.744487
vt 0.497888 0.143283
vt 0.497888 0.018791
vt 0.435466 0.018791
vt 0.435466 0.143283
vt 0.435466 0.214546
vt 0.435466 0.285810
vt 0.497888 0.285810
vt 0.497888 0.214547
vt 0.597975 0.465524
vt 0.988281 0.157099
vt 0.988281 0.136908
vt 0.988281 0.106027
vt 0.404489 0.334145
vt 0.365561 0.334145
vt 0.365561 0.289703
vt 0.404489 0.289703
vt 0.560310 0.082236
vt 0.560310 0.018791
vt 0.497888 0.082236
vt 0.568055 0.602931
vt 0.568055 0.539561
vt 0.505633 0.539561
vt 0.505633 0.602931
vt 0.989914 0.506997
vt 0.989914 0.387932
vt 0.228290 0.213199
vt 0.228290 0.257641
vt 0.267218 0.257641
vt 0.267218 0.213199
vt 0.196059 0.054815
vt 0.213844 0.054815
vt 0.213844 0.041839
vt 0.213844 0.028863
vt 0.213844 0.015887
vt 0.196059 0.015887
vt 0.228290 0.168757
vt 0.267218 0.168757
vt 0.151617 0.015887
vt 0.151617 0.054815
vt 0.200305 0.884219
vt 0.200305 0.821797
vt 0.129042 0.821797
vt 0.129042 0.884219
vt 0.228290 0.094505
vt 0.267218 0.094505
vt 0.238514 0.328442
vt 0.211881 0.328442
vt 0.211881 0.341418
vt 0.211881 0.354394
vt 0.211881 0.367370
vt 0.238514 0.367370
vt 0.107175 0.015887
vt 0.107175 0.054815
vt 0.282956 0.367370
vt 0.282956 0.328442
vt 0.062733 0.015887
vt 0.062733 0.054815
vt 0.992179 0.530697
vt 0.797711 0.530697
vt 0.797711 0.601961
vt 0.992179 0.601961
vt 0.018292 0.015887
vt 0.018292 0.054815
vt 0.364269 0.317533
vt 0.364269 0.273091
vt 0.325341 0.273091
vt 0.325341 0.317533
vt 0.542567 0.907828
vt 0.431782 0.907828
vt 0.431782 0.970250
vt 0.542567 0.970250
vt 0.364269 0.228649
vt 0.351293 0.228649
vt 0.338317 0.228649
vt 0.325341 0.228649
vt 0.791857 0.228362
vt 0.613830 0.907828
vt 0.613830 0.970250
vt 0.272505 0.629709
vt 0.272505 0.435241
vt 0.210083 0.435241
vt 0.210083 0.629709
vt 0.431782 0.782984
vt 0.431782 0.845406
vt 0.215440 0.103320
vt 0.215440 0.029068
vt 0.220878 0.029068
vt 0.220878 0.103320
vt 0.264595 0.055232
vt 0.264595 0.016304
vt 0.229497 0.016304
vt 0.229497 0.055232
vt 0.776304 0.598046
vt 0.776304 0.487261
vt 0.031297 0.349426
vt 0.013511 0.349426
vt 0.013511 0.362402
vt 0.013511 0.375378
vt 0.013511 0.388354
vt 0.031297 0.388354
vt 0.262547 0.884219
vt 0.262547 0.821797
vt 0.076762 0.388354
vt 0.121204 0.388354
vt 0.121204 0.375378
vt 0.121204 0.362402
vt 0.121204 0.349426
vt 0.076762 0.349426
vt 0.075739 0.388354
vt 0.075739 0.349426
vt 0.196397 0.061769
vt 0.151955 0.061769
vt 0.151955 0.074745
vt 0.151955 0.087721
vt 0.151955 0.100697
vt 0.196397 0.100697
vt 0.263721 0.285182
vt 0.263721 0.258549
vt 0.250745 0.258549
vt 0.237769 0.258549
vt 0.224793 0.258549
vt 0.224793 0.285182
vt 0.325341 0.227476
vt 0.364269 0.227476
vt 0.364269 0.183034
vt 0.325341 0.183034
vt 0.017662 0.194211
vt 0.012787 0.194211
vt 0.012787 0.149769
vt 0.017662 0.149769
vt 0.364269 0.138592
vt 0.325341 0.138592
vt 0.032880 0.062363
vt 0.101969 0.062363
vt 0.101969 0.067473
vt 0.032880 0.067473
vt 0.134319 0.309206
vt 0.134319 0.348134
vt 0.597975 0.233308
vt 0.685094 0.907828
vt 0.685094 0.970250
vt 0.350697 0.393600
vt 0.363673 0.393600
vt 0.376649 0.393600
vt 0.389625 0.393600
vt 0.389625 0.349158
vt 0.350697 0.349158
vt 0.497888 0.209191
vt 0.560310 0.209191
vt 0.404489 0.060478
vt 0.404489 0.016036
vt 0.391513 0.016036
vt 0.378537 0.016036
vt 0.365561 0.016036
vt 0.365561 0.060478
vt 0.380789 0.490532
vt 0.380789 0.434252
vt 0.318367 0.434252
vt 0.318367 0.490532
vt 0.443211 0.602931
vt 0.568055 0.434252
vt 0.364269 0.016144
vt 0.325341 0.016144
vt 0.325341 0.071760
vt 0.364269 0.071760
vt 0.365561 0.062376
vt 0.365561 0.106818
vt 0.378537 0.106818
vt 0.391513 0.106818
vt 0.404489 0.106818
vt 0.404489 0.062376
vt 0.380789 0.561795
vt 0.318367 0.561795
vt 0.988281 0.228362
vt 0.594670 0.720562
vt 0.523407 0.720562
vt 0.523407 0.782984
vt 0.325341 0.137419
vt 0.364269 0.137419
vt 0.380789 0.666468
vt 0.318367 0.666468
vt 0.622732 0.145746
vt 0.622732 0.018791
vt 0.560310 0.145746
vt 0.431782 0.720562
vt 0.031446 0.073593
vt 0.031446 0.068671
vt 0.096723 0.068671
vt 0.096723 0.073593
vt 0.396990 0.405840
vt 0.396990 0.366912
vt 0.401866 0.366912
vt 0.401866 0.405840
vt 0.066123 0.821797
vt 0.066123 0.884219
vt 0.133591 0.156160
vt 0.133591 0.150535
vt 0.178032 0.150535
vt 0.178032 0.156160
vt 0.147661 0.506504
vt 0.147661 0.435240
vt 0.085239 0.435240
vt 0.085239 0.649030
vt 0.147661 0.649030
vt 0.147661 0.577767
vt 0.022817 0.649030
vt 0.022817 0.577767
vt 0.043625 0.577767
vt 0.064432 0.577767
vt 0.085239 0.577767
vt 0.085239 0.649030
vt 0.022817 0.435240
vt 0.085239 0.435240
vt 0.085239 0.506504
vt 0.064432 0.506504
vt 0.043625 0.506504
vt 0.022817 0.506504
vt 0.019324 0.095961
vt 0.058252 0.095961
vt 0.058252 0.101572
vt 0.019324 0.101572
vt 0.323613 0.149223
vt 0.284685 0.149223
vt 0.284685 0.104781
vt 0.297661 0.104781
vt 0.310637 0.104781
vt 0.323613 0.104781
vt 0.098471 0.094577
vt 0.059543 0.094577
vt 0.059543 0.088966
vt 0.098471 0.088966
vt 0.178032 0.250655
vt 0.133591 0.250655
vt 0.089149 0.250655
vt 0.044707 0.250655
vt 0.289875 0.092189
vt 0.306744 0.092189
vt 0.989914 0.367741
vt 0.989914 0.336860
vt 0.191284 0.759375
vt 0.191284 0.738567
vt 0.191284 0.717760
vt 0.191284 0.696953
vt 0.262547 0.696953
vt 0.048758 0.759375
vt 0.048758 0.696953
vt 0.120021 0.696953
vt 0.120021 0.717760
vt 0.120021 0.738567
vt 0.120021 0.759375
vt 0.044707 0.156160
vt 0.044707 0.150535
vt 0.089149 0.150535
vt 0.089149 0.156160
vt 0.019324 0.094577
vt 0.019324 0.088951
vt 0.058252 0.088951
vt 0.058252 0.094577
vt 0.019324 0.061352
vt 0.019324 0.055727
vt 0.058252 0.055727
vt 0.058252 0.061352
vt 0.120999 0.150535
vt 0.101741 0.150535
vt 0.101741 0.156160
vt 0.120999 0.156160
vt 0.431782 0.907828
vt 0.503045 0.907828
vt 0.503045 0.887021
vt 0.503045 0.866213
vt 0.503045 0.845406
vt 0.431782 0.845406
vt 0.685094 0.845406
vt 0.574308 0.845406
vt 0.574308 0.866213
vt 0.574308 0.887021
vt 0.574308 0.907828
vt 0.019579 0.082472
vt 0.064021 0.082472
vt 0.064021 0.087582
vt 0.019579 0.087582
vt 0.311945 0.323653
vt 0.317055 0.323653
vt 0.317055 0.284725
vt 0.311945 0.284725
vt 0.273338 0.213904
vt 0.268228 0.213904
vt 0.268228 0.252832
vt 0.273338 0.252832
vt 0.012787 0.015887
vt 0.100544 0.103320
vt 0.100544 0.068223
vt 0.105466 0.068223
vt 0.105466 0.103320
vt 0.318253 0.288222
vt 0.318253 0.327150
vt 0.323176 0.327150
vt 0.323176 0.288222
vt 0.279345 0.142989
vt 0.279345 0.208266
vt 0.284268 0.208266
vt 0.284268 0.142989
vt 0.395745 0.374364
vt 0.395745 0.335436
vt 0.390823 0.335436
vt 0.390823 0.374364
vt 0.279345 0.287805
vt 0.284268 0.287805
vt 0.284268 0.252707
vt 0.279345 0.252707
vt 0.120021 0.946640
vt 0.048757 0.946640
vt 0.048757 0.884219
vt 0.120021 0.884219
vt 0.191284 0.946640
vt 0.191284 0.884219
vt 0.062104 0.060886
vt 0.062104 0.055682
vt 0.106546 0.055682
vt 0.210386 0.056523
vt 0.210386 0.095451
vt 0.205182 0.095451
vt 0.205182 0.056523
vt 0.195429 0.060886
vt 0.150988 0.055682
vt 0.195429 0.055682
vt 0.219130 0.138711
vt 0.219130 0.177639
vt 0.213926 0.177639
vt 0.213926 0.138711
vt 0.685153 0.018791
vt 0.685153 0.143283
vt 0.622732 0.143283
vt 0.167914 0.407589
vt 0.167914 0.368661
vt 0.172790 0.368661
vt 0.172790 0.407589
vt 0.227834 0.134935
vt 0.227834 0.212572
vt 0.222958 0.212572
vt 0.222958 0.134935
vt 0.017662 0.027690
vt 0.017662 0.105327
vt 0.012787 0.105327
vt 0.012787 0.027690
vt 0.227834 0.090493
vt 0.222958 0.090493
vt 0.222958 0.046052
vt 0.227834 0.046052
vt 0.897143 0.780459
vt 0.866262 0.780459
vt 0.031297 0.075150
vt 0.075739 0.075150
vt 0.075739 0.080588
vt 0.031297 0.080588
vt 0.059543 0.096134
vt 0.059543 0.101572
vt 0.098471 0.101572
vt 0.098471 0.096134
vt 0.197953 0.095451
vt 0.203392 0.095451
vt 0.203392 0.056523
vt 0.197953 0.056523
vt 0.134498 0.196000
vt 0.134498 0.157072
vt 0.212135 0.157072
vt 0.212135 0.196000
vt 0.136134 0.328442
vt 0.136134 0.367370
vt 0.210386 0.367370
vt 0.210386 0.328442
vt 0.404489 0.107841
vt 0.365561 0.107841
vt 0.365561 0.152283
vt 0.404489 0.152283
vt 0.310498 0.327150
vt 0.266056 0.327150
vt 0.266056 0.314174
vt 0.266056 0.301198
vt 0.266056 0.288222
vt 0.310498 0.288222
vt 0.177172 0.327150
vt 0.177172 0.288222
vt 0.221614 0.288222
vt 0.221614 0.301198
vt 0.221614 0.314174
vt 0.221614 0.327150
vt 0.622732 0.209191
vt 0.497888 0.280454
vt 0.560310 0.280454
vt 0.285122 0.149671
vt 0.324050 0.149671
vt 0.324050 0.194113
vt 0.311074 0.194113
vt 0.298098 0.194113
vt 0.285122 0.194113
vt 0.324050 0.282996
vt 0.285122 0.282996
vt 0.285122 0.238555
vt 0.298098 0.238555
vt 0.311074 0.238555
vt 0.324050 0.238555
vt 0.284129 0.328441
vt 0.284129 0.367370
vt 0.349406 0.367370
vt 0.349406 0.328442
vt 0.018890 0.157072
vt 0.018890 0.196000
vt 0.087979 0.196000
vt 0.087979 0.157072
vt 0.365561 0.197749
vt 0.404489 0.197749
vt 0.404489 0.153307
vt 0.365561 0.153307
vt 0.443211 0.610188
vt 0.422404 0.610188
vt 0.401597 0.610188
vt 0.380789 0.610188
vt 0.443211 0.666468
vt 0.284685 0.089967
vt 0.193873 0.285182
vt 0.191651 0.279992
vt 0.179060 0.272206
vt 0.179060 0.285182
vt 0.211475 0.919591
vt 0.211475 0.946640
vt 0.191284 0.946640
vt 0.191284 0.925833
vt 0.365561 0.228400
vt 0.370751 0.230622
vt 0.378537 0.243214
vt 0.365561 0.243214
vt 0.387620 0.230622
vt 0.391513 0.243214
vt 0.323613 0.092189
vt 0.234868 0.090205
vt 0.229242 0.090205
vt 0.229242 0.073337
vt 0.234868 0.073337
vt 0.236237 0.056468
vt 0.241862 0.056468
vt 0.241862 0.073337
vt 0.236237 0.073337
vt 0.306744 0.072931
vt 0.310637 0.060339
vt 0.323613 0.060339
vt 0.323613 0.072931
vt 0.284685 0.075153
vt 0.289875 0.072931
vt 0.284685 0.060339
vt 0.297661 0.060339
vt 0.262547 0.925833
vt 0.262547 0.946640
vt 0.242356 0.946640
vt 0.242356 0.919591
vt 0.262547 0.884219
vt 0.262547 0.905026
vt 0.242356 0.892542
vt 0.238793 0.884219
vt 0.211475 0.892542
vt 0.215038 0.884219
vt 0.191284 0.905026
vt 0.399298 0.256830
vt 0.391513 0.244238
vt 0.378537 0.244238
vt 0.382429 0.256830
vt 0.404489 0.259052
vt 0.404489 0.244238
vt 0.404489 0.273866
vt 0.399298 0.276088
vt 0.391513 0.288679
vt 0.382429 0.276088
vt 0.378537 0.288679
vt 0.404489 0.288679
vt 0.365561 0.276088
vt 0.365561 0.288679
vt 0.365561 0.244238
vt 0.365561 0.256830
vt 0.365561 0.213586
vt 0.370751 0.211364
vt 0.378537 0.198772
vt 0.391513 0.198772
vt 0.387620 0.211364
vt 0.365561 0.198772
vt 0.404489 0.198772
vt 0.404489 0.211364
vt 0.404489 0.230622
vt 0.404489 0.243214
vt 0.191651 0.263123
vt 0.179060 0.259230
vt 0.208687 0.285182
vt 0.210909 0.279992
vt 0.223501 0.272206
vt 0.223501 0.259230
vt 0.210909 0.263123
vt 0.223501 0.285182
vt 0.223501 0.246254
vt 0.210909 0.246254
vt 0.191651 0.246254
vt 0.179060 0.246254
vt 0.151856 0.407589
vt 0.166670 0.407589
vt 0.166670 0.394613
vt 0.154078 0.402399
vt 0.166670 0.381637
vt 0.154078 0.385530
vt 0.137042 0.407589
vt 0.134820 0.402399
vt 0.122228 0.394613
vt 0.134820 0.385530
vt 0.122228 0.381637
vt 0.122228 0.407589
vt 0.134820 0.368661
vt 0.122228 0.368661
vt 0.166670 0.368661
vt 0.154078 0.368661
vt 0.622732 0.167038
vt 0.643539 0.143283
vt 0.631054 0.163474
vt 0.664346 0.143283
vt 0.658104 0.163474
vt 0.622732 0.190792
vt 0.631054 0.194355
vt 0.643539 0.214546
vt 0.658104 0.194355
vt 0.664346 0.214546
vt 0.622732 0.214546
vt 0.685153 0.194355
vt 0.685153 0.214546
vt 0.685153 0.143283
vt 0.685153 0.163474
vt 0.191151 0.385474
vt 0.191151 0.402343
vt 0.186275 0.402343
vt 0.186275 0.385474
vt 0.268463 0.200372
vt 0.268463 0.181114
vt 0.273338 0.181114
vt 0.273338 0.200372
vt 0.227834 0.105307
vt 0.222958 0.105307
vt 0.227834 0.120121
vt 0.222958 0.120121
vt 0.180155 0.402343
vt 0.180155 0.385474
vt 0.185031 0.385474
vt 0.185031 0.402343
vt 0.180155 0.368605
vt 0.185031 0.368605
vt 0.191151 0.368605
vt 0.186275 0.368605
vt 0.099996 0.285238
vt 0.099996 0.268369
vt 0.087404 0.264476
vt 0.087404 0.277452
vt 0.102218 0.290428
vt 0.087404 0.290428
vt 0.117032 0.290428
vt 0.119254 0.285238
vt 0.131845 0.277452
vt 0.131845 0.264476
vt 0.119254 0.268369
vt 0.131845 0.290428
vt 0.131845 0.251500
vt 0.119254 0.251500
vt 0.099996 0.251500
vt 0.087404 0.251500
vt 0.215440 0.016476
vt 0.220878 0.016476
vt 0.198146 0.246689
vt 0.192707 0.246689
vt 0.192707 0.265947
vt 0.198146 0.265947
vt 0.018705 0.075150
vt 0.018705 0.080588
vt 0.262846 0.073337
vt 0.257408 0.073337
vt 0.257408 0.090205
vt 0.262846 0.090205
vt 0.267900 0.134946
vt 0.273338 0.134946
vt 0.273338 0.120132
vt 0.267900 0.120132
vt 0.273338 0.105318
vt 0.267900 0.105318
vt 0.235550 0.303287
vt 0.240988 0.303287
vt 0.240988 0.286418
vt 0.235550 0.286418
vt 0.235550 0.320156
vt 0.240988 0.320156
vt 0.262846 0.056468
vt 0.257408 0.056468
vt 0.273338 0.090504
vt 0.267900 0.090504
vt 0.234206 0.305091
vt 0.234206 0.288222
vt 0.253464 0.305091
vt 0.253464 0.288222
vt 0.251242 0.327150
vt 0.253464 0.321960
vt 0.236428 0.327150
vt 0.234206 0.321960
vt 0.241904 0.320156
vt 0.241904 0.303287
vt 0.247108 0.303287
vt 0.247108 0.320156
vt 0.101681 0.308789
vt 0.086867 0.308789
vt 0.086867 0.303585
vt 0.101681 0.303585
vt 0.241904 0.286418
vt 0.247108 0.286418
vt 0.072053 0.308789
vt 0.072053 0.303585
vt 0.057239 0.308789
vt 0.057239 0.303585
vt 0.152680 0.308533
vt 0.152680 0.325402
vt 0.147476 0.325402
vt 0.147476 0.308533
vt 0.199062 0.265947
vt 0.199062 0.246689
vt 0.204266 0.246689
vt 0.204266 0.265947
vt 0.152680 0.291664
vt 0.147476 0.291664
vt 0.307181 0.225963
vt 0.324050 0.225963
vt 0.324050 0.206705
vt 0.307181 0.206705
vt 0.290312 0.206705
vt 0.285122 0.208927
vt 0.290312 0.225963
vt 0.285122 0.223741
vt 0.229242 0.056468
vt 0.234868 0.056468
vt 0.101681 0.290923
vt 0.101681 0.296548
vt 0.086867 0.296548
vt 0.086867 0.290923
vt 0.072053 0.290923
vt 0.072053 0.296548
vt 0.057239 0.296548
vt 0.057239 0.290923
vt 0.241862 0.090205
vt 0.236237 0.090205
vt 0.219130 0.198623
vt 0.213504 0.198623
vt 0.213504 0.179365
vt 0.219130 0.179365
vt 0.526799 0.907828
vt 0.523236 0.899505
vt 0.523236 0.872456
vt 0.550554 0.907828
vt 0.554117 0.899505
vt 0.554117 0.872456
vt 0.554117 0.845406
vt 0.523236 0.845406
vt 0.020288 0.062363
vt 0.020288 0.067473
vt 0.153690 0.308533
vt 0.158801 0.308533
vt 0.158801 0.291664
vt 0.153690 0.291664
vt 0.279022 0.100072
vt 0.273911 0.100072
vt 0.273911 0.114886
vt 0.279022 0.114886
vt 0.279022 0.085258
vt 0.273911 0.085258
vt 0.076613 0.082472
vt 0.076613 0.087582
vt 0.153690 0.325402
vt 0.158801 0.325402
vt 0.164921 0.291664
vt 0.159811 0.291664
vt 0.159811 0.308533
vt 0.164921 0.308533
vt 0.106340 0.251935
vt 0.101230 0.251935
vt 0.101230 0.271193
vt 0.106340 0.271193
vt 0.273911 0.129700
vt 0.279022 0.129700
vt 0.159811 0.325402
vt 0.164921 0.325402
vt 0.058190 0.526695
vt 0.031140 0.526695
vt 0.022817 0.530258
vt 0.085239 0.526695
vt 0.058190 0.557576
vt 0.085239 0.557576
vt 0.031140 0.557576
vt 0.022817 0.554013
vt 0.227873 0.035997
vt 0.222262 0.035997
vt 0.222262 0.016739
vt 0.227873 0.016739
vt 0.243246 0.056468
vt 0.248857 0.056468
vt 0.248857 0.073337
vt 0.243246 0.073337
vt 0.255852 0.090205
vt 0.250241 0.090205
vt 0.250241 0.073337
vt 0.255852 0.073337
vt 0.086867 0.297058
vt 0.086867 0.302669
vt 0.072053 0.302669
vt 0.072053 0.297058
vt 0.250241 0.056468
vt 0.255852 0.056468
vt 0.284685 0.015898
vt 0.323613 0.015898
vt 0.101681 0.297058
vt 0.101681 0.302669
vt 0.248857 0.090205
vt 0.243246 0.090205
vt 0.057239 0.302669
vt 0.057239 0.297058
vt 0.380789 0.586434
vt 0.389112 0.589997
vt 0.416162 0.589997
vt 0.380789 0.562679
vt 0.389112 0.559116
vt 0.401597 0.538925
vt 0.416162 0.559116
vt 0.422404 0.538925
vt 0.380789 0.538925
vt 0.443211 0.559116
vt 0.443211 0.538925
vt 0.443211 0.589997
vt 0.166119 0.308533
vt 0.166119 0.325402
vt 0.171041 0.325402
vt 0.171041 0.308533
vt 0.166119 0.291664
vt 0.171041 0.291664
vt 0.279345 0.223079
vt 0.279345 0.237893
vt 0.284268 0.237893
vt 0.284268 0.223079
vt 0.018854 0.073593
vt 0.018854 0.068671
vt 0.178910 0.402343
vt 0.178910 0.385474
vt 0.173988 0.385474
vt 0.173988 0.402343
vt 0.178910 0.368605
vt 0.173988 0.368605
vt 0.078685 0.074991
vt 0.083608 0.074991
vt 0.083608 0.087582
vt 0.078685 0.087582
vt 0.107538 0.251935
vt 0.107538 0.271193
vt 0.112461 0.271193
vt 0.112461 0.251935
vt 0.171093 0.705276
vt 0.167530 0.696953
vt 0.143775 0.696953
vt 0.140212 0.705276
vt 0.140212 0.732325
vt 0.171093 0.732325
vt 0.171093 0.759375
vt 0.140212 0.759375
vt 0.012797 0.302669
vt 0.012797 0.297058
vt 0.146123 0.297058
vt 0.146123 0.302669
vt 0.279022 0.174142
vt 0.273911 0.174142
vt 0.279022 0.016169
vt 0.273911 0.016169
vt 0.267900 0.016252
vt 0.273338 0.016252
vt 0.267900 0.179388
vt 0.273338 0.179388
vt 0.146123 0.303585
vt 0.146123 0.308789
vt 0.012797 0.308789
vt 0.012797 0.303585
vt 0.012797 0.296548
vt 0.012797 0.290923
vt 0.146123 0.296548
vt 0.146123 0.290923
vt 0.992179 0.653033
vt 0.992179 0.622152
vt 0.018074 0.200602
vt 0.018074 0.245044
vt 0.776304 0.649118
vt 0.776304 0.618238
vt 0.380789 0.434252
vt 0.013152 0.290428
vt 0.013152 0.251500
vt 0.176287 0.290428
vt 0.176287 0.251500
s 0
usemtl Material
f 84/1/1 22/2/1 4/3/1 23/4/1
f 5/5/1 36/6/1 28/7/1 3/8/1
f 36/6/1 44/9/1 27/10/1 28/7/1
f 44/9/1 52/11/1 26/12/1 27/10/1
f 68/13/1 76/14/1 24/15/1 25/16/1
f 76/14/1 84/1/1 23/4/1 24/15/1
f 1/17/1 9/18/1 29/19/1 8/20/1
f 212/21/2 92/22/2 8/23/2 208/24/2
f 199/25/1 36/6/1 5/5/1 200/26/1
f 9/18/1 10/27/1 37/28/1 29/19/1
f 48/29/1 329/30/1 333/31/1 49/32/1 41/33/1 40/34/1
f 333/31/1 329/30/1 241/35/1 242/36/1
f 31/37/1 39/38/1 40/34/1 32/39/1
f 32/39/1 40/34/1 41/33/1 33/40/1
f 33/40/1 41/33/1 42/41/1 34/42/1
f 283/43/1 379/44/1 377/45/1 284/46/1
f 377/47/1 379/48/1 183/49/1 190/49/1 84/1/1 76/14/1 181/50/1
f 10/27/1 11/51/1 45/52/1 37/28/1
f 29/19/1 207/53/1 208/54/1 8/20/1
f 230/55/1 229/56/1 365/57/1 369/58/1
f 201/59/1 202/60/1 52/11/1 44/9/1
f 191/61/3 195/62/3 131/63/3 53/64/3
f 58/65/1 164/66/1 217/67/1 218/68/1 165/69/1 59/70/1
f 54/71/1 192/72/1 191/73/1 53/74/1
f 53/74/1 57/75/1 58/65/1 54/71/1
f 54/71/1 58/65/1 59/70/1 55/76/1
f 55/76/1 59/70/1 60/77/1 56/78/1
f 163/79/3 57/80/3 133/81/3 167/82/3
f 82/83/1 180/84/1 283/43/1 284/46/1 75/85/1 74/86/1
f 58/65/1 57/75/1 163/87/1 164/66/1
f 12/88/1 13/89/1 69/90/1 61/91/1
f 174/92/4 15/93/4 99/94/4 177/95/4
f 30/96/1 260/97/1 259/98/1 38/99/1 39/38/1 31/37/1
f 104/100/4 22/101/4 189/102/4 186/103/4
f 13/89/1 14/104/1 77/105/1 69/90/1
f 335/106/1 295/107/1 296/108/1 354/109/1
f 71/110/1 79/111/1 80/112/1 72/113/1
f 260/97/1 322/114/1 312/115/1 259/98/1
f 73/116/1 81/117/1 82/83/1 74/86/1
f 272/118/1 271/119/1 308/120/1 310/121/1
f 14/104/1 2/122/1 15/123/1 77/105/1
f 173/124/1 77/105/1 15/123/1 174/125/1
f 102/126/5 162/127/5 158/128/5 20/129/5
f 157/130/1 19/131/1 20/132/1 158/133/1
f 27/134/5 26/135/5 108/136/5 109/137/5 110/138/5 87/139/5 3/140/5 28/141/5
f 189/142/1 22/2/1 84/1/1 190/49/1
f 54/71/1 55/76/1 193/143/1 242/144/1 241/145/1 192/72/1
f 35/146/5 116/147/5 90/148/5 6/149/5
f 52/150/4 202/151/4 205/135/4 130/152/4
f 182/153/2 68/154/2 142/155/2 185/156/2
f 57/80/3 53/64/3 131/63/3 133/81/3
f 37/28/1 45/52/1 210/157/1 209/158/1
f 9/159/3 1/160/3 85/161/3 93/162/3
f 112/163/2 111/164/2 255/165/2 256/166/2 30/167/2 31/168/2
f 10/169/3 9/159/3 93/162/3 94/170/3
f 31/168/2 32/171/2 113/172/2 112/163/2
f 60/173/5 134/174/5 132/175/5 56/176/5
f 11/177/3 10/169/3 94/170/3 95/178/3
f 144/179/2 143/180/2 291/181/2 292/182/2 70/183/2 71/184/2
f 32/171/2 33/185/2 114/186/2 113/172/2
f 71/184/2 72/187/2 145/188/2 144/179/2
f 33/185/2 34/189/2 115/190/2 114/186/2
f 155/191/1 17/192/1 18/193/1 156/194/1
f 34/189/2 35/195/2 116/196/2 115/190/2
f 73/197/2 74/198/2 147/199/2 146/200/2
f 13/201/3 12/202/3 96/203/3 97/204/3
f 74/198/2 75/205/2 280/206/2 279/207/2 148/208/2 147/199/2
f 59/70/1 165/69/1 166/209/1 60/77/1
f 14/210/3 13/201/3 97/204/3 98/211/3
f 17/212/3 155/213/3 159/214/3 101/215/3
f 15/93/4 2/216/4 86/217/4 99/94/4
f 46/218/1 38/219/1 209/220/1 210/221/1
f 21/222/5 103/223/5 154/224/5 83/225/5
f 69/90/1 171/226/1 172/227/1 61/91/1
f 39/228/4 38/229/4 257/230/4 258/231/4 117/232/4 118/233/4
f 134/174/5 60/173/5 166/234/5 170/235/5
f 119/236/3 126/237/3 328/238/3 327/239/3 48/240/3 40/241/3
f 39/228/4 118/233/4 119/242/4 40/243/4
f 41/244/5 49/245/5 324/246/5 323/247/5 127/248/5 120/249/5
f 79/250/4 78/251/4 293/252/4 294/253/4 149/254/4 150/255/4
f 41/256/4 120/257/4 121/258/4 42/259/4
f 6/260/6 200/261/6 199/262/6 35/263/6
f 42/259/4 121/258/4 122/264/4 43/265/4
f 70/266/1 62/267/1 172/268/1 171/269/1
f 1/270/2 8/23/2 92/22/2 85/271/2
f 76/14/1 68/13/1 182/272/1 181/50/1
f 2/273/3 14/210/3 98/211/3 86/274/3
f 154/275/4 282/276/4 281/277/4 180/278/4 82/279/4 153/280/4
f 52/150/4 130/152/4 108/281/4 26/282/4
f 72/283/3 64/284/3 346/285/3 340/286/3 138/287/3 145/288/3
f 23/289/5 4/290/5 88/291/5 105/292/5
f 4/156/4 22/101/4 104/100/4 88/293/4
f 68/154/2 25/294/2 107/102/2 142/155/2
f 11/295/4 95/296/4 123/297/4 45/298/4
f 146/299/5 139/300/5 345/301/5 339/302/5 65/303/5 73/304/5
f 24/305/5 23/289/5 105/292/5 106/306/5
f 55/76/1 56/78/1 194/307/1 193/143/1
f 12/308/2 61/309/2 135/310/2 96/92/2
f 123/297/4 213/311/4 210/312/4 45/298/4
f 25/313/5 24/305/5 106/306/5 107/314/5
f 5/315/2 3/316/2 87/151/2 89/317/2
f 135/310/2 61/309/2 172/318/2 176/216/2
f 75/319/1 181/320/1 182/321/1 67/322/1
f 204/323/4 200/324/4 6/325/4 90/326/4
f 132/175/5 198/327/5 194/328/5 56/176/5
f 65/329/6 165/330/6 166/331/6 66/332/6
f 18/333/4 17/334/4 101/335/4 102/336/4 20/337/4 19/338/4
f 162/339/2 161/340/2 360/341/2 359/342/2 157/343/2 158/344/2
f 159/345/2 155/346/2 156/347/2 363/348/2 364/349/2 160/350/2
f 150/351/5 79/352/5 155/353/5 159/354/5
f 79/355/4 150/356/4 151/357/4 234/358/4 233/359/4 80/360/4
f 82/361/3 153/362/3 162/363/3 158/364/3
f 81/117/6 82/83/6 158/365/6 157/366/6
f 79/111/6 80/112/6 156/367/6 155/368/6
f 234/358/4 235/369/4 236/370/4 233/359/4
f 29/19/1 37/28/1 209/158/1 312/371/1 322/372/1 207/53/1
f 165/373/4 220/374/4 219/375/4 169/376/4 170/377/4 166/62/4
f 163/378/4 167/379/4 168/380/4 222/381/4 221/382/4 164/383/4
f 63/384/6 163/385/6 164/386/6 64/387/6
f 66/388/3 166/389/3 170/390/3 140/391/3
f 137/392/5 167/393/5 163/394/5 63/395/5
f 218/396/1 217/397/1 344/398/1 336/399/1
f 177/400/5 178/401/5 358/402/5 357/403/5 173/404/5 174/405/5
f 172/406/5 171/407/5 356/408/5 355/409/5 175/410/5 176/273/5
f 16/411/1 78/412/1 173/413/1 174/414/1
f 62/415/4 172/416/4 176/417/4 136/418/4
f 100/419/2 177/420/2 174/421/2 16/422/2
f 83/423/1 21/423/1 179/423/1 180/423/1
f 180/424/1 179/425/1 189/426/1 190/427/1
f 103/428/2 21/429/2 188/430/2 186/431/2
f 141/432/1 148/433/1 184/434/1 185/435/1
f 67/436/4 141/437/4 185/438/4 182/439/4
f 103/440/1 186/441/1 187/442/1 154/443/1
f 193/444/2 194/445/2 198/446/2 197/447/2
f 191/448/2 192/444/2 196/447/2 195/449/2
f 49/32/6 50/450/6 194/451/6 193/452/6
f 125/453/5 47/454/5 191/455/5 195/456/5
f 47/457/6 48/29/6 192/458/6 191/459/6
f 50/460/3 128/461/3 198/462/3 194/463/3
f 202/464/3 201/465/3 206/466/3 205/316/3
f 129/467/2 51/468/2 202/469/2 205/470/2
f 122/471/1 129/472/1 205/473/1 206/474/1
f 51/475/6 43/476/6 201/477/6 202/478/6
f 116/479/1 203/480/1 204/481/1 90/482/1
f 36/6/1 199/25/1 310/483/1 308/484/1 201/59/1 44/9/1
f 30/485/1 7/486/1 208/487/1 207/488/1
f 42/41/1 43/476/1 271/119/1 272/118/1 35/263/1 34/42/1
f 124/489/2 213/490/2 210/491/2 46/492/2
f 7/493/4 208/494/4 212/495/4 91/496/4
f 51/497/5 129/498/5 122/499/5 43/500/5
f 38/501/3 117/502/3 124/503/3 46/504/3
f 7/505/3 91/506/3 111/507/3 30/508/3
f 125/509/4 126/510/4 328/511/4 327/512/4 48/513/4 47/514/4
f 128/515/4 50/516/4 49/517/4 324/518/4 323/519/4 127/520/4
f 200/521/2 5/315/2 89/317/2 204/282/2
f 204/522/3 203/281/3 199/282/3 200/523/3
f 137/524/2 63/525/2 64/526/2 346/527/2 340/528/2 138/529/2
f 66/530/2 140/531/2 139/532/2 345/533/2 339/534/2 65/535/2
f 75/536/5 148/537/5 141/538/5 67/539/5
f 62/540/3 136/541/3 143/542/3 70/543/3
f 78/544/3 149/545/3 100/546/3 16/547/3
f 190/548/3 381/549/3 382/550/3 187/551/3 186/313/3 189/552/3
f 151/357/4 228/553/4 235/369/4 234/358/4
f 286/554/5 276/555/5 282/556/5 154/557/5
f 250/558/2 242/559/2 193/560/2 244/561/2
f 274/562/5 264/563/5 270/564/5 122/565/5
f 264/563/5 263/566/5 269/567/5 270/564/5
f 233/359/4 236/370/4 229/568/4 80/360/4
f 218/569/5 336/570/5 349/571/5 226/572/5
f 223/573/3 348/574/3 347/575/3 224/576/3
f 217/397/6 344/398/6 64/387/6 164/386/6
f 238/577/4 232/578/4 81/579/4 230/580/4
f 165/330/6 65/329/6 336/399/6 218/396/6
f 228/553/4 227/581/4 237/582/4 235/369/4
f 227/581/4 152/583/4 231/584/4 237/582/4
f 237/582/4 231/584/4 232/578/4 238/577/4
f 245/585/2 192/586/2 241/587/2 248/588/2
f 196/589/2 246/590/2 247/591/2 240/592/2
f 246/590/2 245/585/2 248/588/2 247/591/2
f 240/592/2 247/591/2 249/593/2 239/594/2
f 239/594/2 249/593/2 243/595/2 197/449/2
f 249/593/2 250/558/2 244/561/2 243/595/2
f 252/596/3 258/597/3 257/598/3 251/599/3
f 262/600/3 117/601/3 258/597/3 252/596/3
f 261/602/3 262/600/3 252/596/3 254/603/3
f 255/604/3 254/603/3 253/605/3 256/606/3
f 111/607/3 261/602/3 254/603/3 255/604/3
f 256/606/3 253/605/3 260/608/3 30/609/3
f 251/599/3 257/598/3 38/610/3 259/611/3
f 273/612/5 266/613/5 264/563/5 274/562/5
f 267/614/5 268/615/5 265/616/5 266/613/5
f 116/617/5 267/614/5 266/613/5 273/612/5
f 268/615/5 35/618/5 272/619/5 265/616/5
f 263/566/5 271/620/5 43/621/5 269/567/5
f 276/555/5 275/622/5 281/623/5 282/556/5
f 285/624/5 278/625/5 276/555/5 286/554/5
f 279/626/5 280/627/5 277/628/5 278/625/5
f 148/629/5 279/626/5 278/625/5 285/624/5
f 280/627/5 75/630/5 284/631/5 277/628/5
f 275/622/5 283/632/5 83/633/5 281/623/5
f 298/634/3 149/635/3 294/636/3 288/637/3
f 288/637/3 294/636/3 293/638/3 287/639/3
f 297/640/3 298/634/3 288/637/3 290/641/3
f 291/642/3 290/641/3 289/643/3 292/644/3
f 143/645/3 297/640/3 290/641/3 291/642/3
f 292/644/3 289/643/3 296/646/3 70/647/3
f 287/639/3 293/638/3 78/648/3 295/649/3
f 307/650/3 206/466/3 305/651/3 299/652/3
f 299/652/3 305/651/3 306/653/3 300/654/3
f 309/655/3 307/650/3 299/652/3 301/656/3
f 302/657/3 301/656/3 303/658/3 304/659/3
f 203/660/3 309/655/3 301/656/3 302/657/3
f 304/659/3 303/658/3 310/661/3 199/662/3
f 300/654/3 306/653/3 201/663/3 308/664/3
f 265/665/2 272/666/2 310/667/2 303/668/2
f 272/118/6 35/263/6 199/262/6 310/121/6
f 264/669/6 266/670/6 301/671/6 299/672/6
f 116/479/1 273/673/1 309/674/1 203/480/1
f 273/673/1 274/675/1 307/676/1 309/674/1
f 43/476/6 271/119/6 308/120/6 201/477/6
f 271/677/4 263/678/4 300/679/4 308/680/4
f 263/678/4 264/681/4 299/682/4 300/679/4
f 266/683/2 265/665/2 303/668/2 301/684/2
f 274/675/1 122/471/1 206/474/1 307/676/1
f 316/685/5 314/686/5 313/687/5 315/688/5
f 320/689/5 316/685/5 315/688/5 214/690/5
f 321/691/5 317/692/5 316/685/5 320/689/5
f 319/693/5 311/694/5 318/695/5 317/692/5
f 211/696/5 319/693/5 317/692/5 321/691/5
f 311/694/5 207/697/5 322/698/5 318/695/5
f 314/686/5 312/699/5 209/700/5 313/687/5
f 38/219/1 259/701/1 312/702/1 209/220/1
f 252/703/6 316/704/6 317/705/6 254/706/6
f 260/707/1 30/485/1 207/488/1 322/708/1
f 253/709/2 318/710/2 322/711/2 260/712/2
f 111/713/1 211/714/1 321/715/1 261/716/1
f 261/716/1 321/715/1 320/717/1 262/718/1
f 251/719/4 314/720/4 316/721/4 252/722/4
f 259/723/4 312/724/4 314/720/4 251/719/4
f 254/725/2 317/726/2 318/710/2 253/709/2
f 262/718/1 320/717/1 214/727/1 117/728/1
f 332/729/4 324/518/4 49/517/4 333/730/4
f 327/512/4 330/731/4 329/732/4 48/513/4
f 126/510/4 326/733/4 331/734/4 328/511/4
f 328/511/4 331/734/4 330/731/4 327/512/4
f 326/733/4 325/735/4 334/736/4 331/734/4
f 325/735/4 127/520/4 323/519/4 334/736/4
f 334/736/4 323/519/4 324/518/4 332/729/4
f 242/737/5 250/738/5 332/739/5 333/740/5
f 196/741/1 240/742/1 326/743/1 126/744/1
f 250/738/5 249/745/5 334/746/5 332/739/5
f 241/35/6 192/458/6 48/29/6 329/30/6
f 240/742/1 239/747/1 325/748/1 326/743/1
f 239/747/1 197/749/1 127/750/1 325/748/1
f 248/751/3 241/752/3 329/753/3 330/754/3
f 249/755/6 247/756/6 331/757/6 334/758/6
f 247/759/3 248/751/3 330/754/3 331/760/3
f 193/452/6 242/36/6 333/31/6 49/32/6
f 349/761/2 336/762/2 65/535/2 339/534/2
f 346/527/2 64/526/2 344/763/2 347/764/2
f 138/529/2 340/528/2 348/765/2 338/766/2
f 340/528/2 346/527/2 347/764/2 348/765/2
f 338/766/2 348/765/2 350/767/2 342/768/2
f 342/768/2 350/767/2 345/533/2 139/532/2
f 350/767/2 349/761/2 339/534/2 345/533/2
f 226/572/5 349/571/5 350/769/5 225/770/5
f 168/771/1 138/772/1 338/773/1 216/774/1
f 215/775/1 342/776/1 139/777/1 169/778/1
f 224/576/3 347/575/3 344/779/3 217/780/3
f 216/774/1 338/773/1 342/776/1 215/775/1
f 225/781/6 350/782/6 348/783/6 223/784/6
f 343/785/5 341/786/5 358/402/5 178/401/5
f 341/786/5 337/787/5 357/403/5 358/402/5
f 353/788/5 352/789/5 341/786/5 343/785/5
f 355/409/5 356/408/5 351/790/5 352/789/5
f 175/410/5 355/409/5 352/789/5 353/788/5
f 356/408/5 171/407/5 354/791/5 351/790/5
f 337/787/5 335/792/5 173/404/5 357/403/5
f 296/793/1 70/266/1 171/269/1 354/794/1
f 287/795/4 337/796/4 341/797/4 288/798/4
f 297/799/1 353/800/1 343/801/1 298/802/1
f 143/803/1 175/804/1 353/800/1 297/799/1
f 78/412/1 295/805/1 335/806/1 173/413/1
f 295/807/4 335/808/4 337/796/4 287/795/4
f 290/809/2 352/810/2 351/811/2 289/812/2
f 288/813/6 341/814/6 352/815/6 290/816/6
f 298/802/1 343/801/1 178/817/1 149/818/1
f 289/812/2 351/811/2 354/819/2 296/820/2
f 364/349/2 363/348/2 366/821/2 367/822/2
f 160/350/2 364/349/2 367/822/2 361/823/2
f 363/348/2 156/347/2 365/824/2 366/821/2
f 368/825/2 369/826/2 157/343/2 359/342/2
f 361/823/2 367/822/2 370/827/2 362/828/2
f 362/828/2 370/827/2 360/341/2 161/340/2
f 370/827/2 368/825/2 359/342/2 360/341/2
f 237/829/6 370/830/6 367/831/6 235/832/6
f 229/56/6 365/57/6 156/367/6 80/112/6
f 235/833/3 367/834/3 366/835/3 236/836/3
f 230/837/5 369/838/5 368/839/5 238/840/5
f 228/841/1 361/842/1 362/843/1 227/844/1
f 81/117/6 157/366/6 369/58/6 230/55/6
f 238/840/5 368/839/5 370/845/5 237/846/5
f 81/579/4 232/578/4 231/584/4 152/583/4 153/847/4 82/848/4
f 151/849/1 160/850/1 361/842/1 228/841/1
f 236/836/3 366/835/3 365/851/3 229/852/3
f 227/844/1 362/843/1 161/853/1 152/854/1
f 380/855/3 187/551/3 382/550/3 375/856/3
f 375/856/3 382/550/3 381/549/3 376/857/3
f 378/858/3 380/855/3 375/856/3 372/859/3
f 371/860/3 372/859/3 374/861/3 373/862/3
f 184/863/3 378/858/3 372/859/3 371/860/3
f 373/862/3 374/861/3 377/864/3 181/865/3
f 376/857/3 381/549/3 183/548/3 379/866/3
f 277/867/2 284/868/2 377/869/2 374/870/2
f 278/871/2 277/867/2 374/870/2 372/872/2
f 285/873/1 286/874/1 380/875/1 378/876/1
f 284/877/1 377/878/1 181/320/1 75/319/1
f 283/879/4 275/880/4 376/881/4 379/882/4
f 148/433/1 285/873/1 378/876/1 184/434/1
f 275/880/4 276/883/4 375/884/4 376/881/4
f 83/885/1 183/886/1 379/887/1 283/888/1
f 276/889/6 278/890/6 372/891/6 375/892/6
f 286/874/1 154/443/1 187/442/1 380/875/1
f 219/375/4 225/893/4 215/894/4 169/376/4
f 216/895/4 215/894/4 225/893/4 223/896/4
f 223/896/4 222/381/4 168/380/4 216/895/4
f 221/382/4 222/381/4 223/896/4 224/897/4
f 219/375/4 220/374/4 226/898/4 225/893/4
f 226/898/4 220/374/4 165/373/4 218/899/4
f 221/382/4 224/897/4 217/900/4 164/383/4
f 152/854/1 161/853/1 162/901/1 153/902/1
f 150/903/1 159/904/1 160/850/1 151/849/1
f 100/905/1 149/818/1 178/817/1 177/906/1
f 143/803/1 136/907/1 176/908/1 175/804/1
f 124/909/1 117/728/1 214/727/1 213/910/1
f 111/713/1 91/911/1 212/912/1 211/714/1
f 125/913/1 195/914/1 196/741/1 126/744/1
f 127/750/1 197/749/1 198/915/1 128/916/1
f 139/777/1 140/917/1 170/918/1 169/778/1
f 137/919/1 138/772/1 168/771/1 167/920/1
f 156/194/1 18/193/1 19/131/1 157/130/1 369/921/1 365/922/1
f 73/116/1 72/113/1 80/112/1 229/56/1 230/55/1 81/117/1
f 73/116/1 65/329/1 336/399/1 344/398/1 64/387/1 72/113/1
f 70/923/1 296/108/1 295/107/1 78/924/1 79/111/1 71/110/1
f 69/90/1 77/105/1 173/124/1 335/925/1 354/926/1 171/226/1
f 185/927/3 184/863/3 371/860/3 373/862/3 181/865/3 182/103/3
f 213/928/5 214/690/5 315/688/5 313/687/5 209/700/5 210/929/5
f 212/930/5 208/931/5 207/697/5 311/694/5 319/693/5 211/696/5
