# Blender 5.0.1
# www.blender.org
mtllib NEWSHIRT.mtl
o Cylinder
v 0.006257 0.009202 -0.211685
v -0.001705 0.036308 -0.190680
v 0.028519 0.009375 -0.210740
v 0.018082 0.034463 -0.189665
v 0.046872 0.010313 -0.207618
v 0.035158 0.035658 -0.190755
v 0.062886 0.010109 -0.199873
v 0.048137 0.036944 -0.188554
v 0.076042 0.010562 -0.189668
v 0.058883 0.037128 -0.182123
v 0.086027 0.011606 -0.178053
v 0.065802 0.036259 -0.172184
v 0.091755 0.012730 -0.163631
v 0.069048 0.035546 -0.160326
v 0.092803 0.013006 -0.146568
v 0.070099 0.034862 -0.146229
v 0.092624 0.013475 -0.128567
v 0.071816 0.034457 -0.131275
v 0.091278 0.013747 -0.110083
v 0.073255 0.034746 -0.116446
v 0.084216 0.014505 -0.091542
v 0.067668 0.036383 -0.101844
v 0.070509 0.017801 -0.076541
v 0.053973 0.039710 -0.092338
v 0.058322 0.022556 -0.064931
v 0.041773 0.043703 -0.083821
v 0.049006 0.020998 -0.050520
v 0.035323 0.045076 -0.074111
v 0.033936 0.015208 -0.035804
v 0.030786 0.042423 -0.062847
v 0.013547 0.012718 -0.027792
v 0.019741 0.037491 -0.051553
v -0.040492 0.006247 -0.022304
v -0.025899 0.037354 -0.046336
v -0.060930 0.013295 -0.035676
v -0.046047 0.045042 -0.055040
v -0.072547 0.023016 -0.052868
v -0.060167 0.047989 -0.063781
v -0.080658 0.022950 -0.063308
v -0.067224 0.045525 -0.070087
v -0.087131 0.016579 -0.075719
v -0.070302 0.041558 -0.078303
v -0.088670 0.015326 -0.092729
v -0.071422 0.037731 -0.091012
v -0.089253 0.016194 -0.111674
v -0.070801 0.039179 -0.106372
v -0.092268 0.012817 -0.128693
v -0.072906 0.037398 -0.121082
v -0.090763 0.010865 -0.145523
v -0.074577 0.034985 -0.134025
v -0.085117 0.010809 -0.161463
v -0.072412 0.034177 -0.146547
v -0.078177 0.011176 -0.176513
v -0.066679 0.035109 -0.158056
v -0.069178 0.011811 -0.189881
v -0.059623 0.036819 -0.169300
v -0.055987 0.012665 -0.201571
v -0.051013 0.038858 -0.179505
v -0.038240 0.013028 -0.210050
v -0.038481 0.040725 -0.188044
v -0.016653 0.011822 -0.213279
v -0.021075 0.039873 -0.192144
v 0.018624 0.034460 -0.197784
v -0.002118 0.036446 -0.199091
v 0.036625 0.035776 -0.198719
v 0.050780 0.037033 -0.195887
v 0.063102 0.037026 -0.188394
v 0.071852 0.036174 -0.177413
v 0.076315 0.035615 -0.164050
v 0.077610 0.035020 -0.148621
v 0.078878 0.034539 -0.132207
v 0.080281 0.034766 -0.116181
v 0.075758 0.035831 -0.099758
v 0.061738 0.038900 -0.088429
v 0.048689 0.043497 -0.079280
v 0.041968 0.044978 -0.068834
v 0.035967 0.041508 -0.056053
v 0.021833 0.035713 -0.043739
v -0.030160 0.033721 -0.037151
v -0.052228 0.042951 -0.048528
v -0.066168 0.046979 -0.059545
v -0.073675 0.044757 -0.066847
v -0.077495 0.040911 -0.075469
v -0.079048 0.037212 -0.088380
v -0.078168 0.038483 -0.104709
v -0.080401 0.036847 -0.120762
v -0.082091 0.034482 -0.134977
v -0.079054 0.034048 -0.149125
v -0.072577 0.035104 -0.162311
v -0.064823 0.036832 -0.175096
v -0.055063 0.038974 -0.186513
v -0.041205 0.040822 -0.195853
v -0.022669 0.040076 -0.200477
v 0.017290 0.021337 -0.186915
v -0.001652 0.022985 -0.187706
v 0.033711 0.022235 -0.187335
v 0.046136 0.023340 -0.184937
v 0.056326 0.023517 -0.178652
v 0.062907 0.022941 -0.169267
v 0.066120 0.022152 -0.158197
v 0.067579 0.021325 -0.144852
v 0.069543 0.021008 -0.130537
v 0.070856 0.021220 -0.116232
v 0.065523 0.023238 -0.101884
v 0.052784 0.026548 -0.092226
v 0.041758 0.030184 -0.084244
v 0.035703 0.031899 -0.075390
v 0.030944 0.030113 -0.064674
v 0.020142 0.025391 -0.053718
v -0.023598 0.023518 -0.047804
v -0.042301 0.027277 -0.053329
v -0.055503 0.033378 -0.063163
v -0.062898 0.032973 -0.070172
v -0.066597 0.028690 -0.078904
v -0.068032 0.024100 -0.092078
v -0.067475 0.026428 -0.106637
v -0.069432 0.024665 -0.120725
v -0.071074 0.021983 -0.133074
v -0.069164 0.020656 -0.145072
v -0.063524 0.021545 -0.156156
v -0.056595 0.023304 -0.166961
v -0.048505 0.025321 -0.176816
v -0.036719 0.027067 -0.185049
v -0.020086 0.026272 -0.188920
v -0.167044 0.020941 0.153877
v -0.166934 -0.026546 0.155286
v 0.168084 0.023038 0.146073
v 0.166400 -0.021884 0.142165
v 0.160241 -0.007474 0.139508
v -0.159532 -0.009754 0.155333
v -0.159564 0.001773 0.154828
v 0.162443 0.003834 0.141643
v -0.130610 -0.008781 0.128206
v -0.158957 -0.014931 -0.200722
v -0.159040 -0.011982 -0.200769
v -0.130802 0.000961 0.127573
v 0.166782 -0.002121 -0.195840
v 0.166764 -0.006476 -0.195836
v -0.131792 -0.012635 -0.166211
v -0.130758 -0.011340 -0.165701
v 0.134341 -0.002124 -0.168694
v 0.133199 -0.005326 -0.168375
v 0.132331 -0.000628 0.122709
v 0.132061 -0.009578 0.122965
v -0.163106 0.018517 0.206884
v -0.167827 0.018476 0.202180
v -0.167370 -0.029357 0.202932
v -0.162624 -0.029292 0.207643
v -0.169848 0.013833 -0.197109
v -0.164758 0.013556 -0.201659
v -0.164392 -0.029409 -0.201240
v -0.169354 -0.029286 -0.196613
v 0.166908 0.022232 0.199082
v 0.162082 0.023253 0.204294
v 0.161996 -0.023870 0.204598
v 0.166764 -0.023870 0.199830
v 0.162110 0.023944 -0.204619
v 0.166819 0.023906 -0.199840
v 0.166763 -0.023870 -0.199830
v 0.161992 -0.023871 -0.204595
v -0.167744 -0.006809 0.202989
v -0.162983 -0.006179 0.207713
v -0.169611 -0.014427 -0.196360
v -0.164556 -0.014633 -0.200949
v 0.161994 -0.006476 -0.204597
v 0.166764 -0.006476 -0.199830
v 0.162047 -0.000169 0.204318
v 0.166877 -0.001424 0.198734
v -0.164694 -0.004390 -0.201025
v -0.169788 -0.004145 -0.196455
v 0.166770 -0.002129 -0.199832
v 0.162029 -0.002112 -0.204604
v 0.166956 0.009078 0.198423
v 0.162116 0.010895 0.204056
v -0.167838 0.004992 0.202704
v -0.163088 0.005631 0.207411
v -0.032504 -0.014110 -0.161421
v 0.053947 -0.014718 -0.159312
v -0.162073 0.008110 0.154505
v -0.164572 0.014510 0.154186
v 0.165338 0.010074 0.143111
v 0.167218 0.016603 0.144731
v -0.052023 -0.019729 0.146385
v 0.060082 -0.019807 0.141796
v 0.031642 0.030794 0.168380
v -0.032787 0.027690 0.174094
v 0.163962 -0.017422 0.139942
v 0.161902 -0.012928 0.138830
v -0.164462 -0.021028 0.155432
v -0.161997 -0.015436 0.155445
v -0.140792 -0.014132 -0.177234
v -0.149776 -0.015028 -0.188646
v -0.159544 -0.005948 0.155193
v -0.159555 -0.002105 0.155023
v 0.160738 -0.004010 0.139856
v 0.161472 -0.000230 0.140615
v -0.130677 -0.005552 0.128045
v -0.130741 -0.002305 0.127833
v 0.155698 -0.005910 -0.186750
v 0.144403 -0.005503 -0.177583
v -0.150437 0.001815 0.146217
v -0.140810 0.001562 0.137109
v -0.150410 -0.009159 0.146832
v -0.140751 -0.008794 0.137838
v -0.131448 -0.009830 -0.166030
v -0.131103 -0.006993 -0.165860
v -0.140086 -0.012417 -0.176870
v -0.149465 -0.012769 -0.188479
v 0.156127 -0.001923 -0.186850
v 0.145238 -0.001897 -0.177792
v 0.142717 -0.009864 0.130611
v 0.153179 -0.006621 0.136913
v 0.155588 0.004002 0.138023
v 0.144054 -0.000243 0.130899
v 0.120826 -0.002487 -0.064909
v 0.127398 0.006559 0.025512
v 0.122318 -0.011016 -0.065952
v 0.131774 -0.005364 0.027140
v 0.133573 -0.001863 -0.168479
v 0.133954 0.001611 -0.168586
v 0.132160 -0.006753 0.122820
v 0.132255 -0.003791 0.122731
v 0.159313 -0.011136 -0.076121
v 0.160374 -0.006617 0.035484
v 0.153726 -0.001588 -0.076247
v 0.158704 0.005288 0.034584
v -0.105716 -0.010581 0.044350
v -0.113941 0.004299 -0.065577
v -0.106983 -0.017819 0.046323
v -0.119266 -0.004105 -0.066048
v -0.033589 -0.015924 -0.161911
v 0.052842 -0.016765 -0.159958
v -0.166161 -0.006617 0.204573
v -0.164573 -0.006406 0.206148
v -0.162873 -0.014081 0.207793
v -0.162749 -0.021779 0.207765
v -0.164205 -0.029331 0.206080
v -0.165788 -0.029353 0.204510
v -0.167506 -0.022025 0.203041
v -0.167636 -0.014516 0.203065
v -0.168089 -0.004245 -0.197987
v -0.166390 -0.004327 -0.199510
v -0.164753 0.001385 -0.201167
v -0.164779 0.007361 -0.201380
v -0.166458 0.013630 -0.200150
v -0.168155 0.013723 -0.198633
v -0.169881 0.007630 -0.196827
v -0.169856 0.001645 -0.196607
v 0.163609 -0.002118 -0.203013
v 0.165190 -0.002123 -0.201422
v 0.166787 0.011363 -0.199835
v 0.166803 0.017634 -0.199837
v 0.165249 0.023918 -0.201433
v 0.163679 0.023931 -0.203026
v 0.162083 0.017665 -0.204614
v 0.162056 0.011387 -0.204609
v 0.165347 0.009745 0.200340
v 0.163733 0.010358 0.202224
v 0.162115 0.014925 0.204094
v 0.162103 0.019049 0.204183
v 0.163691 0.022959 0.202577
v 0.165300 0.022612 0.200837
v 0.166938 0.017664 0.198807
v 0.166956 0.013266 0.198566
v -0.166260 0.005190 0.204282
v -0.164676 0.005403 0.205852
v -0.163061 0.001657 0.207534
v -0.163026 -0.002281 0.207636
v -0.167786 -0.002914 0.202916
v -0.167817 0.001021 0.202821
v -0.167696 -0.029341 -0.198162
v -0.166042 -0.029382 -0.199705
v -0.164435 -0.024532 -0.201096
v -0.164490 -0.019615 -0.200997
v -0.166236 -0.014582 -0.199428
v -0.167922 -0.014513 -0.197898
v -0.169518 -0.019436 -0.196397
v -0.169432 -0.024380 -0.196483
v 0.163583 -0.023870 -0.203007
v 0.165173 -0.023870 -0.201419
v 0.166764 -0.018072 -0.199830
v 0.166764 -0.012274 -0.199830
v 0.165174 -0.006476 -0.201420
v 0.163585 -0.006476 -0.203008
v 0.161993 -0.012275 -0.204596
v 0.161992 -0.018073 -0.204595
v 0.165174 -0.023870 0.201420
v 0.163585 -0.023870 0.203009
v 0.161996 -0.015913 0.204598
v 0.161997 -0.007958 0.204590
v 0.163663 -0.000528 0.202506
v 0.165275 -0.000952 0.200634
v 0.166798 -0.008498 0.199413
v 0.166764 -0.016105 0.199830
v 0.162079 0.003510 0.204175
v 0.162103 0.007183 0.204083
v 0.166941 0.005486 0.198409
v 0.166913 0.002006 0.198514
v -0.166259 0.018479 0.203756
v -0.164685 0.018492 0.205325
v -0.163112 0.014192 0.207079
v -0.163106 0.009895 0.207256
v -0.167849 0.009454 0.202551
v -0.167845 0.013950 0.202376
v -0.167442 0.019717 0.169677
v -0.167766 0.018824 0.185817
v -0.165197 0.003392 0.186316
v -0.162460 0.002545 0.170309
v 0.168357 0.020035 0.159126
v 0.166985 0.018512 0.178326
v 0.025688 0.031190 0.197947
v -0.036877 0.025793 0.210585
v 0.057674 0.018738 0.185502
v -0.058752 0.012520 0.211914
v -0.162453 -0.008958 0.170703
v -0.165110 -0.008270 0.186604
v -0.167417 -0.028817 0.186737
v -0.167367 -0.027619 0.170916
v -0.058443 0.001552 0.212189
v 0.055657 0.010150 0.188746
v 0.053577 -0.010877 0.193467
v -0.056735 -0.020751 0.211333
v 0.166835 -0.024016 0.182646
v 0.166714 -0.021139 0.161340
v 0.061388 0.011912 -0.196603
v -0.044361 0.025473 -0.196408
v -0.162809 -0.004523 -0.200944
v -0.160924 -0.004647 -0.200858
v -0.040337 -0.014823 -0.196242
v 0.063198 -0.013774 -0.196515
v -0.143461 0.007792 0.055818
v -0.160340 0.023408 -0.081508
v 0.157492 0.016982 -0.077450
v 0.158796 0.027221 0.031559
v -0.134973 -0.012766 0.058465
v -0.159790 0.005114 -0.081622
v 0.165819 -0.023644 0.033975
v 0.170047 -0.026942 -0.071885
v 0.060066 -0.033033 -0.197807
v -0.046074 -0.032796 -0.198272
v -0.166011 -0.023791 -0.082440
v -0.139577 -0.036799 0.056056
v -0.160820 -0.014840 -0.200801
v -0.162687 -0.014741 -0.200877
v 0.062815 -0.017387 -0.196868
v -0.040791 -0.018030 -0.196760
v -0.162031 -0.006234 -0.081926
v -0.134350 -0.021973 0.058291
v 0.165002 0.003886 0.153625
v 0.164979 0.002029 0.174879
v 0.164822 -0.007736 0.176543
v 0.163191 -0.004574 0.154362
v 0.166774 -0.002126 -0.198501
v 0.166778 -0.002124 -0.197170
v 0.166764 -0.006476 -0.197168
v 0.166764 -0.006476 -0.198499
v 0.164324 0.000710 0.153364
v 0.164927 -0.001417 0.175135
v 0.163708 -0.002069 0.153639
v 0.164871 -0.004687 0.175727
v -0.165173 -0.000535 0.186427
v -0.162462 -0.001322 0.170455
v -0.165144 -0.004424 0.186523
v -0.162460 -0.005157 0.170587
v 0.057280 0.015578 0.186264
v -0.058698 0.008849 0.212043
v 0.056492 0.012730 0.187488
v -0.058593 0.005191 0.212136
v 0.163955 -0.008948 0.155990
v 0.165554 -0.012989 0.178501
v 0.165218 -0.014286 0.158703
v 0.166171 -0.018025 0.180740
v 0.168059 0.013947 0.156635
v 0.166436 0.012100 0.176244
v 0.166888 0.008632 0.154587
v 0.165780 0.006713 0.175121
v -0.135878 -0.026746 0.057828
v -0.163652 -0.012139 -0.082151
v -0.137253 -0.031872 0.057129
v -0.164897 -0.018023 -0.082309
v -0.140200 0.000393 0.057272
v -0.159467 0.017243 -0.081459
v -0.137562 -0.006662 0.058092
v -0.159458 0.011159 -0.081540
v 0.054510 0.004946 0.190593
v -0.058011 -0.005897 0.212139
v 0.053920 -0.001698 0.191931
v -0.057415 -0.013293 0.211852
v -0.165890 -0.015259 0.186716
v -0.164105 -0.015275 0.170858
v -0.166658 -0.022103 0.186761
v -0.165742 -0.021492 0.170932
v 0.057221 0.025980 0.185987
v -0.058678 0.020355 0.211542
v 0.057566 0.022309 0.185443
v -0.058747 0.016436 0.211742
v -0.166929 0.013631 0.186000
v -0.165793 0.013926 0.169895
v -0.166071 0.008485 0.186167
v -0.164130 0.008199 0.170106
v -0.164695 0.014099 0.205520
v -0.166273 0.014018 0.203952
v -0.164692 0.009734 0.205697
v -0.166273 0.009587 0.204128
v 0.163697 0.003071 0.202331
v 0.165310 0.002563 0.200435
v 0.163722 0.006683 0.202235
v 0.165335 0.006109 0.200335
v 0.163585 -0.015977 0.203009
v 0.165174 -0.016041 0.201420
v 0.163595 -0.008104 0.202935
v 0.165197 -0.008281 0.201206
v 0.165174 -0.018072 -0.201419
v 0.163583 -0.018072 -0.203007
v 0.165174 -0.012274 -0.201419
v 0.163584 -0.012274 -0.203008
v -0.166096 -0.024497 -0.199566
v -0.167762 -0.024446 -0.198028
v -0.166162 -0.019572 -0.199472
v -0.167838 -0.019512 -0.197938
v -0.164651 0.001429 0.205973
v -0.166237 0.001217 0.204401
v -0.164616 -0.002509 0.206072
v -0.166203 -0.002720 0.204498
v 0.163731 0.014437 0.202292
v 0.165345 0.013881 0.200449
v 0.163716 0.018640 0.202417
v 0.165328 0.018178 0.200630
v 0.165210 0.011371 -0.201426
v 0.163633 0.011379 -0.203018
v 0.165229 0.017645 -0.201430
v 0.163656 0.017655 -0.203022
v -0.166453 0.001453 -0.199655
v -0.168155 0.001539 -0.198135
v -0.166481 0.007432 -0.199870
v -0.168182 0.007521 -0.198352
v -0.164463 -0.014245 0.206226
v -0.166051 -0.014390 0.204650
v -0.164335 -0.021880 0.206199
v -0.165921 -0.021962 0.204624
v 0.121535 -0.008276 -0.065525
v 0.121068 -0.005434 -0.065157
v 0.130913 -0.001396 0.026681
v 0.129458 0.002615 0.026107
v -0.106233 -0.013058 0.045133
v -0.115712 0.001535 -0.065693
v -0.106677 -0.015459 0.045804
v -0.117490 -0.001247 -0.065846
v 0.153893 -0.002984 0.137434
v 0.142979 -0.006929 0.130751
v 0.154738 0.000580 0.137799
v 0.143430 -0.003653 0.130877
v 0.147885 0.005839 0.031111
v 0.137594 0.006351 0.027936
v 0.142215 -0.002401 -0.071765
v 0.131283 -0.002299 -0.067981
v -0.150429 -0.001879 0.146459
v -0.140793 -0.001918 0.137399
v -0.150420 -0.005537 0.146666
v -0.140774 -0.005370 0.137644
v 0.148916 -0.011223 -0.071462
v 0.136619 -0.010407 -0.068383
v 0.150616 -0.006068 0.032601
v 0.141109 -0.005602 0.029824
v -0.033187 -0.012954 -0.161720
v -0.032825 -0.009944 -0.161557
v 0.053231 -0.013716 -0.159654
v 0.053599 -0.010632 -0.159434
v -0.058431 -0.023210 -0.084096
v -0.048519 -0.030652 0.040092
v 0.035042 -0.045679 -0.068803
v 0.061537 -0.024528 0.032805
v 0.059989 -0.018441 0.155199
v -0.051419 -0.019022 0.163386
v -0.052394 -0.019288 0.182818
v 0.058808 -0.016431 0.169921
v -0.055815 0.022124 0.035183
v -0.069414 0.024624 -0.077349
v 0.068681 0.021745 -0.082367
v 0.058121 0.023576 0.032801
v 0.031559 0.032787 0.174759
v -0.032602 0.028180 0.182584
v -0.033319 0.027663 0.193172
v 0.030324 0.034005 0.181767
v -0.110009 0.024075 0.148740
v -0.169002 0.013776 -0.197872
v 0.162894 0.023937 -0.203822
v -0.104615 0.012387 -0.198651
v -0.167839 0.019447 -0.142088
v 0.164828 0.024996 0.090311
v 0.112113 0.022641 0.148393
v -0.000488 0.031216 0.171343
v -0.165608 0.013591 -0.200905
v -0.167307 0.013674 -0.199393
v 0.166034 0.023912 -0.200637
v 0.164464 0.023925 -0.202230
v 0.107991 0.020430 -0.202292
v 0.010333 0.022582 -0.194386
v -0.154495 0.015003 0.098938
v -0.156748 0.017402 -0.015228
v 0.166608 0.023540 -0.141434
v 0.161033 0.024074 -0.021756
v -0.093071 0.020508 -0.076071
v -0.099078 0.013037 0.047820
v 0.002906 0.021653 0.035558
v -0.044705 0.010670 -0.014046
v -0.054962 0.022981 0.090193
v -0.071925 0.021443 -0.144274
v 0.099162 0.015197 -0.076957
v 0.107508 0.020883 0.038324
v 0.061589 0.025839 0.088096
v 0.075624 0.013800 -0.138831
v 0.059083 0.025255 -0.026684
v 0.108036 0.023035 -0.020238
v 0.110730 0.016620 0.097843
v 0.004818 0.022276 0.090904
v 0.018461 0.012985 -0.015689
v -0.105527 0.016986 0.096860
v -0.105812 0.020255 -0.018763
v -0.016638 0.029453 0.172719
v -0.017014 0.024028 -0.195397
v -0.026455 0.021888 0.035371
v -0.025072 0.022628 0.090549
v -0.013122 0.011827 -0.014868
v 0.015577 0.031005 0.169861
v 0.035861 0.024451 -0.195494
v 0.030513 0.022615 0.034180
v 0.051916 0.022479 -0.082560
v 0.033203 0.024058 0.089500
v 0.038772 0.019120 -0.021187
v -0.158544 0.020405 -0.048368
v -0.044949 0.015661 -0.050239
v 0.159262 0.020528 -0.049603
v 0.057480 0.023500 -0.054526
v 0.103599 0.019116 -0.048597
v 0.009639 0.018099 -0.051757
v -0.099441 0.020382 -0.047417
v -0.017655 0.016880 -0.052132
v 0.033559 0.020799 -0.054409
v -0.023926 0.030303 0.138308
v -0.048171 0.028540 0.140957
v -0.028172 0.024262 0.035265
v -0.052088 0.024497 0.035078
v -0.051393 0.025354 0.090088
v -0.043039 0.013043 -0.014152
v -0.027046 0.025001 0.090443
v -0.017311 0.014200 -0.014973
v -0.021004 0.019253 -0.052237
v -0.043237 0.018034 -0.050344
v 0.034170 0.034553 0.132688
v 0.010772 0.034764 0.135540
v 0.028152 0.027686 0.033955
v 0.006334 0.026724 0.035333
v 0.007845 0.027347 0.090679
v 0.018627 0.018056 -0.015914
v 0.022405 0.015524 -0.025507
v 0.030278 0.029128 0.089275
v 0.034679 0.024191 -0.021412
v 0.033494 0.019288 -0.041585
v -0.016881 -0.002713 -0.194904
v -0.044228 -0.001268 -0.195915
v -0.022056 0.009598 -0.079295
v -0.070728 0.008318 -0.076330
v -0.044817 0.003327 -0.049746
v -0.078881 0.003842 -0.139714
v 0.074950 0.001466 -0.138338
v 0.071790 0.009411 -0.081874
v 0.035993 -0.002291 -0.195001
v 0.010466 -0.004159 -0.193893
v 0.050822 0.010144 -0.082067
v 0.000949 0.010878 -0.082260
v 0.061520 -0.000422 -0.196110
v 0.034093 -0.001759 -0.135263
v -0.019768 -0.000571 -0.135951
v 0.009017 -0.004985 -0.132187
v -0.033678 0.010294 0.091042
v 0.009850 0.009942 0.091397
v 0.015243 0.017359 0.136258
v 0.007065 0.009319 0.036051
v -0.016275 -0.000507 -0.014375
v 0.029719 0.000651 -0.015196
v 0.016870 0.005765 -0.051264
v -0.028101 0.015596 0.138907
v -0.035691 0.009554 0.035864
v -0.022877 0.004546 -0.051639
v 0.033692 0.008465 -0.053916
v -0.071398 0.025883 0.161417
vn 0.0885 0.4498 -0.8887
vn 0.1022 0.4459 -0.8892
vn 0.0524 0.4380 -0.8974
vn 0.0436 0.4259 -0.9037
vn 0.1357 0.3868 -0.9121
vn 0.1943 0.3738 -0.9069
vn 0.3914 0.3422 -0.8543
vn 0.4488 0.3376 -0.8274
vn 0.6029 0.3562 -0.7139
vn 0.6440 0.3728 -0.6680
vn 0.7551 0.4455 -0.4810
vn 0.7736 0.4652 -0.4303
vn 0.8223 0.5340 -0.1966
vn 0.8243 0.5398 -0.1708
vn 0.8286 0.5583 -0.0416
vn 0.8291 0.5578 -0.0392
vn 0.8453 0.5339 -0.0186
vn 0.8491 0.5280 -0.0166
vn 0.8619 0.4959 0.1063
vn 0.8594 0.4918 0.1398
vn 0.7607 0.5066 0.4057
vn 0.7530 0.5086 0.4174
vn 0.6393 0.5598 0.5271
vn 0.6398 0.5575 0.5289
vn 0.6581 0.5844 0.4748
vn 0.6619 0.5835 0.4706
vn 0.6538 0.5660 0.5022
vn 0.6162 0.5510 0.5627
vn 0.5206 0.5310 0.6686
vn 0.4144 0.5200 0.7469
vn 0.3431 0.5082 0.7899
vn -0.2885 0.4938 0.8203
vn -0.4461 0.4569 0.7696
vn -0.4004 0.4693 0.7870
vn -0.6482 0.3836 0.6578
vn -0.6382 0.3880 0.6650
vn -0.8119 0.3498 0.4675
vn -0.8360 0.3497 0.4228
vn -0.9151 0.3609 0.1801
vn -0.9206 0.3694 0.1269
vn -0.9172 0.3976 0.0264
vn -0.9142 0.4046 0.0238
vn -0.9060 0.4213 0.0408
vn -0.9050 0.4217 0.0567
vn -0.9071 0.4195 0.0353
vn -0.9092 0.4163 -0.0076
vn -0.9032 0.4111 -0.1234
vn -0.8934 0.4082 -0.1876
vn -0.8617 0.4081 -0.3017
vn -0.8485 0.4115 -0.3329
vn -0.8108 0.4213 -0.4064
vn -0.7974 0.4251 -0.4283
vn -0.7375 0.4292 -0.5215
vn -0.7145 0.4278 -0.5535
vn -0.5939 0.4200 -0.6862
vn -0.5547 0.4166 -0.7202
vn -0.3494 0.4125 -0.8413
vn -0.2865 0.4129 -0.8645
vn -0.3622 0.2878 0.8866
vn -0.0963 0.2514 0.9631
vn -0.0717 0.2464 0.9665
vn -0.3443 0.2863 0.8941
vn -0.0480 0.4243 -0.9042
vn 0.0124 0.4310 -0.9022
vn 0.1327 0.9911 0.0042
vn 0.0151 0.9999 0.0039
vn 0.0080 1.0000 0.0034
vn 0.1388 0.9903 0.0034
vn -0.0806 0.9967 -0.0060
vn -0.0822 0.9966 -0.0067
vn -0.0482 0.9988 -0.0074
vn -0.0492 0.9988 -0.0075
vn 0.0302 0.9994 0.0186
vn 0.0242 0.9996 0.0149
vn 0.0421 0.9983 0.0397
vn 0.0469 0.9981 0.0390
vn 0.0134 0.9990 0.0424
vn 0.0183 0.9989 0.0421
vn -0.0045 0.9994 0.0352
vn -0.0028 0.9993 0.0371
vn -0.0089 0.9999 0.0062
vn -0.0090 0.9999 0.0073
vn 0.0206 0.9988 -0.0454
vn 0.0181 0.9989 -0.0428
vn 0.0989 0.9895 -0.1052
vn 0.0782 0.9927 -0.0920
vn 0.1667 0.9698 -0.1781
vn 0.1506 0.9766 -0.1538
vn 0.1280 0.9822 -0.1376
vn 0.1401 0.9784 -0.1520
vn -0.0044 0.9992 0.0390
vn -0.0275 0.9971 0.0714
vn -0.1363 0.9656 0.2212
vn -0.1459 0.9613 0.2336
vn -0.1643 0.9522 0.2574
vn 0.0124 -0.9970 0.0769
vn 0.1538 0.8910 0.4272
vn 0.0997 0.9211 0.3763
vn 0.0840 0.9287 0.3612
vn -0.0709 0.9878 0.1386
vn -0.1113 0.9916 0.0659
vn -0.2236 0.9510 -0.2134
vn -0.2269 0.9452 -0.2347
vn -0.2034 0.9346 -0.2917
vn -0.2083 0.9321 -0.2963
vn -0.1059 0.9925 -0.0605
vn -0.1280 0.9836 -0.1273
vn -0.0791 0.9967 -0.0174
vn -0.0747 0.9972 0.0026
vn -0.0802 0.9884 -0.1290
vn -0.0782 0.9880 -0.1331
vn -0.0479 0.9924 -0.1130
vn -0.0461 0.9933 -0.1061
vn -0.0371 0.9993 0.0015
vn -0.0374 0.9993 0.0046
vn -0.0612 0.9954 0.0742
vn -0.0641 0.9950 0.0766
vn -0.0966 0.9910 0.0922
vn -0.1011 0.9906 0.0925
vn -0.1083 0.9910 0.0786
vn -0.1062 0.9916 0.0741
vn -0.0302 0.9990 0.0344
vn -0.0226 0.9992 0.0316
vn 0.1164 0.9932 0.0023
vn 0.1075 0.9942 0.0028
vn 0.3840 0.2487 0.8892
vn 0.6180 0.2610 0.7416
vn 0.6289 0.2619 0.7321
vn 0.3817 0.2486 0.8902
vn -0.9783 0.2026 -0.0438
vn -0.6421 0.2983 0.7062
vn -0.6533 0.2981 0.6960
vn 0.1159 0.2337 0.9654
vn 0.0910 0.2322 0.9684
vn 0.5099 0.0828 -0.8562
vn 0.3592 0.0616 -0.9312
vn 0.4359 0.0724 -0.8971
vn -0.8528 0.2780 0.4420
vn -0.8699 0.2740 0.4100
vn -0.0276 0.2181 0.9755
vn -0.0274 0.2173 0.9757
vn 0.6202 0.1580 -0.7683
vn 0.6044 0.1312 -0.7858
vn -0.9509 0.2358 0.2005
vn -0.9565 0.2304 0.1788
vn 0.7506 0.2410 -0.6153
vn 0.7461 0.2392 -0.6214
vn -0.9738 0.1976 0.1127
vn -0.9740 0.1953 0.1150
vn 0.8956 0.2753 -0.3493
vn 0.9113 0.2735 -0.3078
vn -0.9779 0.1782 0.1090
vn -0.9781 0.1779 0.1078
vn 0.9641 0.2569 -0.0677
vn 0.9661 0.2547 -0.0423
vn -0.9757 0.1681 -0.1409
vn -0.9755 0.1680 -0.1421
vn 0.9671 0.2499 -0.0472
vn 0.9670 0.2500 -0.0485
vn -0.9179 0.1540 -0.3657
vn 0.9528 0.2515 -0.1703
vn 0.9527 0.2515 -0.1704
vn -0.5725 0.0522 -0.8183
vn -0.5738 0.0705 -0.8159
vn -0.5726 0.0536 -0.8181
vn 0.9665 0.2558 -0.0192
vn 0.9666 0.2559 -0.0175
vn -0.7252 0.0298 -0.6879
vn -0.6961 0.0310 -0.7173
vn 0.9170 0.2607 0.3020
vn 0.9191 0.2607 0.2953
vn -0.8827 0.0262 -0.4693
vn -0.8754 0.0260 -0.4827
vn 0.8242 0.2631 0.5015
vn 0.8272 0.2627 0.4968
vn -0.8409 0.0613 -0.5377
vn -0.8408 0.0613 -0.5378
vn 0.0030 0.2184 0.9759
vn 0.0005 0.2178 0.9760
vn 0.7528 0.2672 0.6015
vn 0.7583 0.2672 0.5946
vn -0.7305 0.0939 -0.6765
vn 0.8528 0.0033 0.5222
vn 0.0416 0.0212 0.9989
vn 0.0471 0.0205 0.9987
vn 0.1126 0.0123 0.9936
vn -0.0147 0.9999 -0.0079
vn -0.0076 0.9999 -0.0151
vn 0.0039 0.9991 0.0430
vn -0.1029 0.9942 0.0314
vn -0.6853 -0.0488 -0.7266
vn -0.6886 -0.0530 -0.7232
vn -0.6883 -0.0479 -0.7239
vn -0.6846 -0.0440 -0.7276
vn -0.0029 -0.9990 0.0444
vn 0.0086 -0.9983 0.0569
vn 0.0274 -0.9995 0.0133
vn 0.0166 -0.9998 0.0114
vn 0.5612 -0.0563 -0.8257
vn 0.5851 -0.0541 -0.8092
vn 0.5806 -0.0617 -0.8118
vn 0.5595 -0.0772 -0.8252
vn -0.9227 0.3664 0.1198
vn -0.9334 0.3447 0.0999
vn -0.9344 0.3436 0.0942
vn -0.9266 0.3578 0.1156
vn 0.9635 0.2601 -0.0629
vn 0.9540 0.2918 -0.0688
vn 0.9634 0.2673 -0.0197
vn 0.9738 0.2271 -0.0140
vn -0.7050 -0.0190 0.7089
vn -0.7061 -0.0191 0.7078
vn -0.7059 -0.0236 0.7080
vn -0.7049 -0.0236 0.7089
vn -0.6679 -0.0304 -0.7436
vn -0.6692 -0.0304 -0.7424
vn -0.6694 -0.0306 -0.7423
vn -0.6680 -0.0309 -0.7435
vn 0.7113 -0.0031 -0.7029
vn 0.7113 -0.0034 -0.7029
vn 0.7118 -0.0034 -0.7024
vn 0.7118 -0.0031 -0.7024
vn 0.7422 -0.0264 0.6696
vn 0.7453 -0.0300 0.6661
vn 0.7391 -0.0313 0.6728
vn 0.7372 -0.0273 0.6751
vn -0.7061 0.0087 0.7081
vn -0.7076 0.0085 0.7066
vn -0.7072 0.0013 0.7070
vn -0.7058 0.0014 0.7084
vn -0.6756 -0.0011 -0.7373
vn -0.6761 -0.0022 -0.7368
vn -0.6748 -0.0062 -0.7380
vn -0.6742 -0.0054 -0.7385
vn 0.7067 -0.0002 -0.7076
vn 0.7065 -0.0002 -0.7077
vn 0.7066 -0.0002 -0.7076
vn 0.7067 -0.0002 -0.7075
vn 0.7395 0.0304 0.6725
vn 0.7442 0.0369 0.6670
vn 0.7643 0.0396 0.6436
vn 0.7602 0.0355 0.6488
vn 0.7651 0.0046 0.6439
vn 0.7682 0.0050 0.6402
vn 0.7633 -0.0110 0.6459
vn 0.7601 -0.0100 0.6498
vn -0.7068 0.0254 0.7070
vn -0.7083 0.0253 0.7054
vn -0.7081 0.0197 0.7058
vn -0.7066 0.0198 0.7074
vn -0.9530 -0.2794 -0.1172
vn -0.9247 -0.3507 -0.1483
vn -0.9548 -0.2447 -0.1687
vn -0.9768 -0.1449 -0.1580
vn -0.0573 0.9975 -0.0409
vn -0.0624 0.9973 0.0374
vn -0.0720 0.9974 -0.0033
vn -0.0816 0.9966 0.0124
vn -0.0925 0.9956 -0.0148
vn -0.0640 0.9966 -0.0520
vn 0.0867 0.0218 0.9960
vn -0.0456 0.0429 0.9980
vn -0.0454 0.0360 0.9983
vn 0.0846 0.0562 0.9948
vn -0.9653 0.2544 -0.0587
vn -0.9167 0.3591 -0.1751
vn -0.9111 0.3816 -0.1559
vn -0.9667 0.2545 -0.0272
vn 0.0662 0.0172 0.9977
vn -0.0357 -0.0338 0.9988
vn -0.0332 -0.0445 0.9985
vn 0.0690 0.0119 0.9975
vn -0.0152 -0.9988 0.0475
vn -0.0355 -0.9992 0.0178
vn -0.0117 -0.9991 0.0400
vn 0.0020 -0.9983 0.0591
vn -0.0068 -0.0031 -1.0000
vn -0.0391 0.9971 -0.0654
vn -0.0125 0.9998 -0.0129
vn -0.0091 0.9996 0.0276
vn -0.0071 0.9979 0.0641
vn -0.9902 -0.0870 0.1096
vn -0.9960 0.0106 0.0883
vn -0.9960 0.0227 0.0865
vn -0.9906 -0.0764 0.1135
vn 0.1130 -0.9923 -0.0516
vn 0.0982 -0.9948 0.0267
vn -0.0122 -0.9995 0.0276
vn 0.0169 -0.9990 -0.0424
vn -0.0133 0.0570 -0.9983
vn -0.9774 0.1729 0.1219
vn -0.9944 0.1004 0.0339
vn -0.9950 0.0958 0.0294
vn -0.9759 0.1846 0.1165
vn 0.9877 -0.1566 -0.0014
vn 0.9969 -0.0731 -0.0289
vn 0.9967 -0.0558 -0.0584
vn 0.9921 -0.1199 -0.0369
vn 0.9947 0.0997 -0.0239
vn 0.9986 0.0404 -0.0346
vn 0.9988 0.0459 -0.0170
vn 0.9961 0.0878 -0.0108
vn 0.9872 -0.1595 0.0067
vn 0.9933 -0.1112 -0.0318
vn 0.9869 -0.1534 -0.0498
vn 0.9700 -0.2298 -0.0796
vn 0.9688 -0.2164 -0.1206
vn 0.9317 0.3631 0.0083
vn 0.9531 0.2828 -0.1080
vn 0.9492 0.3037 -0.0818
vn 0.9452 0.3222 -0.0535
vn 0.9457 0.3221 -0.0436
vn 0.0743 0.0994 0.9923
vn -0.0444 0.0203 0.9988
vn -0.0431 0.0081 0.9990
vn 0.0706 0.0816 0.9942
vn -0.9844 -0.0090 -0.1756
vn -0.9826 -0.0088 -0.1856
vn -0.9521 0.2190 -0.2135
vn -0.9791 0.1185 -0.1653
vn -0.0798 0.9967 -0.0129
vn -0.0562 0.9977 -0.0388
vn -0.0547 0.9977 -0.0404
vn -0.0657 0.9974 -0.0284
vn -0.0295 0.9973 -0.0679
vn -0.0124 0.9999 -0.0110
vn 0.0150 0.9998 -0.0087
vn 0.0146 0.9998 -0.0105
vn -0.0079 0.9993 -0.0377
vn 0.9944 -0.0737 -0.0753
vn 0.9963 -0.0234 -0.0823
vn 0.9965 0.0023 -0.0840
vn 0.9971 0.0244 -0.0715
vn -0.0406 -0.9984 0.0404
vn -0.0160 -0.9992 0.0361
vn -0.0026 -0.9994 0.0337
vn -0.0049 -0.9994 0.0341
vn 0.0355 -0.9990 0.0269
vn 0.0341 -0.9992 0.0210
vn 0.0280 -0.9995 0.0142
vn 0.9966 -0.0160 -0.0814
vn 0.9959 -0.0676 -0.0601
vn 0.9656 -0.2374 -0.1061
vn 0.9807 -0.1516 -0.1237
vn 0.9633 -0.1838 -0.1958
vn 0.9803 -0.1521 -0.1262
vn 0.9675 -0.1788 -0.1788
vn 0.9912 0.0094 -0.1320
vn 0.9696 -0.1754 -0.1708
vn -0.9828 -0.0090 -0.1846
vn -0.9844 -0.0088 -0.1758
vn -0.9884 -0.0535 -0.1418
vn -0.9854 -0.0864 -0.1469
vn -0.9867 -0.0097 -0.1625
vn -0.9874 -0.0109 -0.1581
vn -0.9868 -0.0107 -0.1618
vn -0.9874 -0.0122 -0.1579
vn -0.9875 0.0495 -0.1500
vn -0.9890 0.0145 -0.1470
vn -0.0451 0.0286 0.9986
vn 0.0796 0.0873 0.9930
vn -0.1681 0.0630 0.9838
vn 0.0111 0.0663 0.9977
vn 0.0200 0.1575 0.9873
vn -0.1507 0.1687 0.9741
vn 0.0312 0.2037 0.9785
vn -0.1328 0.2233 0.9657
vn 0.0387 0.1821 0.9825
vn -0.1209 0.2004 0.9722
vn 0.9970 0.0349 -0.0687
vn 0.9939 0.0970 -0.0530
vn 0.9745 0.1983 -0.1051
vn 0.9728 0.2248 -0.0555
vn 0.9770 0.2121 -0.0231
vn 0.9976 -0.0637 0.0252
vn 0.9989 -0.0473 0.0003
vn 0.9985 -0.0536 -0.0082
vn 0.9951 -0.0953 0.0253
vn 0.9961 -0.0856 0.0199
vn 0.9903 -0.1378 -0.0176
vn 0.9644 -0.2544 -0.0725
vn -0.9694 0.2043 0.1361
vn -0.9893 0.1374 0.0489
vn -0.9917 0.1208 0.0437
vn -0.9754 0.1795 0.1278
vn -0.9462 0.3200 -0.0480
vn -0.9525 0.3025 -0.0359
vn -0.9196 0.3342 -0.2064
vn -0.9451 0.3246 -0.0378
vn -0.9357 0.3527 0.0018
vn -0.9287 -0.3616 0.0816
vn -0.9656 -0.2390 0.1028
vn -0.9881 -0.1195 0.0970
vn -0.9671 -0.2367 0.0938
vn -0.9259 -0.3596 -0.1160
vn -0.9024 -0.3975 -0.1661
vn -0.8903 -0.4533 -0.0447
vn -0.9366 -0.3479 -0.0408
vn -0.9267 -0.3535 -0.1277
vn -0.8682 -0.4931 0.0560
vn -0.9589 -0.2828 -0.0218
vn -0.9581 -0.2859 -0.0185
vn -0.0402 -0.0113 0.9991
vn 0.0683 0.0446 0.9967
vn 0.0408 0.1194 0.9920
vn -0.1135 0.1309 0.9849
vn 0.0359 0.0817 0.9960
vn -0.1036 0.0931 0.9903
vn 0.0361 0.0774 0.9963
vn -0.0975 0.0908 0.9911
vn -0.9610 0.2489 -0.1209
vn -0.9879 0.1103 -0.1090
vn -0.9931 0.0438 -0.1084
vn -0.9924 0.1123 -0.0509
vn -0.9976 0.0444 -0.0525
vn -0.9935 0.1119 -0.0219
vn -0.9987 0.0446 -0.0240
vn -0.0473 0.2207 0.9742
vn -0.0466 0.1308 0.9903
vn 0.0257 0.1093 0.9937
vn -0.0995 -0.8939 0.4370
vn 0.1707 -0.6493 0.7411
vn -0.0755 -0.8798 0.4692
vn 0.2018 -0.6085 0.7674
vn -0.1784 -0.0878 0.9800
vn 0.0387 -0.0610 0.9974
vn 0.0160 -0.0247 0.9996
vn -0.1770 -0.0424 0.9833
vn -0.9598 -0.2743 -0.0600
vn -0.9584 -0.2744 -0.0789
vn -0.9959 -0.0851 -0.0298
vn -0.9868 -0.1566 -0.0415
vn -0.9857 -0.1562 -0.0634
vn -0.9946 -0.0879 -0.0546
vn -0.9810 -0.1612 -0.1076
vn -0.9904 -0.0931 -0.1020
vn -0.7071 0.0332 0.7064
vn -0.7086 0.0332 0.7048
vn -0.7085 0.0307 0.7050
vn -0.7070 0.0307 0.7066
vn -0.7023 0.0332 0.7111
vn -0.7039 0.0332 0.7095
vn -0.7038 0.0307 0.7097
vn -0.7022 0.0307 0.7113
vn -0.7037 0.0255 0.7101
vn -0.7021 0.0256 0.7116
vn -0.7035 0.0200 0.7104
vn -0.7020 0.0202 0.7119
vn 0.7698 0.0222 0.6379
vn 0.7666 0.0204 0.6419
vn 0.7435 0.0236 0.6683
vn 0.7495 0.0277 0.6614
vn 0.7578 0.0181 0.6522
vn 0.7524 0.0167 0.6585
vn 0.7572 0.0057 0.6531
vn 0.7522 0.0060 0.6589
vn 0.7528 -0.0059 0.6582
vn 0.7483 -0.0042 0.6634
vn 0.7071 -0.0000 0.7071
vn 0.7180 0.0128 0.6960
vn 0.7160 0.0091 0.6980
vn 0.7122 0.0036 0.7019
vn 0.7104 0.0016 0.7038
vn 0.7297 0.0192 0.6835
vn 0.7246 0.0144 0.6890
vn 0.7065 -0.0001 -0.7077
vn 0.7063 -0.0001 -0.7079
vn 0.7064 -0.0001 -0.7078
vn 0.7068 -0.0000 -0.7074
vn 0.7067 -0.0001 -0.7075
vn 0.7068 -0.0001 -0.7074
vn 0.7069 -0.0000 -0.7074
vn 0.7069 -0.0001 -0.7074
vn 0.7069 -0.0001 -0.7073
vn 0.7070 -0.0000 -0.7072
vn -0.6804 0.0109 -0.7328
vn -0.6809 0.0097 -0.7323
vn -0.6792 0.0057 -0.7340
vn -0.6787 0.0070 -0.7344
vn -0.6790 0.0145 -0.7340
vn -0.6794 0.0134 -0.7336
vn -0.6778 0.0092 -0.7352
vn -0.6774 0.0105 -0.7356
vn -0.6746 0.0008 -0.7382
vn -0.6741 0.0019 -0.7386
vn -0.6731 -0.0036 -0.7396
vn -0.6726 -0.0027 -0.7400
vn -0.7078 0.0141 0.7063
vn -0.7063 0.0143 0.7077
vn -0.7033 0.0145 0.7107
vn -0.7018 0.0147 0.7122
vn -0.7032 0.0089 0.7109
vn -0.7017 0.0091 0.7124
vn -0.7030 0.0017 0.7112
vn -0.7016 0.0019 0.7125
vn 0.7554 -0.0235 0.6548
vn 0.7519 -0.0210 0.6589
vn 0.7458 -0.0146 0.6660
vn 0.7424 -0.0120 0.6699
vn 0.7379 -0.0195 0.6747
vn 0.7354 -0.0164 0.6774
vn 0.7337 -0.0206 0.6792
vn 0.7320 -0.0177 0.6810
vn 0.7099 -0.0014 -0.7043
vn 0.7099 -0.0016 -0.7043
vn 0.7103 -0.0025 -0.7038
vn 0.7103 -0.0023 -0.7038
vn 0.7099 -0.0011 -0.7043
vn 0.7099 -0.0012 -0.7043
vn 0.7103 -0.0019 -0.7038
vn 0.7103 -0.0018 -0.7038
vn 0.7113 -0.0026 -0.7029
vn 0.7113 -0.0024 -0.7029
vn 0.7118 -0.0026 -0.7024
vn 0.7118 -0.0024 -0.7024
vn 0.7118 -0.0029 -0.7024
vn -0.6685 -0.0266 -0.7432
vn -0.6696 -0.0269 -0.7423
vn -0.6693 -0.0285 -0.7425
vn -0.6682 -0.0283 -0.7435
vn -0.6656 -0.0255 -0.7459
vn -0.6665 -0.0259 -0.7450
vn -0.6660 -0.0279 -0.7454
vn -0.6650 -0.0276 -0.7463
vn -0.6654 -0.0306 -0.7458
vn -0.6643 -0.0306 -0.7469
vn -0.6653 -0.0313 -0.7459
vn -0.6641 -0.0314 -0.7470
vn -0.6666 -0.0311 -0.7448
vn -0.7067 -0.0088 0.7075
vn -0.7054 -0.0087 0.7088
vn -0.7029 -0.0085 0.7113
vn -0.7016 -0.0082 0.7125
vn -0.7029 -0.0189 0.7110
vn -0.7018 -0.0187 0.7121
vn -0.7030 -0.0235 0.7108
vn -0.7020 -0.0234 0.7118
vn -0.9703 -0.2033 -0.1309
vn 0.9789 0.2005 -0.0385
vn 0.9446 0.3102 -0.1070
vn 0.9917 0.0594 0.1142
vn 0.9925 0.0324 0.1176
vn 0.9900 0.1411 0.0024
vn 0.9905 0.1369 0.0161
vn 0.9927 0.0087 0.1204
vn 0.9775 0.2022 -0.0593
vn 0.9845 0.1673 -0.0522
vn 0.9889 0.1484 -0.0055
vn 0.9938 0.1112 -0.0024
vn 0.6039 0.7740 -0.1905
vn -0.9134 0.3878 0.1237
vn -0.9321 0.3460 0.1070
vn -0.9570 0.0234 -0.2892
vn -0.9576 0.0222 -0.2873
vn -0.9577 0.0218 -0.2868
vn -0.9031 0.4102 0.1272
vn -0.9048 0.4048 0.1320
vn -0.9592 0.0148 -0.2824
vn -0.9593 0.0137 -0.2820
vn -0.9126 0.3846 0.1388
vn -0.9601 0.0071 -0.2794
vn -0.9165 0.3744 0.1412
vn 0.5575 -0.0177 -0.8300
vn 0.5862 -0.0375 -0.8093
vn 0.5878 -0.0421 -0.8079
vn 0.5564 -0.0262 -0.8305
vn 0.3455 0.0556 -0.9368
vn 0.4519 0.0275 -0.8916
vn 0.4442 0.0171 -0.8958
vn 0.3572 0.0598 -0.9321
vn 0.4697 -0.0079 -0.8828
vn 0.4046 0.0532 -0.9130
vn 0.4726 -0.0007 -0.8813
vn 0.4304 0.0462 -0.9015
vn 0.1488 -0.9872 -0.0580
vn 0.0424 -0.9966 -0.0710
vn 0.0185 -0.9995 0.0272
vn 0.0424 -0.9990 0.0145
vn -0.0352 -0.9993 -0.0135
vn 0.0365 -0.9990 -0.0258
vn 0.0530 -0.9984 0.0194
vn -0.0158 -0.9997 0.0189
vn 0.0013 -0.9993 0.0378
vn 0.0243 -0.9993 0.0287
vn -0.6877 -0.0616 -0.7234
vn -0.6898 -0.0667 -0.7209
vn -0.6894 -0.0624 -0.7217
vn -0.6868 -0.0575 -0.7245
vn -0.6843 -0.0435 -0.7279
vn -0.6849 -0.0501 -0.7269
vn -0.6838 -0.0468 -0.7282
vn -0.6833 -0.0409 -0.7290
vn -0.6819 -0.0401 -0.7304
vn -0.6816 -0.0353 -0.7308
vn -0.6810 -0.0362 -0.7313
vn -0.6810 -0.0322 -0.7316
vn -0.0057 1.0000 -0.0075
vn 0.0302 0.9995 -0.0020
vn 0.0505 0.9987 -0.0021
vn 0.0397 0.9991 0.0128
vn -0.0113 0.9998 -0.0147
vn 0.0559 0.9983 -0.0149
vn 0.0019 0.9999 0.0129
vn 0.0812 0.9967 0.0058
vn -0.0427 0.0311 0.9986
vn -0.0328 0.0301 0.9990
vn -0.0342 0.0302 0.9990
vn 0.0456 0.0582 -0.9973
vn 0.0455 0.0551 -0.9974
vn 0.0348 0.0624 -0.9974
vn 0.0360 0.0673 -0.9971
vn 0.0453 0.0515 -0.9976
vn 0.0340 0.0561 -0.9978
vn -0.0452 0.0533 -0.9976
vn -0.0350 0.0637 -0.9974
vn -0.0547 0.0433 -0.9976
vn -0.1145 0.0359 -0.9928
vn -0.1128 0.0437 -0.9927
vn -0.1156 0.0304 -0.9928
vn 0.0384 -0.9969 0.0692
vn 0.0118 -0.9973 0.0728
vn 0.0111 -0.9991 0.0414
vn 0.0545 -0.9981 0.0279
vn 0.0061 -1.0000 -0.0041
vn -0.0425 -0.9991 0.0041
vn -0.0121 -0.9979 0.0640
vn -0.0645 -0.9978 0.0145
vn 0.0454 -0.9970 0.0621
vn 0.0703 -0.9967 0.0415
vn 0.0763 -0.9970 0.0161
vn 0.0810 -0.9959 -0.0397
vn 0.0787 -0.9961 -0.0395
vn 0.0630 -0.9978 0.0193
vn -0.0044 -0.9955 0.0948
vn -0.0198 -0.9984 0.0529
vn 0.0415 -0.9990 0.0187
vn 0.0713 -0.9971 -0.0261
vn -0.0769 -0.9962 0.0419
vn -0.1034 -0.9897 0.0992
vn 0.0034 0.9982 0.0605
vn -0.0900 0.9958 -0.0185
vn -0.3444 0.9335 -0.1003
vn 0.0632 0.9976 0.0282
vn -0.3654 0.9262 0.0927
vn -0.3303 0.9392 -0.0936
vn -0.3972 0.9157 -0.0614
vn -0.1477 0.9802 0.1318
vn -0.0084 0.9980 0.0623
vn 0.0845 0.9960 -0.0287
vn 0.0948 0.9955 -0.0024
vn 0.0073 1.0000 0.0025
vn -0.0658 0.9944 0.0832
vn -0.0726 0.9960 0.0529
vn -0.1009 0.9938 0.0462
vn -0.0150 0.9989 -0.0445
vn 0.0227 0.9993 -0.0293
vn -0.0482 0.9985 -0.0268
vn -0.0452 0.9972 -0.0604
vn 0.0501 0.9981 -0.0359
vn -0.0135 0.9999 -0.0039
vn -0.0973 0.9948 -0.0293
vn 0.0030 0.0184 0.9998
vn 0.0452 0.0220 0.9987
vn 0.0450 0.0217 0.9988
vn 0.0089 0.9999 -0.0075
vn -0.1071 0.9941 0.0170
vn -0.0988 0.9948 0.0247
vn -0.0069 0.9997 0.0252
vn 0.0074 0.9991 -0.0419
vn -0.0502 0.9975 -0.0488
vn -0.0696 0.9972 0.0270
vn 0.0422 0.9927 -0.1133
vn -0.0274 0.9913 -0.1286
vn -0.0657 0.9964 0.0537
vn 0.0065 0.9994 -0.0353
vn 0.0070 0.9973 -0.0726
vn -0.0323 0.9995 0.0016
vn -0.0552 0.9907 -0.1242
vn -0.0746 0.9904 -0.1162
vn 0.0766 0.9961 -0.0430
vn -0.0148 0.9977 -0.0661
vn 0.0411 0.9967 -0.0700
vn -0.0636 0.9963 0.0576
vn -0.0482 0.9963 -0.0706
vn 0.0043 0.9987 -0.0513
vn -0.0522 0.9984 -0.0231
vn 0.0487 0.0255 0.9985
vn -0.0745 -0.0395 -0.9964
vn -0.0755 -0.0243 -0.9969
vn -0.0746 -0.0387 -0.9965
vn -0.7935 -0.5885 0.1549
vn -0.8238 -0.5659 -0.0349
vn -0.8237 -0.5660 -0.0341
vn 0.7191 -0.0662 -0.6918
vn -0.1190 -0.0751 -0.9901
vn 0.0134 0.9992 -0.0384
vn -0.8918 -0.4432 -0.0910
vn -0.8969 -0.4351 -0.0791
vn -0.8462 0.0117 -0.5327
vn -0.0708 0.9886 -0.1327
vn -0.0967 0.9896 -0.1060
vn -0.0817 0.9965 -0.0188
vn -0.2559 0.9659 -0.0404
vn -0.0458 0.9950 0.0887
vn -0.0010 0.9987 0.0505
vn 0.0393 0.9957 0.0841
vn 0.0825 0.9900 0.1140
vn -0.9962 -0.0360 0.0789
vn -0.9961 -0.0349 0.0814
vn -0.9921 -0.1009 -0.0746
vn 0.7116 0.7024 -0.0156
vn 0.7204 0.6934 -0.0168
vn 0.7559 0.6504 -0.0749
vn 0.7533 0.6529 -0.0784
vn -0.0727 -0.0693 -0.9949
vn -0.3500 0.9252 -0.1471
vn -0.7485 0.6566 -0.0928
vn -0.7388 0.6641 -0.1145
vn 0.9670 -0.2465 -0.0646
vn 0.8134 -0.5807 -0.0335
vn 0.8116 -0.5837 -0.0250
vn 0.8117 -0.5835 -0.0254
vn 0.1115 0.9934 -0.0283
vn 0.4401 0.8916 -0.1066
vn -0.8502 -0.5221 0.0675
vn -0.8528 -0.5179 0.0669
vn 0.8430 -0.5117 0.1660
vn 0.8447 -0.5013 0.1875
vn 0.7235 -0.6744 0.1477
vn 0.0087 -0.0392 -0.9992
vn -0.7776 0.6274 -0.0419
vn -0.7773 0.6277 -0.0422
vn -0.8936 0.4214 -0.1546
vn -0.8906 0.4331 -0.1385
vn 0.5789 0.8150 0.0261
vn 0.3394 0.9406 0.0018
vn -0.0360 0.0182 0.9992
vn -0.0053 0.9926 -0.1215
vn -0.0308 0.9981 -0.0528
vn -0.1975 0.9798 -0.0306
vn -0.0111 0.9987 -0.0504
vn -0.1117 0.9935 -0.0216
vn -0.0579 0.9982 -0.0143
vn 0.2497 0.9629 0.1023
vn -0.0413 0.9896 0.1375
vn -0.8099 0.5804 0.0850
vn 0.7149 0.6875 -0.1276
vn 0.5308 0.8456 0.0561
vn -0.1283 0.9889 -0.0752
vn -0.1411 0.9862 -0.0867
vn -0.3962 0.8928 -0.2145
vn -0.0077 1.0000 -0.0005
vn -0.0207 0.9987 -0.0470
vn -0.0550 0.9954 -0.0789
vn -0.0549 0.9953 -0.0792
vn 0.8395 0.5378 0.0781
vn 0.8660 0.4999 0.0130
vn -0.6958 0.7104 -0.1060
vn -0.9039 0.3071 -0.2976
vn 0.8865 0.4599 -0.0506
vn -0.0677 0.9913 -0.1131
vn -0.0625 0.9936 -0.0940
vn -0.0773 0.9969 -0.0129
vn -0.0882 0.9961 -0.0069
vn -0.0408 0.9908 -0.1293
vn -0.0477 0.9839 -0.1722
vn 0.0082 0.9999 0.0100
vn -0.0053 0.9985 -0.0536
vn 0.0045 0.9908 -0.1353
vn 0.0672 0.9929 -0.0985
vn 0.0004 1.0000 -0.0037
vn 0.0873 0.9959 -0.0234
vn -0.0475 0.9682 -0.2457
vn -0.0462 0.9695 -0.2405
vn -0.0072 0.9970 -0.0769
vn -0.0057 0.9975 -0.0701
vn -0.0033 0.9941 -0.1087
vn -0.0013 0.9959 -0.0899
vn -0.0197 0.9997 -0.0139
vn -0.0189 0.9993 -0.0318
vn -0.0265 0.9845 0.1731
vn -0.0272 0.9897 0.1402
vn -0.0215 0.9812 0.1917
vn 0.0121 0.9998 -0.0137
vn 0.0473 0.9951 -0.0865
vn 0.0698 0.9968 -0.0400
vn -0.0251 0.9932 0.1136
vn 0.9288 -0.3226 -0.1825
vn -0.9723 0.0306 0.2318
vn 0.8643 -0.0763 0.4971
vn 0.8408 -0.4081 0.3558
vn -0.7188 -0.6893 0.0905
vt 0.817314 0.322034
vt 0.839029 0.322712
vt 0.837885 0.340551
vt 0.817816 0.340768
vt 0.839062 0.354482
vt 0.819017 0.357787
vt 0.840429 0.367878
vt 0.819664 0.376131
vt 0.841158 0.383038
vt 0.820963 0.393813
vt 0.841459 0.397729
vt 0.822780 0.409860
vt 0.842107 0.410558
vt 0.824816 0.424374
vt 0.897807 0.811533
vt 0.881693 0.809280
vt 0.885549 0.793243
vt 0.901675 0.793729
vt 0.889536 0.776164
vt 0.904404 0.774735
vt 0.893609 0.759509
vt 0.905980 0.755045
vt 0.842107 0.286830
vt 0.858816 0.289552
vt 0.859371 0.305910
vt 0.842467 0.306669
vt 0.861962 0.324817
vt 0.845123 0.328307
vt 0.865745 0.341287
vt 0.848929 0.346150
vt 0.866861 0.354381
vt 0.847708 0.364257
vt 0.864089 0.368864
vt 0.843451 0.386654
vt 0.859857 0.388676
vt 0.842107 0.407375
vt 0.781322 0.641308
vt 0.790062 0.658387
vt 0.765064 0.666718
vt 0.757697 0.652022
vt 0.748637 0.676030
vt 0.742771 0.668167
vt 0.770050 0.271290
vt 0.789027 0.278151
vt 0.787274 0.285246
vt 0.770057 0.281578
vt 0.784517 0.294152
vt 0.765401 0.294334
vt 0.782173 0.307819
vt 0.765112 0.312264
vt 0.783909 0.325173
vt 0.766582 0.332264
vt 0.783251 0.342034
vt 0.764594 0.350134
vt 0.781980 0.357026
vt 0.763912 0.368192
vt 0.782420 0.372335
vt 0.764850 0.385640
vt 0.784130 0.386903
vt 0.766136 0.402254
vt 0.786401 0.401148
vt 0.767656 0.417274
vt 0.789027 0.414120
vt 0.769478 0.430913
vt 0.736050 0.827564
vt 0.739710 0.811631
vt 0.752812 0.823698
vt 0.753374 0.839366
vt 0.871974 0.416573
vt 0.872536 0.409260
vt 0.882937 0.405633
vt 0.882507 0.412403
vt 0.819776 0.286830
vt 0.842107 0.292982
vt 0.841430 0.304902
vt 0.818894 0.302208
vt 0.795212 0.824686
vt 0.816200 0.826837
vt 0.815457 0.835476
vt 0.793417 0.833477
vt 0.834021 0.830741
vt 0.834279 0.839366
vt 0.848060 0.830514
vt 0.849659 0.838665
vt 0.860422 0.825480
vt 0.863849 0.832769
vt 0.869310 0.816140
vt 0.874835 0.822627
vt 0.874641 0.804181
vt 0.878022 0.789508
vt 0.882247 0.774039
vt 0.886166 0.758650
vt 0.882660 0.742352
vt 0.891514 0.741469
vt 0.869805 0.730093
vt 0.878609 0.727240
vt 0.858371 0.719112
vt 0.866389 0.715451
vt 0.853162 0.707828
vt 0.861013 0.703347
vt 0.850180 0.695251
vt 0.856728 0.688943
vt 0.840328 0.681608
vt 0.843779 0.673731
vt 0.805286 0.637321
vt 0.781769 0.634023
vt 0.762620 0.628802
vt 0.746434 0.618946
vt 0.733530 0.606762
vt 0.724133 0.593395
vt 0.719539 0.577488
vt 0.720187 0.559283
vt 0.722233 0.540204
vt 0.725567 0.520738
vt 0.734967 0.501789
vt 0.751038 0.487219
vt 0.765139 0.476052
vt 0.776516 0.461768
vt 0.794048 0.447852
vt 0.816514 0.441515
vt 0.806781 0.468027
vt 0.794169 0.478421
vt 0.788007 0.489250
vt 0.780678 0.498055
vt 0.768177 0.505468
vt 0.753684 0.514475
vt 0.746557 0.529185
vt 0.746474 0.544492
vt 0.747079 0.559865
vt 0.747246 0.574144
vt 0.749507 0.586194
vt 0.755517 0.596808
vt 0.765677 0.604525
vt 0.778615 0.608372
vt 0.796081 0.609639
vt 0.816083 0.612389
vt 0.835494 0.615497
vt 0.853532 0.613086
vt 0.866893 0.605611
vt 0.876500 0.596042
vt 0.884973 0.585341
vt 0.892105 0.574190
vt 0.895362 0.561634
vt 0.894882 0.548310
vt 0.894251 0.533130
vt 0.896355 0.517805
vt 0.896171 0.503583
vt 0.893127 0.493843
vt 0.886004 0.485641
vt 0.873045 0.473998
vt 0.853795 0.466304
vt 0.874431 0.441411
vt 0.894696 0.457527
vt 0.905196 0.476723
vt 0.912722 0.488629
vt 0.918339 0.502603
vt 0.918222 0.520826
vt 0.916882 0.540952
vt 0.918339 0.559386
vt 0.915016 0.577121
vt 0.907383 0.593442
vt 0.898466 0.608675
vt 0.887539 0.621908
vt 0.872337 0.632924
vt 0.852635 0.640078
vt 0.829410 0.641308
vt 0.793098 0.668722
vt 0.770541 0.674561
vt 0.754281 0.681455
vt 0.745804 0.686975
vt 0.739527 0.682524
vt 0.741195 0.695164
vt 0.734072 0.691019
vt 0.737923 0.708401
vt 0.730311 0.704397
vt 0.736105 0.724668
vt 0.728608 0.721729
vt 0.731490 0.739836
vt 0.723642 0.738289
vt 0.727612 0.753219
vt 0.719539 0.753009
vt 0.727858 0.766765
vt 0.720444 0.768406
vt 0.732044 0.779808
vt 0.725142 0.783335
vt 0.737672 0.792781
vt 0.731257 0.798043
vt 0.745108 0.804907
vt 0.756944 0.815915
vt 0.774607 0.823060
vt 0.771581 0.831577
vt 0.866861 0.355437
vt 0.868318 0.339819
vt 0.878878 0.339552
vt 0.877507 0.354403
vt 0.841941 0.156132
vt 0.841131 0.147991
vt 0.850517 0.146147
vt 0.858933 0.174792
vt 0.847693 0.005721
vt 0.848647 -0.000000
vt 0.858933 0.004583
vt 0.858015 0.010206
vt 0.867796 0.370934
vt 0.878388 0.369173
vt 0.852942 0.220205
vt 0.846795 0.242593
vt 0.836054 0.243481
vt 0.839271 0.224469
vt 0.847487 0.015587
vt 0.857632 0.019508
vt 0.871090 0.383365
vt 0.881435 0.381147
vt 0.855273 0.202697
vt 0.843951 0.206946
vt 0.847192 0.027851
vt 0.857444 0.030944
vt 0.853341 0.192620
vt 0.843580 0.196105
vt 0.846828 0.042709
vt 0.857218 0.044968
vt 0.850062 0.184461
vt 0.840057 0.187085
vt 0.846172 0.058395
vt 0.856524 0.059949
vt 0.846653 0.174792
vt 0.836054 0.176842
vt 0.845004 0.073949
vt 0.855450 0.074963
vt 0.804939 0.425096
vt 0.805705 0.437942
vt 0.794752 0.436660
vt 0.794752 0.424374
vt 0.843095 0.089916
vt 0.853255 0.090621
vt 0.418212 0.833623
vt 0.418753 0.821631
vt 0.428954 0.821130
vt 0.428491 0.832577
vt 0.840519 0.101236
vt 0.850645 0.102007
vt 0.418408 0.844160
vt 0.428954 0.842726
vt 0.837433 0.111330
vt 0.847818 0.111429
vt 0.872702 0.298409
vt 0.872537 0.286830
vt 0.882642 0.288650
vt 0.883219 0.299635
vt 0.836054 0.122213
vt 0.846213 0.121352
vt 0.871665 0.311658
vt 0.882231 0.312478
vt 0.837591 0.134712
vt 0.847127 0.133257
vt 0.873058 0.396432
vt 0.883219 0.393800
vt 0.870077 0.325613
vt 0.880619 0.325991
vt 0.848245 0.254170
vt 0.836054 0.279992
vt 0.836054 0.244994
vt 0.846961 0.243481
vt 0.878403 0.124295
vt 0.881551 0.124483
vt 0.873537 0.188215
vt 0.870667 0.187817
vt 0.685182 0.565897
vt 0.675323 0.569039
vt 0.672660 0.466999
vt 0.683775 0.458531
vt 0.739090 0.357740
vt 0.738870 0.346555
vt 0.741343 0.346732
vt 0.741715 0.357956
vt 0.041906 0.670425
vt 0.053142 0.667480
vt 0.035514 0.777567
vt 0.023621 0.786913
vt 0.880845 0.254940
vt 0.878405 0.269434
vt 0.876025 0.268977
vt 0.878374 0.253986
vt 0.736784 0.139492
vt 0.744924 0.034597
vt 0.747094 0.034450
vt 0.739058 0.139464
vt 0.393942 0.821434
vt 0.397125 0.822147
vt 0.394477 0.897231
vt 0.392065 0.897495
vt 0.752318 0.431363
vt 0.752451 0.429840
vt 0.758072 0.429739
vt 0.757984 0.431256
vt 0.733547 0.003870
vt 0.733525 0.005656
vt 0.728767 0.005330
vt 0.728780 0.004437
vt 0.728791 0.003546
vt 0.789716 0.265841
vt 0.789600 0.263467
vt 0.794411 0.263255
vt 0.794468 0.264441
vt 0.794525 0.265626
vt 0.950641 0.764314
vt 0.950223 0.761724
vt 0.953723 0.761938
vt 0.954038 0.764471
vt 0.737567 0.431186
vt 0.737801 0.429665
vt 0.740787 0.429752
vt 0.740554 0.431275
vt 0.754271 0.004375
vt 0.754273 0.006176
vt 0.750434 0.006206
vt 0.750439 0.004408
vt 0.831512 0.265192
vt 0.831464 0.262805
vt 0.835912 0.262734
vt 0.835959 0.265122
vt 0.930331 0.765037
vt 0.930142 0.762477
vt 0.935582 0.761830
vt 0.935965 0.764476
vt 0.941387 0.764149
vt 0.940889 0.761481
vt 0.943645 0.761459
vt 0.944176 0.764121
vt 0.728130 0.430755
vt 0.728318 0.429238
vt 0.731739 0.429416
vt 0.731502 0.430933
vt 0.729417 0.394446
vt 0.729539 0.377689
vt 0.734286 0.377807
vt 0.733679 0.394517
vt 0.362169 0.061174
vt 0.361648 0.044350
vt 0.505339 0.029793
vt 0.505185 0.038845
vt 0.464094 0.052578
vt 0.423003 0.066312
vt 0.958153 0.930096
vt 0.957484 0.999578
vt 0.954208 0.999718
vt 0.955144 0.930262
vt 0.752263 0.395592
vt 0.751994 0.379016
vt 0.756339 0.379127
vt 0.757037 0.395758
vt 0.935286 0.929442
vt 0.933156 0.999939
vt 0.927389 0.999802
vt 0.929549 0.928596
vt 0.004984 0.072593
vt 0.004745 0.052149
vt 0.118428 0.059161
vt 0.118268 0.073469
vt 0.784426 0.000000
vt 0.784154 0.050994
vt 0.794752 0.101029
vt 0.793903 0.124004
vt 0.793053 0.146979
vt 0.794581 0.166897
vt 0.785069 0.187343
vt 0.791513 0.220997
vt 0.784789 0.263679
vt 0.774445 0.264155
vt 0.765404 0.189816
vt 0.763912 0.105891
vt 0.764958 0.006196
vt 0.770560 0.004335
vt 0.770636 0.002739
vt 0.770719 0.001146
vt 0.775135 0.000789
vt 0.779698 0.000402
vt 0.361050 0.435283
vt 0.362934 0.376584
vt 0.370625 0.311949
vt 0.442258 0.305824
vt 0.467508 0.307018
vt 0.465174 0.378381
vt 0.494867 0.433750
vt 0.430563 0.436591
vt 0.366496 0.440106
vt 0.365587 0.439307
vt 0.364678 0.438507
vt 0.363769 0.437704
vt 0.362861 0.436899
vt 0.361955 0.436092
vt 0.729280 0.126945
vt 0.738115 0.005909
vt 0.742552 0.006084
vt 0.733934 0.126914
vt 0.002801 0.436948
vt 0.000000 0.300708
vt 0.144021 0.298528
vt 0.116581 0.435536
vt 0.007861 0.442048
vt 0.006174 0.440348
vt 0.004487 0.438649
vt 0.836054 -0.000000
vt 0.835939 0.001570
vt 0.835831 0.003140
vt 0.835729 0.004710
vt 0.831294 0.103499
vt 0.829809 0.187605
vt 0.827017 0.262876
vt 0.822569 0.262947
vt 0.817814 0.184916
vt 0.819995 0.098344
vt 0.824702 0.000113
vt 0.828451 0.000118
vt 0.832228 0.000081
vt 0.751921 0.126775
vt 0.758064 0.006095
vt 0.761826 0.005968
vt 0.756397 0.126768
vt 0.942431 0.743571
vt 0.946854 0.761546
vt 0.938874 0.743967
vt 0.923301 0.747970
vt 0.924297 0.762884
vt 0.918339 0.762934
vt 0.918632 0.749076
vt 0.964470 0.441411
vt 0.962813 0.488497
vt 0.956635 0.546338
vt 0.958623 0.567454
vt 0.960612 0.588571
vt 0.961853 0.632961
vt 0.958508 0.675967
vt 0.955551 0.718511
vt 0.950680 0.718080
vt 0.945786 0.718135
vt 0.941151 0.719022
vt 0.944957 0.635596
vt 0.942512 0.550059
vt 0.944407 0.444817
vt 0.944437 0.443751
vt 0.944466 0.442684
vt 0.944496 0.441618
vt 0.954847 0.441518
vt 0.959659 0.441465
vt 0.941161 0.441651
vt 0.941129 0.442721
vt 0.941098 0.443791
vt 0.941066 0.444861
vt 0.934955 0.546311
vt 0.935734 0.635226
vt 0.932615 0.718920
vt 0.928379 0.717247
vt 0.924821 0.716727
vt 0.921245 0.716835
vt 0.922484 0.630311
vt 0.922291 0.542302
vt 0.927815 0.441762
vt 0.932264 0.441725
vt 0.936712 0.441688
vt 0.949509 0.930376
vt 0.948130 0.999905
vt 0.945136 0.999962
vt 0.946710 0.930336
vt 0.739586 0.394841
vt 0.740206 0.378220
vt 0.743125 0.378382
vt 0.742501 0.394977
vt 0.361050 0.441411
vt 0.371032 0.450183
vt 0.381599 0.459465
vt 0.392697 0.469416
vt 0.420303 0.556009
vt 0.410768 0.675945
vt 0.400427 0.783107
vt 0.391166 0.795138
vt 0.381938 0.807577
vt 0.372529 0.820720
vt 0.370547 0.820859
vt 0.368562 0.820996
vt 0.366574 0.821130
vt 0.364737 0.819560
vt 0.362895 0.817981
vt 0.361050 0.816393
vt 0.365683 0.694184
vt 0.390752 0.544137
vt 0.504880 0.775565
vt 0.596884 0.770858
vt 0.682830 0.777260
vt 0.695046 0.786728
vt 0.707355 0.796152
vt 0.719417 0.805500
vt 0.719458 0.806918
vt 0.719498 0.808336
vt 0.719539 0.809754
vt 0.717895 0.811496
vt 0.716250 0.813237
vt 0.714605 0.814977
vt 0.608633 0.809878
vt 0.498259 0.812927
vt 0.888843 0.207244
vt 0.885950 0.189107
vt 0.888555 0.189432
vt 0.891205 0.207119
vt 0.353069 0.821265
vt 0.351064 0.821123
vt 0.349060 0.820977
vt 0.347103 0.820993
vt 0.337291 0.807629
vt 0.327659 0.794971
vt 0.318062 0.782766
vt 0.303162 0.675273
vt 0.297917 0.558311
vt 0.327154 0.470201
vt 0.338109 0.460342
vt 0.348645 0.450935
vt 0.358636 0.442048
vt 0.329536 0.544233
vt 0.351498 0.693753
vt 0.358636 0.816551
vt 0.356779 0.818131
vt 0.354922 0.819703
vt -0.000000 0.809723
vt 0.000037 0.808306
vt 0.000074 0.806889
vt 0.000111 0.805472
vt 0.011740 0.796224
vt 0.121526 0.770346
vt 0.213549 0.775243
vt 0.220814 0.812579
vt 0.110509 0.809653
vt 0.004902 0.814951
vt 0.003268 0.813208
vt 0.001634 0.811466
vt 0.883716 0.206866
vt 0.880603 0.188215
vt 0.883316 0.188704
vt 0.886333 0.207179
vt 0.879265 0.231461
vt 0.880616 0.221195
vt 0.882882 0.222327
vt 0.882091 0.233468
vt 0.940803 0.726859
vt 0.936227 0.744231
vt 0.938399 0.727144
vt 0.884901 0.222989
vt 0.884764 0.235064
vt 0.933706 0.744767
vt 0.936286 0.727814
vt 0.886765 0.223230
vt 0.887270 0.236149
vt 0.737260 0.378026
vt 0.736645 0.394686
vt 0.733002 0.411771
vt 0.736013 0.411900
vt 0.734784 0.429552
vt 0.738994 0.412013
vt 0.741944 0.412111
vt 0.951155 0.999824
vt 0.952322 0.930351
vt 0.945102 0.769362
vt 0.955806 0.827505
vt 0.953380 0.828413
vt 0.942254 0.769416
vt 0.951198 0.829967
vt 0.939434 0.769530
vt 0.949222 0.831579
vt 0.936610 0.769690
vt 0.893944 0.189949
vt 0.895457 0.205878
vt 0.927243 0.746571
vt 0.890332 0.222075
vt 0.891622 0.236004
vt 0.934368 0.728773
vt 0.931349 0.745477
vt 0.930942 0.729574
vt 0.894799 0.219903
vt 0.895457 0.234189
vt 0.926730 0.730905
vt 0.921350 0.732020
vt 0.951358 0.745228
vt 0.946510 0.743980
vt 0.952926 0.728829
vt 0.948326 0.727074
vt 0.870667 0.223883
vt 0.873769 0.215389
vt 0.877425 0.218418
vt 0.875155 0.227340
vt 0.944345 0.726282
vt 0.742744 0.126854
vt 0.747349 0.126798
vt 0.752283 0.272962
vt 0.756018 0.272639
vt 0.747593 0.378765
vt 0.760018 0.272053
vt 0.763912 0.271162
vt 0.719921 0.127021
vt 0.723858 0.063494
vt 0.724612 0.127010
vt 0.719921 0.377466
vt 0.724429 0.317950
vt 0.729873 0.271129
vt 0.735391 0.272376
vt 0.724742 0.377573
vt 0.723752 0.197019
vt 0.721836 0.162020
vt 0.740679 0.273012
vt 0.745244 0.273174
vt 0.939066 1.000000
vt 0.940978 0.930042
vt 0.945233 0.833899
vt 0.930629 0.769994
vt 0.940127 0.835429
vt 0.924525 0.770052
vt 0.933062 0.836962
vt 0.918420 0.770103
vt 0.747420 0.395329
vt 0.747340 0.412332
vt 0.746695 0.429850
vt 0.752625 0.412482
vt 0.757811 0.412556
vt 0.964470 0.913798
vt 0.964108 0.999225
vt 0.960785 0.999413
vt 0.961161 0.929861
vt 0.817814 -0.000000
vt 0.806513 0.145005
vt 0.794752 0.111034
vt 0.817599 0.000001
vt 0.817675 0.212121
vt 0.817814 0.235409
vt 0.951355 0.769421
vt 0.961370 0.828166
vt 0.958552 0.827511
vt 0.948193 0.769367
vt 0.720731 0.394276
vt 0.725098 0.394366
vt 0.721397 0.428808
vt 0.721280 0.411438
vt 0.725225 0.411569
vt 0.724869 0.429034
vt 0.729135 0.411680
vt 0.721311 0.430326
vt 0.724732 0.430551
vt 0.721112 0.433332
vt 0.721216 0.431834
vt 0.724585 0.432059
vt 0.724429 0.433556
vt 0.727932 0.432262
vt 0.727724 0.433759
vt 0.731254 0.432441
vt 0.730994 0.433937
vt 0.938218 0.761606
vt 0.938665 0.764269
vt 0.936311 0.767105
vt 0.939075 0.766918
vt 0.941848 0.766801
vt 0.944667 0.766761
vt 0.918366 0.765324
vt 0.924373 0.765274
vt 0.918393 0.767713
vt 0.924449 0.767663
vt 0.930491 0.767546
vt 0.822617 0.265334
vt 0.827064 0.265263
vt 0.822711 0.270109
vt 0.822664 0.267722
vt 0.827111 0.267651
vt 0.827159 0.270038
vt 0.831559 0.267580
vt 0.831606 0.269967
vt 0.836006 0.267509
vt 0.836054 0.269896
vt 0.761808 0.004159
vt 0.758054 0.004290
vt 0.761742 0.000567
vt 0.761780 0.002359
vt 0.758033 0.002494
vt 0.758000 0.000706
vt 0.754256 0.002582
vt 0.754229 0.000798
vt 0.750430 0.002617
vt 0.750409 0.000837
vt 0.734549 0.431072
vt 0.734301 0.432582
vt 0.734041 0.434081
vt 0.737320 0.432698
vt 0.737060 0.434199
vt 0.740308 0.432789
vt 0.740048 0.434291
vt 0.947347 0.764184
vt 0.947796 0.766790
vt 0.951018 0.766875
vt 0.954329 0.766993
vt 0.954579 0.769497
vt 0.774564 0.266534
vt 0.784907 0.266055
vt 0.774802 0.271291
vt 0.774683 0.268912
vt 0.785024 0.268431
vt 0.785141 0.270807
vt 0.789831 0.268214
vt 0.789946 0.270588
vt 0.794638 0.267998
vt 0.794695 0.269183
vt 0.794752 0.270369
vt 0.794582 0.266812
vt 0.742568 0.004292
vt 0.738134 0.004120
vt 0.742556 0.000732
vt 0.742570 0.002507
vt 0.738139 0.002338
vt 0.738129 0.000566
vt 0.733554 0.002091
vt 0.733547 0.000321
vt 0.728800 0.001769
vt 0.728799 0.000883
vt 0.728795 0.000000
vt 0.728797 0.002656
vt 0.746513 0.431375
vt 0.746317 0.432890
vt 0.746106 0.434395
vt 0.752169 0.432877
vt 0.752007 0.434381
vt 0.757882 0.432766
vt 0.757767 0.434267
vt 0.855273 0.174876
vt 0.858125 0.174792
vt 0.855867 0.286237
vt 0.858125 0.286005
vt 0.864219 0.286485
vt 0.861952 0.286272
vt 0.858933 0.217852
vt 0.862203 0.216099
vt 0.789027 0.272449
vt 0.791634 0.271874
vt 0.792016 0.363333
vt 0.789830 0.362631
vt 0.794249 0.271290
vt 0.794249 0.363763
vt 0.868597 0.286475
vt 0.866430 0.286591
vt 0.865452 0.214854
vt 0.868597 0.214162
vt 0.387664 0.821143
vt 0.390762 0.821130
vt 0.389811 0.897814
vt 0.387664 0.898172
vt 0.361050 0.442048
vt 0.361050 0.550410
vt 0.360743 0.550590
vt 0.359192 0.442515
vt 0.734569 0.139468
vt 0.742730 0.034733
vt 0.733882 0.346043
vt 0.742396 0.255294
vt 0.744312 0.256185
vt 0.736383 0.346324
vt 0.732368 0.139406
vt 0.746168 0.256949
vt 0.747988 0.257540
vt 0.885398 0.256499
vt 0.882767 0.270182
vt 0.880636 0.269834
vt 0.883235 0.255812
vt 0.885222 0.243433
vt 0.882635 0.242035
vt 0.880113 0.240649
vt 0.877688 0.239374
vt 0.034476 0.458214
vt 0.046712 0.467305
vt 0.048896 0.570788
vt 0.038112 0.567897
vt 0.015196 0.446112
vt 0.022384 0.450175
vt 0.027252 0.564211
vt 0.015838 0.560192
vt 0.030144 0.674120
vt 0.017737 0.678518
vt 0.733778 0.357149
vt 0.736445 0.357468
vt 0.733928 0.367765
vt 0.736760 0.368035
vt 0.739564 0.368268
vt 0.742341 0.368456
vt 0.668057 0.668547
vt 0.683371 0.670694
vt 0.696557 0.673607
vt 0.707776 0.678251
vt 0.695222 0.562654
vt 0.705523 0.559291
vt 0.694752 0.451467
vt 0.702189 0.448496
vt 0.870667 0.000000
vt 0.874017 0.000160
vt 0.878808 0.065596
vt 0.875598 0.065436
vt 0.866339 0.000000
vt 0.868491 0.000384
vt 0.863882 0.083210
vt 0.861605 0.082773
vt 0.870667 0.000762
vt 0.866190 0.083595
vt 0.861276 0.154849
vt 0.858933 0.154346
vt 0.863643 0.155278
vt 0.868016 0.213952
vt 0.865373 0.213744
vt 0.870667 0.214162
vt 0.005043 0.187886
vt 0.116174 0.189674
vt 0.233540 0.182601
vt 0.330707 0.166191
vt 0.358052 0.313559
vt 0.243394 0.314772
vt 0.361050 0.435324
vt 0.359276 0.436968
vt 0.357504 0.438604
vt 0.355738 0.440232
vt 0.229689 0.436557
vt 0.237759 0.069140
vt 0.360313 0.060388
vt 0.243132 -0.000000
vt 0.356016 0.004656
vt 0.357693 0.006329
vt 0.359372 0.008011
vt 0.361050 0.009699
vt 0.361010 0.026939
vt 0.238345 0.030321
vt 0.125410 0.018255
vt 0.119751 0.043439
vt 0.237200 0.051010
vt 0.360865 0.043765
vt 0.004748 0.029517
vt 0.004914 0.011208
vt 0.006617 0.009523
vt 0.008319 0.007838
vt 0.010021 0.006153
vt 0.428364 0.244824
vt 0.435116 0.173906
vt 0.481363 0.187052
vt 0.493380 0.239566
vt 0.560722 0.240956
vt 0.560941 0.241145
vt 0.564999 0.251372
vt 0.551559 0.279388
vt 0.567397 0.013079
vt 0.712649 0.005665
vt 0.714371 0.007489
vt 0.716092 0.009338
vt 0.717812 0.011203
vt 0.717979 0.033358
vt 0.572449 0.030269
vt 0.500611 -0.000000
vt 0.504513 0.018518
vt 0.577087 0.282060
vt 0.602601 0.282030
vt 0.614676 0.311656
vt 0.596817 0.311944
vt 0.575944 0.128675
vt 0.606215 0.130001
vt 0.602805 0.188967
vt 0.573369 0.187655
vt 0.796794 0.386078
vt 0.817314 0.386972
vt 0.815644 0.405673
vt 0.795124 0.404779
vt 0.658456 0.119443
vt 0.716215 0.127097
vt 0.710127 0.189717
vt 0.655384 0.182844
vt 0.647076 0.305792
vt 0.709254 0.305988
vt 0.719372 0.374059
vt 0.719920 0.436294
vt 0.719088 0.437147
vt 0.718256 0.438000
vt 0.717424 0.438853
vt 0.716592 0.439705
vt 0.715760 0.440558
vt 0.714928 0.441411
vt 0.657215 0.439255
vt 0.607452 0.433526
vt 0.622321 0.371867
vt 0.651680 0.275509
vt 0.711016 0.276269
vt 0.361207 0.027161
vt 0.573794 0.037742
vt 0.573901 0.044559
vt 0.556775 0.043064
vt 0.539649 0.041570
vt 0.522417 0.040207
vt 0.719558 0.053795
vt 0.719364 0.067677
vt 0.659701 0.065509
vt 0.361050 0.009728
vt 0.362711 0.008040
vt 0.364380 0.006360
vt 0.366055 0.004690
vt 0.712778 0.246550
vt 0.656285 0.245226
vt 0.604170 0.252335
vt 0.813974 0.424374
vt 0.804489 0.424124
vt 0.906559 0.248000
vt 0.896990 0.244884
vt 0.895457 0.228442
vt 0.904835 0.227210
vt 0.414171 0.864578
vt 0.407075 0.861792
vt 0.407075 0.821130
vt 0.418212 0.825355
vt 0.895827 0.188885
vt 0.908244 0.188215
vt 0.428954 0.821130
vt 0.438411 0.821329
vt 0.439032 0.833231
vt 0.428954 0.838768
vt 0.582446 0.246646
vt 0.890457 0.114670
vt 0.881551 0.115776
vt 0.884106 0.058914
vt 0.893372 0.058489
vt 0.842107 0.407375
vt 0.851562 0.408589
vt 0.851562 0.440213
vt 0.842155 0.439123
vt 0.375796 0.119709
vt 0.428006 0.121643
vt 0.387733 0.165672
vt 0.481977 0.128418
vt 0.374040 0.241358
vt 0.372332 0.276653
vt 0.435311 0.275324
vt 0.493359 0.278086
vt 0.904718 0.347704
vt 0.895208 0.347772
vt 0.897219 0.287259
vt 0.906534 0.286830
vt 0.512648 0.186697
vt 0.510838 0.186796
vt 0.511741 0.127982
vt 0.513825 0.127883
vt 0.906700 0.228377
vt 0.908244 0.245057
vt 0.485354 0.187121
vt 0.495176 0.239646
vt 0.804737 0.236417
vt 0.817314 0.235409
vt 0.815902 0.280616
vt 0.802026 0.288356
vt 0.883219 0.286830
vt 0.892902 0.323951
vt 0.895208 0.375356
vt 0.885954 0.374939
vt 0.576935 0.268409
vt 0.578126 0.246857
vt 0.881551 0.000509
vt 0.890773 0.000000
vt 0.893143 0.434155
vt 0.883219 0.433689
vt 0.384610 0.908869
vt 0.387664 0.908437
vt 0.375231 0.863570
vt 0.387664 0.821129
vt 0.448347 0.834921
vt 0.439032 0.838460
vt 0.439032 0.821253
vt 0.448456 0.821129
vt 0.894823 0.000303
vt 0.897442 0.058831
vt 0.527051 0.240261
vt 0.522606 0.240372
vt 0.795773 0.367650
vt 0.816293 0.368544
vt 0.485799 0.128488
vt 0.488979 0.074231
vt 0.514845 0.076907
vt 0.518916 0.280052
vt 0.495203 0.278166
vt 0.361053 0.589606
vt 0.359192 0.589151
vt 0.359192 0.550590
vt 0.361055 0.551050
vt 0.522465 0.279945
vt 0.547629 0.186514
vt 0.570895 0.187857
vt 0.551873 0.079627
vt 0.576822 0.082543
vt 0.572868 0.128880
vt 0.548940 0.127522
vt 0.545673 0.127348
vt 0.894363 0.114698
vt 0.789053 0.363763
vt 0.793054 0.365176
vt 0.793054 0.408135
vt 0.789027 0.406328
vt 0.577919 0.368440
vt 0.621501 0.371466
vt 0.607491 0.433121
vt 0.580267 0.432095
vt 0.595549 0.311546
vt 0.617887 0.311235
vt 0.517866 0.308987
vt 0.542408 0.312011
vt 0.551152 0.365328
vt 0.520534 0.369449
vt 0.553042 0.431068
vt 0.523916 0.432278
vt 0.510274 0.076436
vt 0.556494 0.079010
vt 0.550933 0.126917
vt 0.504552 0.127525
vt 0.548264 0.185916
vt 0.502703 0.186343
vt 0.572617 0.240492
vt 0.523589 0.239874
vt 0.516799 0.279569
vt 0.559164 0.278945
vt 0.493398 0.277681
vt 0.465972 0.306100
vt 0.457595 0.373732
vt 0.494791 0.433487
vt 0.577126 0.281655
vt 0.906394 0.277512
vt 0.896899 0.276075
vt 0.906534 0.407621
vt 0.897065 0.407766
vt 0.815272 0.350115
vt 0.794752 0.349221
vt 0.397125 0.826782
vt 0.407075 0.875522
vt 0.397453 0.876922
vt 0.375231 0.907206
vt 0.369952 0.907307
vt 0.361050 0.859828
vt 0.375231 0.821130
s 1
f 1/1/1 64/2/2 63/3/3 3/4/4
f 3/4/4 63/3/3 65/5/5 5/6/6
f 5/6/6 65/5/5 66/7/7 7/8/8
f 7/8/8 66/7/7 67/9/9 9/10/10
f 9/10/10 67/9/9 68/11/11 11/12/12
f 11/12/12 68/11/11 69/13/13 13/14/14
f 13/15/14 69/16/13 70/17/15 15/18/16
f 15/18/16 70/17/15 71/19/17 17/20/18
f 17/20/18 71/19/17 72/21/19 19/22/20
f 19/23/20 72/24/19 73/25/21 21/26/22
f 21/26/22 73/25/21 74/27/23 23/28/24
f 23/28/24 74/27/23 75/29/25 25/30/26
f 25/30/26 75/29/25 76/31/27 27/32/28
f 27/32/28 76/31/27 77/33/29 29/34/30
f 29/34/30 77/33/29 78/35/31 31/36/31
f 33/37/32 79/38/32 80/39/33 35/40/34
f 35/40/34 80/39/33 81/41/35 37/42/36
f 37/43/36 81/44/35 82/45/37 39/46/38
f 39/46/38 82/45/37 83/47/39 41/48/40
f 41/48/40 83/47/39 84/49/41 43/50/42
f 43/50/42 84/49/41 85/51/43 45/52/44
f 45/52/44 85/51/43 86/53/45 47/54/46
f 47/54/46 86/53/45 87/55/47 49/56/48
f 49/56/48 87/55/47 88/57/49 51/58/50
f 51/58/50 88/57/49 89/59/51 53/60/52
f 53/60/52 89/59/51 90/61/53 55/62/54
f 55/62/54 90/61/53 91/63/55 57/64/56
f 57/65/56 91/66/55 92/67/57 59/68/58
f 8/69/59 6/70/60 96/71/61 97/72/62
f 59/73/58 92/74/57 93/75/63 61/76/64
f 61/76/64 93/75/63 64/2/2 1/1/1
f 2/77/65 4/78/66 63/79/67 64/80/68
f 4/78/66 6/81/69 65/82/70 63/79/67
f 6/81/69 8/83/71 66/84/72 65/82/70
f 8/83/71 10/85/73 67/86/74 66/84/72
f 10/85/73 12/87/75 68/88/76 67/86/74
f 12/87/75 14/89/77 69/16/78 68/88/76
f 14/89/77 16/90/79 70/17/80 69/16/78
f 16/90/79 18/91/81 71/19/82 70/17/80
f 18/91/81 20/92/83 72/21/84 71/19/82
f 20/92/83 22/93/85 73/94/86 72/21/84
f 22/93/85 24/95/87 74/96/88 73/94/86
f 24/95/87 26/97/89 75/98/90 74/96/88
f 26/97/89 28/99/91 76/100/92 75/98/90
f 28/99/91 30/101/93 77/102/94 76/100/92
f 30/101/93 32/103/95 78/104/95 77/102/94
f 1/105/96 3/106/96 5/107/96 7/108/96 9/109/96 11/110/96 13/111/96 15/112/96 17/113/96 19/114/96 21/115/96 23/116/96 25/117/96 27/118/96 29/119/96 31/120/96 109/121/96 108/122/96 107/123/96 106/124/96 105/125/96 104/126/96 103/127/96 102/128/96 101/129/96 100/130/96 99/131/96 98/132/96 97/133/96 96/134/96 94/135/96 95/136/96 124/137/96 123/138/96 122/139/96 121/140/96 120/141/96 119/142/96 118/143/96 117/144/96 116/145/96 115/146/96 114/147/96 113/148/96 112/149/96 111/150/96 110/151/96 33/152/96 35/153/96 37/154/96 39/155/96 41/156/96 43/157/96 45/158/96 47/159/96 49/160/96 51/161/96 53/162/96 55/163/96 57/164/96 59/165/96 61/166/96
f 34/167/97 36/168/98 80/39/99 79/38/97
f 36/168/98 38/169/100 81/41/101 80/39/99
f 38/169/100 40/170/102 82/171/103 81/41/101
f 40/170/102 42/172/104 83/173/105 82/171/103
f 42/172/104 44/174/106 84/175/107 83/173/105
f 44/174/106 46/176/108 85/177/109 84/175/107
f 46/176/108 48/178/110 86/179/111 85/177/109
f 48/178/110 50/180/112 87/181/113 86/179/111
f 50/180/112 52/182/114 88/183/115 87/181/113
f 52/182/114 54/184/116 89/185/117 88/183/115
f 54/184/116 56/186/118 90/187/119 89/185/117
f 56/186/118 58/188/120 91/66/121 90/187/119
f 58/188/120 60/189/122 92/67/123 91/66/121
f 60/189/122 62/190/124 93/191/125 92/67/123
f 62/190/124 2/77/65 64/80/68 93/191/125
f 60/192/126 58/193/127 122/194/128 123/195/129
f 78/196/130 32/197/130 109/198/130 31/199/130
f 10/200/131 8/201/59 97/202/62 98/203/132
f 62/204/133 60/192/126 123/195/129 124/205/134
f 36/206/135 34/207/136 110/208/136 111/209/137
f 12/210/138 10/200/131 98/203/132 99/211/139
f 2/212/140 62/204/133 124/205/134 95/213/141
f 38/214/142 36/206/135 111/209/137 112/215/143
f 14/216/144 12/210/138 99/211/139 100/217/145
f 40/218/146 38/214/142 112/215/143 113/219/147
f 16/220/148 14/216/144 100/217/145 101/221/149
f 42/222/150 40/218/146 113/219/147 114/223/151
f 18/224/152 16/220/148 101/221/149 102/225/153
f 44/226/154 42/222/150 114/223/151 115/227/155
f 20/228/156 18/224/152 102/225/153 103/229/157
f 46/230/158 44/231/154 115/232/155 116/233/159
f 22/234/160 20/228/156 103/229/157 104/235/160
f 48/236/161 46/237/158 116/238/159 117/239/162
f 24/240/163 22/234/164 104/235/164 105/241/165
f 50/242/166 48/236/161 117/239/162 118/243/167
f 26/244/168 24/240/163 105/241/165 106/245/169
f 52/246/170 50/247/166 118/248/167 119/249/171
f 28/250/172 26/244/168 106/245/169 107/251/173
f 54/252/174 52/246/170 119/249/171 120/253/175
f 30/254/176 28/250/172 107/251/173 108/255/177
f 4/256/178 2/212/140 95/213/141 94/257/179
f 56/258/180 54/252/174 120/253/175 121/259/181
f 32/197/182 30/254/176 108/255/177 109/198/182
f 6/70/60 4/256/178 94/257/179 96/71/61
f 58/193/127 56/258/180 121/259/181 122/194/128
f 79/260/183 33/261/183 110/262/183 34/263/183
f 468/264/184 178/265/185 141/266/186 220/267/186
f 464/268/187 218/269/188 144/270/189 211/271/190
f 460/272/191 197/273/192 133/274/193 204/275/194
f 456/276/195 215/277/196 141/278/197 210/279/198
f 452/280/199 222/281/200 143/282/201 214/283/202
f 448/284/203 205/285/204 139/286/205 230/287/206
f 444/288/207 216/289/208 143/290/209 222/291/210
f 440/292/211 239/293/212 147/294/213 238/295/214
f 436/296/215 247/297/216 149/298/217 486/299/217 246/300/218
f 432/301/219 255/302/220 157/303/221 487/304/221 254/305/222
f 428/306/223 263/307/224 153/308/225 262/309/226
f 424/310/227 269/311/228 161/312/229 233/313/230
f 420/314/231 277/315/232 163/316/233 276/317/234
f 416/318/235 285/319/236 165/320/237 284/321/238
f 412/322/239 293/323/240 168/324/241 292/325/242
f 408/326/243 297/327/244 173/328/245 257/329/246
f 404/330/247 303/331/248 175/332/249 265/333/250
f 400/334/251 179/335/252 131/336/253 308/337/254
f 125/338/255 305/339/256 482/340/257 186/341/258 587/342/259 485/343/260
f 396/344/261 302/345/262 176/346/263 314/347/264
f 392/348/265 189/349/266 126/350/267 318/351/268
f 388/352/269 236/353/270 148/354/271 322/355/272
f 128/356/273 324/357/274 473/358/275 184/359/276
f 150/360/277 488/361/277 326/362/277 521/363/277 498/364/277 526/365/277 325/366/277 497/367/277 157/303/277 255/302/277 256/368/277 172/369/277 330/370/277 329/371/277 135/372/277 328/373/277 327/374/277 169/375/277 243/376/277 244/377/277
f 149/378/278 489/379/278 332/380/279 503/381/280 478/382/281 508/383/278 326/384/278 488/385/278 150/386/278 493/387/278 245/388/278 494/389/278 246/390/278 486/391/278
f 384/392/282 248/393/283 170/394/284 336/395/285
f 159/396/286 338/397/287 471/398/288 339/399/289 160/400/286 279/401/286 280/402/286
f 164/403/290 344/404/290 343/405/290 134/406/290 346/407/290 345/408/290 165/320/290 285/319/290 286/409/290 160/410/290 339/411/290 340/412/290 151/413/290 273/414/290 274/415/290
f 380/416/291 278/417/292 152/418/293 341/419/294
f 376/420/295 264/421/296 173/328/297 350/422/298
f 372/423/299 294/424/300 156/425/301 323/426/302
f 158/427/303 501/428/303 333/429/303 533/430/303 502/431/303 334/432/303 490/433/303 127/434/304 182/435/305 181/436/306 132/437/307 226/438/303 225/439/303 137/440/303 354/441/303 353/442/303 171/443/303 251/444/303 252/445/303
f 166/446/308 356/447/308 355/448/308 138/449/308 223/450/308 224/451/308 129/452/309 188/453/310 187/454/311 128/455/312 337/456/308 338/457/308 159/458/308 281/459/308 282/460/308
f 368/461/313 268/462/314 162/463/315 319/464/316
f 364/465/317 193/466/318 130/467/319 315/468/320
f 130/469/321 203/470/321 204/471/321 133/472/321 229/473/321 230/474/321 139/475/322 191/476/323 192/477/323 134/478/324 343/479/321 344/480/321 164/481/321 275/482/321 276/483/321 163/484/321 347/485/321 348/486/321
f 134/478/324 192/477/323 191/476/323 139/475/322 231/487/325 232/488/325 142/489/326 200/490/327 199/491/328 138/492/329 355/493/325 356/494/325 166/495/325 283/496/325 284/497/325 165/498/325 345/499/325 346/500/325
f 360/501/330 298/502/331 168/503/332 351/504/333
f 169/505/334 327/506/334 328/507/334 135/508/335 208/509/336 207/510/336 140/511/337 228/512/334 227/513/334 136/514/334 202/515/334 201/516/334 131/517/334 335/518/334 336/519/334 170/520/334 241/521/334 242/522/334
f 171/523/338 353/524/338 354/525/338 137/526/339 209/527/340 210/279/198 141/278/197 178/528/338 177/529/338 140/511/337 207/510/336 208/509/336 135/508/335 329/530/338 330/531/338 172/532/338 249/533/338 250/534/338
f 350/535/298 173/536/297 297/537/341 358/538/342
f 358/538/342 297/537/341 298/502/331 360/501/330
f 132/539/307 349/540/343 357/541/344 196/542/345
f 349/543/343 350/422/298 358/544/342 357/545/344
f 196/542/345 357/541/344 359/546/346 195/547/347
f 357/545/344 358/544/342 360/548/330 359/549/346
f 195/547/347 359/546/346 352/550/348 129/551/349
f 359/546/346 360/501/330 351/504/333 352/550/348
f 308/337/254 131/336/253 194/552/350 362/553/351
f 362/553/351 194/552/350 193/466/318 364/465/317
f 175/332/352 307/554/353 361/555/354 270/556/355
f 307/554/353 308/337/254 362/553/351 361/555/354
f 270/556/355 361/555/354 363/557/356 269/311/357
f 361/555/354 362/553/351 364/465/317 363/557/356
f 269/311/357 363/557/356 316/558/358 161/312/359
f 363/557/356 364/465/317 315/468/320 316/558/358
f 314/347/264 176/346/263 267/559/360 366/560/361
f 366/560/361 267/559/360 268/462/314 368/461/313
f 174/561/362 313/562/363 365/563/364 296/564/365
f 313/562/363 314/347/264 366/560/361 365/563/364
f 296/564/365 365/563/364 367/565/366 295/566/367
f 365/563/364 366/560/361 368/461/313 367/565/366
f 295/566/367 367/565/366 320/567/368 167/568/369
f 367/565/366 368/461/313 319/464/316 320/567/368
f 351/504/333 168/503/332 293/569/370 370/570/371
f 370/571/371 293/323/370 294/424/300 372/423/299
f 129/551/309 352/550/348 369/572/372 188/573/310
f 352/574/348 351/575/333 370/571/371 369/576/372
f 188/573/310 369/572/372 371/577/373 187/578/311
f 369/576/372 370/571/371 372/423/299 371/579/373
f 187/454/311 371/579/373 324/580/374 128/455/312
f 371/579/373 372/423/299 323/426/302 324/580/374
f 310/581/375 153/308/376 263/307/377 374/582/378
f 374/582/378 263/307/377 264/421/296 376/420/295
f 127/434/304 309/583/379 373/584/380 182/435/305
f 309/583/379 310/581/375 374/582/378 373/584/380
f 182/585/305 373/586/380 375/587/381 181/588/306
f 373/584/380 374/582/378 376/420/295 375/589/381
f 181/588/306 375/587/381 349/540/343 132/539/307
f 375/589/381 376/420/295 350/422/298 349/543/343
f 347/590/382 163/316/383 277/315/384 378/591/385
f 378/591/385 277/315/384 278/417/292 380/416/291
f 130/467/319 348/592/386 377/593/387 190/594/388
f 348/592/386 347/590/382 378/591/385 377/593/387
f 190/594/388 377/593/387 379/595/389 189/349/266
f 377/593/387 378/591/385 380/416/291 379/595/389
f 189/349/266 379/595/389 342/596/390 126/350/267
f 379/595/389 380/416/291 341/419/294 342/596/390
f 332/597/391 489/598/392 149/298/392 247/297/393 382/599/394
f 382/599/394 247/297/393 248/393/283 384/392/282
f 125/600/395 499/601/396 331/602/397 381/603/398 180/604/399
f 331/602/397 500/605/400 531/606/400 332/597/391 382/599/394 381/603/398
f 180/604/399 381/603/398 383/607/401 179/335/252
f 381/603/398 382/599/394 384/392/282 383/607/401
f 179/335/252 383/607/401 335/608/402 131/336/253
f 383/607/401 384/392/282 336/395/285 335/608/402
f 319/464/316 162/463/315 235/609/403 386/610/404
f 386/610/404 235/609/403 236/353/270 388/352/269
f 167/568/369 320/567/368 385/611/405 290/612/406
f 320/567/368 319/464/316 386/610/404 385/611/405
f 290/612/406 385/611/405 387/613/407 289/614/408
f 385/611/405 386/610/404 388/352/269 387/613/407
f 289/614/408 387/613/407 321/615/409 155/616/410
f 387/613/407 388/352/269 322/355/272 321/615/409
f 315/468/320 130/467/319 190/594/388 390/617/411
f 390/617/411 190/594/388 189/349/266 392/348/265
f 161/312/359 316/558/358 389/618/412 240/619/413
f 316/558/358 315/468/320 390/617/411 389/618/412
f 240/619/413 389/618/412 391/620/414 239/293/415
f 389/618/412 390/617/411 392/348/265 391/620/414
f 239/293/415 391/620/414 317/621/416 147/294/417
f 391/620/414 392/348/265 318/351/268 317/621/416
f 312/622/418 145/623/418 301/624/419 394/625/420
f 394/625/420 301/624/419 302/345/262 396/344/261
f 154/626/421 311/627/422 393/628/423 260/629/421
f 311/627/422 312/630/424 394/631/424 393/628/423
f 260/632/425 393/633/426 395/634/427 259/635/428
f 393/633/426 394/625/420 396/344/261 395/634/427
f 259/635/428 395/634/427 313/562/363 174/561/362
f 395/634/427 396/344/261 314/347/264 313/562/363
f 305/636/429 125/600/395 180/604/399 398/637/430
f 398/637/430 180/604/399 179/335/252 400/334/251
f 146/638/431 306/639/432 397/640/433 304/641/434
f 306/639/432 305/636/429 398/637/430 397/640/433
f 304/641/434 397/640/433 399/642/435 303/331/436
f 397/640/433 398/637/430 400/334/251 399/642/435
f 303/331/436 399/642/435 307/554/353 175/332/352
f 399/642/435 400/334/251 308/337/254 307/554/353
f 299/643/437 146/638/438 304/641/439 402/644/440
f 402/644/440 304/641/439 303/331/248 404/330/247
f 145/645/441 300/646/442 401/647/443 301/648/444
f 300/646/442 299/643/437 402/644/440 401/647/443
f 301/648/444 401/647/443 403/649/445 302/650/446
f 401/647/443 402/644/440 404/330/247 403/649/445
f 302/650/446 403/649/445 266/651/447 176/652/448
f 403/649/445 404/330/247 265/333/250 266/651/447
f 292/325/242 168/324/241 298/653/449 406/654/450
f 406/654/450 298/653/449 297/327/244 408/326/243
f 167/568/451 291/655/452 405/656/453 295/566/454
f 291/655/452 292/325/242 406/654/450 405/656/453
f 295/566/454 405/656/453 407/657/455 296/564/456
f 405/656/453 406/654/450 408/326/243 407/657/455
f 296/564/456 407/657/455 258/658/457 174/561/458
f 407/657/455 408/326/243 257/329/246 258/658/457
f 287/659/459 156/425/459 294/424/460 410/660/461
f 410/660/461 294/424/460 293/323/240 412/322/239
f 155/616/459 288/661/459 409/662/462 289/614/463
f 288/661/459 287/659/459 410/660/461 409/662/462
f 289/614/463 409/662/462 411/663/464 290/612/465
f 409/662/462 410/660/461 412/322/239 411/663/464
f 290/612/465 411/663/464 291/655/452 167/568/451
f 411/663/464 412/322/239 292/325/242 291/655/452
f 279/664/466 160/410/467 286/409/468 414/665/466
f 414/665/466 286/409/468 285/319/236 416/318/235
f 159/666/469 280/667/470 413/668/471 281/669/472
f 280/667/470 279/664/466 414/665/466 413/668/471
f 281/669/472 413/668/471 415/670/473 282/671/474
f 413/668/471 414/665/466 416/318/235 415/670/473
f 282/671/474 415/670/473 283/672/474 166/673/475
f 415/670/473 416/318/235 284/321/238 283/672/474
f 271/674/476 152/418/477 278/417/478 418/675/479
f 418/675/479 278/417/478 277/315/232 420/314/231
f 151/676/480 272/677/481 417/678/482 273/679/483
f 272/677/481 271/674/476 418/675/479 417/678/482
f 273/679/483 417/678/482 419/680/484 274/681/485
f 417/678/482 418/675/479 420/314/231 419/680/484
f 274/681/485 419/680/484 275/682/486 164/683/487
f 419/680/484 420/314/231 276/317/234 275/682/486
f 265/333/250 175/332/249 270/556/488 422/684/489
f 422/684/489 270/556/488 269/311/228 424/310/227
f 176/652/448 266/651/447 421/685/490 267/686/491
f 266/651/447 265/333/250 422/684/489 421/685/490
f 267/686/491 421/685/490 423/687/492 268/688/493
f 421/685/490 422/684/489 424/310/227 423/687/492
f 268/688/493 423/687/492 234/689/494 162/690/495
f 423/687/492 424/310/227 233/313/230 234/689/494
f 257/329/246 173/328/245 264/421/496 426/691/497
f 426/691/497 264/421/496 263/307/224 428/306/223
f 174/561/458 258/658/457 425/692/498 259/635/499
f 258/658/457 257/329/246 426/691/497 425/692/498
f 259/635/499 425/692/498 427/693/500 260/632/501
f 425/692/498 426/691/497 428/306/223 427/693/500
f 260/632/501 427/693/500 261/694/502 154/695/503
f 427/693/500 428/306/223 262/309/226 261/694/502
f 249/696/504 172/369/505 256/368/506 430/697/507
f 430/697/507 256/368/506 255/302/220 432/301/219
f 171/698/508 250/699/509 429/700/510 251/701/511
f 250/699/509 249/696/504 430/697/507 429/700/510
f 251/701/511 429/700/510 431/702/512 252/703/513
f 429/700/510 430/697/507 432/301/219 431/702/512
f 252/703/513 431/702/512 253/704/514 495/705/515 158/706/515
f 431/702/512 432/301/219 254/305/222 496/707/516 253/704/514
f 241/708/517 170/394/518 248/393/519 434/709/520
f 434/709/520 248/393/519 247/297/216 436/296/215
f 169/710/521 242/711/522 433/712/523 243/713/524
f 242/711/522 241/708/517 434/709/520 433/712/523
f 243/713/524 433/712/523 435/714/525 244/715/526
f 433/712/523 434/709/520 436/296/215 435/714/525
f 244/715/526 435/714/525 245/716/527 493/717/528 150/718/528
f 435/714/525 436/296/215 246/300/218 494/719/529 245/716/527
f 233/313/230 161/312/229 240/619/530 438/720/531
f 438/720/531 240/619/530 239/293/212 440/292/211
f 162/690/495 234/689/494 437/721/532 235/722/533
f 234/689/494 233/313/230 438/720/531 437/721/532
f 235/722/533 437/721/532 439/723/534 236/724/535
f 437/721/532 438/720/531 440/292/211 439/723/534
f 236/724/535 439/723/534 237/725/536 148/726/537
f 439/723/534 440/292/211 238/295/214 237/725/536
f 220/727/538 141/728/538 215/729/538 442/730/538
f 442/731/539 215/732/540 216/733/208 444/734/207
f 142/735/541 219/736/542 441/737/543 217/738/544
f 219/736/542 220/739/545 442/740/539 441/737/543
f 217/741/544 441/742/543 443/743/546 218/744/547
f 441/742/543 442/731/539 444/734/207 443/743/546
f 218/745/547 443/746/546 221/747/548 144/748/549
f 443/746/546 444/288/207 222/291/210 221/747/548
f 228/749/550 140/750/550 206/751/550 446/752/550
f 446/753/551 206/754/552 205/285/204 448/284/203
f 136/755/553 227/756/553 445/757/554 198/758/555
f 227/756/556 228/759/556 446/753/551 445/757/557
f 198/758/555 445/757/554 447/760/558 197/273/559
f 445/757/557 446/753/551 448/284/203 447/760/560
f 197/273/559 447/760/558 229/761/561 133/274/561
f 447/760/560 448/284/203 230/287/206 229/761/562
f 211/762/563 144/763/564 221/764/565 450/765/566
f 450/765/566 221/764/565 222/281/200 452/280/199
f 129/551/567 212/766/568 449/767/569 195/547/570
f 212/766/568 211/762/563 450/765/566 449/767/569
f 195/547/570 449/767/569 451/768/571 196/542/572
f 449/767/569 450/765/566 452/280/199 451/768/571
f 196/542/572 451/768/571 213/769/573 132/539/574
f 451/768/571 452/280/199 214/283/202 213/769/573
f 214/770/575 143/771/576 216/772/577 454/773/578
f 454/773/578 216/772/577 215/277/196 456/276/195
f 132/774/579 213/775/580 453/776/581 226/777/582
f 213/775/580 214/770/575 454/773/578 453/776/581
f 226/777/582 453/776/581 455/778/583 225/779/584
f 453/776/581 454/773/578 456/276/195 455/778/583
f 225/779/584 455/778/583 209/527/340 137/526/339
f 455/778/583 456/276/195 210/279/198 209/527/340
f 202/780/585 136/755/586 198/758/587 458/781/588
f 458/781/588 198/758/587 197/273/192 460/272/191
f 131/336/589 201/782/590 457/783/591 194/552/592
f 201/782/590 202/780/585 458/781/588 457/783/591
f 194/552/592 457/783/591 459/784/593 193/466/594
f 457/783/591 458/781/588 460/272/191 459/784/593
f 193/466/594 459/784/593 203/785/595 130/467/596
f 459/784/593 460/272/191 204/275/194 203/785/595
f 200/490/327 142/489/326 217/786/597 462/787/598
f 462/787/598 217/786/597 218/269/188 464/268/187
f 138/492/329 199/491/328 461/788/599 223/789/600
f 199/491/328 200/490/327 462/787/598 461/788/599
f 223/789/600 461/788/599 463/790/601 224/791/602
f 461/788/599 462/787/598 464/268/187 463/790/601
f 224/791/602 463/790/601 212/792/603 129/793/604
f 463/790/601 464/268/187 211/271/190 212/792/603
f 206/794/605 140/795/605 177/796/606 466/797/607
f 466/797/607 177/796/606 178/265/185 468/264/184
f 139/798/608 205/799/609 465/800/610 231/801/611
f 205/799/609 206/802/612 466/803/613 465/800/610
f 231/801/611 465/800/610 467/804/614 232/805/615
f 465/800/610 466/803/613 468/806/616 467/804/614
f 232/805/615 467/804/614 219/807/617 142/808/618
f 467/804/614 468/806/616 220/809/619 219/807/617
f 338/397/287 337/810/620 472/811/621 471/398/288
f 337/810/620 128/356/273 184/359/276 472/811/621
f 470/812/622 342/813/623 341/814/624 469/815/625
f 469/815/625 341/814/624 152/816/626 271/817/626 272/818/626 151/819/626 340/820/627
f 183/821/628 126/822/629 342/813/623 470/812/622
f 322/823/630 148/824/631 237/825/631 238/826/631 147/827/631 317/828/632 475/829/633
f 321/830/634 322/823/630 475/829/633 476/831/635
f 472/811/621 470/812/622 469/815/625 471/398/288
f 471/398/288 469/815/625 340/820/627 339/399/289
f 184/359/276 183/821/628 470/812/622 472/811/621
f 474/832/636 183/821/628 184/359/276 473/358/275
f 318/833/637 126/822/629 183/821/628 474/832/636
f 324/357/274 323/834/638 476/831/635 473/358/275
f 475/829/633 474/832/636 473/358/275 476/831/635
f 317/828/632 318/833/637 474/832/636 475/829/633
f 323/834/638 156/835/639 287/836/639 288/837/639 155/838/639 321/830/634 476/831/635
f 519/839/640 504/840/641 477/841/642 506/842/643
f 517/843/644 555/844/645 556/845/646 536/846/647
f 311/847/648 154/848/649 261/849/649 262/850/649 153/851/649 310/852/650 484/853/651
f 312/854/652 311/847/648 484/853/651 483/855/653
f 539/856/654 534/857/655 479/858/656 528/859/657
f 529/860/658 511/861/659 480/862/660 527/863/661
f 498/864/662 569/865/662 568/866/663 526/867/664
f 515/868/665 490/869/666 334/870/667 510/871/668
f 479/858/656 509/872/669 333/873/670 501/874/671 158/875/671 495/876/671 253/877/671 496/878/671 254/879/671 487/880/671 157/881/671 497/882/671 325/883/671 512/884/671
f 535/885/672 533/886/673 333/873/670 509/872/669
f 305/339/256 306/887/674 483/855/653 482/340/257
f 481/888/675 185/889/676 525/890/677 492/891/678 520/892/679 186/341/258 482/340/257
f 309/893/680 127/894/681 491/895/682 185/889/676 481/888/675
f 306/887/674 146/896/683 299/897/683 300/898/683 145/899/683 312/854/652 483/855/653
f 484/853/651 481/888/675 482/340/257 483/855/653
f 310/852/650 309/893/680 481/888/675 484/853/651
f 510/871/668 334/870/667 502/900/684 514/901/685
f 480/862/660 510/871/668 514/901/685 513/902/686
f 534/857/655 535/885/672 509/872/669 479/858/656
f 491/895/682 127/894/681 490/869/666 515/868/665
f 185/889/676 491/895/682 515/868/665 511/861/659
f 511/861/659 515/868/665 510/871/668 480/862/660
f 526/867/664 568/866/663 572/903/687 325/904/687
f 538/905/688 585/906/689 564/907/689 532/908/690
f 536/909/691 582/910/691 581/911/692 517/912/693
f 525/890/677 185/889/676 511/861/659 529/860/658
f 532/908/694 564/907/694 563/913/694 478/914/694
f 539/915/695 586/916/695 582/917/695 536/918/695
f 527/863/661 480/862/660 513/902/686 530/919/696
f 517/920/693 581/921/692 579/922/697 505/923/698
f 528/924/699 570/925/699 586/926/699 539/927/699
f 499/928/700 125/338/255 485/343/260 518/929/701
f 331/930/702 499/928/700 518/929/701 504/840/641
f 504/840/641 518/929/701 507/931/703 477/841/642
f 500/932/704 331/930/702 504/840/641 519/839/640
f 531/933/705 500/932/704 519/839/640 537/934/706
f 537/934/706 519/839/640 506/842/643 532/935/707
f 512/936/708 566/937/709 567/938/710 479/939/710
f 522/940/711 542/941/712 546/942/713 523/943/714
f 532/908/690 549/944/715 548/945/715 538/905/688
f 477/841/642 543/946/716 545/947/717 506/842/718
f 478/948/719 563/949/719 565/950/719 508/951/719
f 520/952/720 583/953/720 576/954/721 523/955/722
f 539/856/654 559/956/723 558/957/724 530/919/696
f 536/846/647 556/845/646 559/956/723 539/856/654
f 505/923/698 579/922/697 577/958/725 516/959/726
f 523/955/722 576/954/721 584/960/727 522/961/728
f 529/962/729 557/963/729 550/964/729 525/965/729
f 479/966/730 567/967/730 570/968/730 528/969/730
f 516/959/731 554/970/732 553/971/733 505/923/734
f 524/972/735 547/973/736 542/941/712 522/940/711
f 503/381/280 537/934/706 532/935/707 478/382/281
f 332/380/279 531/933/705 537/934/706 503/381/280
f 521/974/737 560/975/737 569/865/662 498/864/662
f 513/902/686 514/901/685 535/885/672 534/857/655
f 514/901/685 502/900/684 533/886/673 535/885/672
f 530/919/696 513/902/686 534/857/655 539/856/654
f 543/946/716 542/941/738 547/973/736 545/947/739
f 544/976/740 546/942/741 542/941/738 543/946/716
f 541/977/742 540/978/743 546/942/741 544/976/740
f 545/947/739 547/973/736 548/979/744 549/980/745
f 520/892/679 540/978/743 541/977/742 186/341/258
f 186/341/258 541/977/742 544/976/740 507/931/703 587/342/259
f 506/981/718 545/982/717 549/983/746 532/984/746
f 507/931/703 544/976/740 543/946/716 477/841/642
f 523/943/714 546/942/713 540/978/747 520/892/747
f 538/985/748 548/979/744 547/973/736 524/972/735
f 553/986/749 552/987/750 558/957/751 555/844/645
f 551/988/752 550/989/753 557/990/754 554/991/755
f 554/991/755 557/990/754 552/987/750 553/986/749
f 555/844/645 558/957/751 559/956/723 556/845/646
f 485/343/260 587/342/259 507/931/703 518/929/701
f 530/919/756 558/957/756 552/987/757 527/863/757
f 492/891/758 551/988/758 554/991/732 516/992/731
f 525/890/677 550/989/753 551/988/752 492/891/678
f 505/923/734 553/971/733 555/993/759 517/920/759
f 527/994/757 552/995/757 557/996/760 529/997/760
f 573/998/761 566/999/762 572/1000/763 568/1001/764
f 570/1002/765 567/1003/766 566/999/762 573/998/761
f 562/1004/767 571/1005/768 575/1006/769 574/1007/770
f 574/1007/770 575/1006/769 569/1008/771 560/1009/772
f 583/1010/773 578/1011/774 577/1012/775 576/1013/776
f 576/1013/776 577/1012/775 579/1014/777 584/1015/778
f 584/1015/778 579/1014/777 581/1016/779 580/1017/780
f 585/1018/781 582/1019/782 571/1005/768 562/1004/767
f 564/1020/783 585/1018/781 562/1004/767 563/1021/784
f 565/1022/785 574/1007/770 560/1009/772 561/1023/786
f 563/1021/784 562/1004/767 574/1007/770 565/1022/785
f 571/1005/768 570/1002/765 573/998/761 575/1006/769
f 575/1006/769 573/998/761 568/1001/764 569/1008/771
f 582/1019/782 586/1024/787 570/1002/765 571/1005/768
f 580/1017/780 581/1016/779 582/1019/782 585/1018/781
f 524/1025/788 580/1026/788 585/906/788 538/905/788
f 325/1027/789 572/1028/789 566/937/709 512/936/708
f 508/951/790 565/950/790 561/1029/790 326/1030/790
f 492/891/678 578/1011/774 583/1010/773 520/892/679
f 522/1031/728 584/911/727 580/1032/791 524/1033/791
f 326/1030/737 561/1029/737 560/975/737 521/974/737
f 516/1034/726 577/1035/725 578/1036/792 492/1037/792
